<svg width="21" height="20" viewBox="0 0 21 20" fill="none" xmlns="http://www.w3.org/2000/svg">
<path d="M6.54297 4.0625C6.54297 3.19956 5.84341 2.5 4.98047 2.5C4.11752 2.5 3.41797 3.19956 3.41797 4.0625C3.41797 4.92544 4.11752 5.625 4.98047 5.625C5.84341 5.625 6.54297 4.92544 6.54297 4.0625Z" stroke="#D6D6D7" stroke-width="1.5" stroke-miterlimit="10"/>
<path d="M12.4805 4.0625C12.4805 3.19956 11.7809 2.5 10.918 2.5C10.055 2.5 9.35547 3.19956 9.35547 4.0625C9.35547 4.92544 10.055 5.625 10.918 5.625C11.7809 5.625 12.4805 4.92544 12.4805 4.0625Z" stroke="#D6D6D7" stroke-width="1.5" stroke-miterlimit="10"/>
<path d="M18.418 4.0625C18.418 3.19956 17.7184 2.5 16.8555 2.5C15.9925 2.5 15.293 3.19956 15.293 4.0625C15.293 4.92544 15.9925 5.625 16.8555 5.625C17.7184 5.625 18.418 4.92544 18.418 4.0625Z" stroke="#D6D6D7" stroke-width="1.5" stroke-miterlimit="10"/>
<path d="M6.54297 10C6.54297 9.13706 5.84341 8.4375 4.98047 8.4375C4.11752 8.4375 3.41797 9.13706 3.41797 10C3.41797 10.8629 4.11752 11.5625 4.98047 11.5625C5.84341 11.5625 6.54297 10.8629 6.54297 10Z" stroke="#D6D6D7" stroke-width="1.5" stroke-miterlimit="10"/>
<path d="M12.4805 10C12.4805 9.13706 11.7809 8.4375 10.918 8.4375C10.055 8.4375 9.35547 9.13706 9.35547 10C9.35547 10.8629 10.055 11.5625 10.918 11.5625C11.7809 11.5625 12.4805 10.8629 12.4805 10Z" stroke="#D6D6D7" stroke-width="1.5" stroke-miterlimit="10"/>
<path d="M18.418 10C18.418 9.13706 17.7184 8.4375 16.8555 8.4375C15.9925 8.4375 15.293 9.13706 15.293 10C15.293 10.8629 15.9925 11.5625 16.8555 11.5625C17.7184 11.5625 18.418 10.8629 18.418 10Z" stroke="#D6D6D7" stroke-width="1.5" stroke-miterlimit="10"/>
<path d="M6.54297 15.9375C6.54297 15.0746 5.84341 14.375 4.98047 14.375C4.11752 14.375 3.41797 15.0746 3.41797 15.9375C3.41797 16.8004 4.11752 17.5 4.98047 17.5C5.84341 17.5 6.54297 16.8004 6.54297 15.9375Z" stroke="#D6D6D7" stroke-width="1.5" stroke-miterlimit="10"/>
<path d="M12.4805 15.9375C12.4805 15.0746 11.7809 14.375 10.918 14.375C10.055 14.375 9.35547 15.0746 9.35547 15.9375C9.35547 16.8004 10.055 17.5 10.918 17.5C11.7809 17.5 12.4805 16.8004 12.4805 15.9375Z" stroke="#D6D6D7" stroke-width="1.5" stroke-miterlimit="10"/>
<path d="M18.418 15.9375C18.418 15.0746 17.7184 14.375 16.8555 14.375C15.9925 14.375 15.293 15.0746 15.293 15.9375C15.293 16.8004 15.9925 17.5 16.8555 17.5C17.7184 17.5 18.418 16.8004 18.418 15.9375Z" stroke="#D6D6D7" stroke-width="1.5" stroke-miterlimit="10"/>
</svg>
