<svg width="61" height="51" viewBox="0 0 61 51" fill="none" xmlns="http://www.w3.org/2000/svg">
<path d="M9.15243 2.12745C7.54389 2.12745 6.23216 3.43917 6.23216 5.04771L6.23253 45.6687C6.23252 47.2773 7.54426 48.589 9.15279 48.589L55.9458 48.589C57.5543 48.589 58.866 47.2773 58.866 45.6687L58.8657 5.04771C58.8657 3.43917 57.5539 2.12745 55.9454 2.12744L9.15243 2.12745Z" fill="#EAEBEB"/>
<path d="M5.04583 50.334L55.9542 50.334C58.7404 50.334 61 48.0648 61 45.2881L61 5.04597C61 2.26932 58.7404 0.000129502 55.9542 0.000129259L5.04583 0.000124808C2.25961 0.000124564 4.20278e-06 2.25974 3.9592e-06 5.04596L4.41121e-07 45.2881C1.97542e-07 48.0744 2.25961 50.334 5.04583 50.334ZM7.00863 5.04596C7.00863 3.43742 8.32036 2.1257 9.9289 2.1257L55.9446 2.12571C57.5531 2.12571 58.8649 3.43743 58.8649 5.04597L58.8649 45.2881C58.8649 46.8967 57.5531 48.2084 55.9446 48.2084L9.92889 48.2084C8.32035 48.2084 7.00863 46.8967 7.00863 45.2881L7.00863 5.04596Z" fill="#313338"/>
<path d="M21.3871 40.7879C21.8269 41.2728 22.5711 41.3179 23.056 40.8781L23.0898 40.8556C24.2738 39.7843 25.5142 38.8822 26.8899 38.2395C28.2656 37.608 29.7654 37.281 31.2651 37.281C32.0207 37.2697 32.7649 37.3599 33.5091 37.5178C34.2421 37.6756 34.9638 37.9125 35.6516 38.2282C36.3395 38.5439 36.9935 38.9273 37.625 39.3671C38.2565 39.8069 38.8541 40.3143 39.4405 40.8556L39.4743 40.8894C39.8464 41.2277 40.399 41.3066 40.8613 41.0473C41.4251 40.7203 41.6281 39.9986 41.3011 39.4348C40.3313 37.732 38.809 36.345 37.0386 35.4204C36.1591 34.9581 35.2119 34.6085 34.2421 34.3604C33.2723 34.1236 32.2687 33.9996 31.2651 33.9996C30.2615 33.9996 29.2579 34.1236 28.2882 34.3604C27.3184 34.5972 26.3712 34.9693 25.4917 35.4204C23.7213 36.3338 22.1764 37.7207 21.2292 39.446C20.9924 39.852 21.0375 40.4045 21.3871 40.7879Z" fill="#313338"/>
<path d="M28.9735 27.1981C29.7065 27.2657 30.4845 27.153 31.1949 26.8711C31.9053 26.6005 32.5706 26.1607 33.1119 25.6081C33.6645 25.0556 34.0817 24.3677 34.3636 23.6235C34.4989 23.2514 34.5891 22.8567 34.6455 22.462C34.668 22.2703 34.6793 22.0674 34.6906 21.8644L34.7019 21.4246C34.7019 20.2744 34.6568 19.113 34.5891 17.9628C34.5214 16.8126 34.42 15.6624 34.2621 14.501C34.1944 13.9935 33.7885 13.565 33.2472 13.4861C32.5932 13.3959 32.0068 13.8469 31.9166 14.501C31.7588 15.6511 31.6573 16.8013 31.5896 17.9628C31.522 19.113 31.4768 20.2744 31.4768 21.4246V21.8418L31.4656 22.1125C31.4543 22.2929 31.4205 22.4733 31.3866 22.6425C31.2964 22.992 31.1386 23.319 30.913 23.6235C30.462 24.2324 29.7741 24.6835 28.9397 24.8414L28.8607 24.8526C28.3533 24.9541 27.9474 25.3713 27.9023 25.9126C27.8459 26.5779 28.3195 27.1417 28.9735 27.1981Z" fill="#313338"/>
<path d="M21.4308 14.6447C21.3068 14.3065 21.0361 14.0245 20.6753 13.8892C20.0325 13.6637 19.3221 14.002 19.0853 14.6447C18.95 15.0394 18.8711 15.4341 18.8034 15.8288C18.747 16.2234 18.7132 16.6181 18.7019 17.0128C18.6907 17.4074 18.6907 17.8021 18.747 18.1968C18.8034 18.5915 18.8936 18.9861 19.0853 19.3808C19.2094 19.6289 19.4123 19.8318 19.6717 19.9672C20.3144 20.2829 21.1038 20.0236 21.4308 19.3808C21.6225 18.9861 21.7127 18.5915 21.7691 18.1968C21.8255 17.8021 21.8255 17.4074 21.8142 17.0128C21.8029 16.6181 21.7691 16.2234 21.7127 15.8288C21.6338 15.4341 21.5661 15.0394 21.4308 14.6447Z" fill="#313338"/>
<path d="M45.3112 14.6447C45.1871 14.3065 44.9165 14.0245 44.5557 13.8892C43.9129 13.6637 43.2025 14.002 42.9657 14.6447C42.8304 15.0394 42.7515 15.4341 42.6838 15.8288C42.6274 16.2234 42.5936 16.6181 42.5823 17.0128C42.571 17.4074 42.571 17.8021 42.6274 18.1968C42.6838 18.5915 42.774 18.9861 42.9657 19.3808C43.0897 19.6289 43.2927 19.8318 43.5521 19.9672C44.1948 20.2829 44.9842 20.0236 45.3112 19.3808C45.5029 18.9861 45.5931 18.5915 45.6495 18.1968C45.7058 17.8021 45.7058 17.4074 45.6946 17.0128C45.6833 16.6181 45.6495 16.2234 45.5931 15.8288C45.5141 15.4341 45.4465 15.0394 45.3112 14.6447Z" fill="#313338"/>
</svg>
