<svg width="18" height="18" viewBox="0 0 18 18" fill="none" xmlns="http://www.w3.org/2000/svg">
<path d="M9 0C4.03125 0 0 4.03125 0 9C0 13.9688 4.03125 18 9 18C13.9688 18 18 13.9688 18 9C18 4.03125 13.9688 0 9 0ZM9.48938 14.1562H8.07328C8.04141 14.1561 8.01089 14.1434 7.9884 14.1208C7.96591 14.0982 7.95328 14.0676 7.95328 14.0358V12.6202C7.95328 12.5883 7.96591 12.5577 7.9884 12.5351C8.01089 12.5126 8.04141 12.4998 8.07328 12.4997H9.48938C9.52124 12.4998 9.55176 12.5126 9.57426 12.5351C9.59675 12.5577 9.60938 12.5883 9.60938 12.6202V14.0358C9.60938 14.0676 9.59675 14.0982 9.57426 14.1208C9.55176 14.1434 9.52124 14.1561 9.48938 14.1562ZM10.2863 9.51562C9.52641 10.0256 9.42188 10.493 9.42188 10.9219V11.4375C9.42188 11.4748 9.40706 11.5106 9.38069 11.5369C9.35431 11.5633 9.31855 11.5781 9.28125 11.5781H8.25C8.2127 11.5781 8.17694 11.5633 8.15056 11.5369C8.12419 11.5106 8.10938 11.4748 8.10938 11.4375V10.9219C8.10938 9.89484 8.58188 9.07828 9.55406 8.42531C10.4578 7.81875 10.9688 7.43438 10.9688 6.58922C10.9688 6.01453 10.6406 5.57812 9.96141 5.25516C9.80156 5.17922 9.44578 5.10516 9.00797 5.11031C8.45859 5.11734 8.03203 5.24859 7.70344 5.51297C7.08375 6.01172 7.03125 6.555 7.03125 6.5625C7.00552 6.72185 6.99235 6.88297 6.99188 7.04437C6.99188 7.08167 6.97706 7.11744 6.95069 7.14381C6.92431 7.17018 6.88855 7.185 6.85125 7.185H5.85516C5.82025 7.18519 5.78652 7.17238 5.76052 7.14908C5.73453 7.12577 5.71814 7.09363 5.71453 7.05891C5.69765 6.87171 5.69907 6.68332 5.71875 6.49641C5.72906 6.3825 5.80313 5.35641 6.87984 4.49016C7.43813 4.04109 8.14828 3.80766 8.98922 3.79734C9.58453 3.79031 10.1437 3.89109 10.523 4.07016C11.6578 4.60969 12.2812 5.50453 12.2812 6.58922C12.2812 8.175 11.2214 8.88703 10.2863 9.51562Z" fill="#313338"/>
</svg>
