<svg width="24" height="22" viewBox="0 0 24 22" fill="none" xmlns="http://www.w3.org/2000/svg">
<path d="M22.4999 20H21.9374C21.8877 20 21.84 19.9802 21.8048 19.9451C21.7696 19.9099 21.7499 19.8622 21.7499 19.8125V11.8208C21.7503 11.791 21.7436 11.7614 21.7303 11.7347C21.7171 11.708 21.6976 11.6848 21.6736 11.6671C21.6496 11.6494 21.6217 11.6377 21.5922 11.633C21.5628 11.6282 21.5326 11.6306 21.5043 11.6398C21.0741 11.775 20.6274 11.8504 20.1768 11.8639C20.1214 11.8639 20.0689 11.8663 20.0174 11.8663C19.1505 11.8683 18.2976 11.6482 17.54 11.2269C17.4827 11.195 17.4182 11.1782 17.3525 11.1782C17.2869 11.1782 17.2224 11.195 17.165 11.2269C16.4076 11.6482 15.5549 11.8683 14.6882 11.8663C13.8263 11.8675 12.9789 11.6447 12.2291 11.2198C12.1713 11.1871 12.1059 11.1699 12.0395 11.1699C11.973 11.1699 11.9077 11.1871 11.8499 11.2198C11.0888 11.6463 10.2305 11.8691 9.35801 11.8667C8.49037 11.8673 7.63766 11.6411 6.88441 11.2105C6.82613 11.1773 6.76022 11.1599 6.69316 11.1599C6.62611 11.1599 6.5602 11.1773 6.50191 11.2105C5.74867 11.6411 4.89596 11.8673 4.02832 11.8667C3.97723 11.8667 3.92566 11.8667 3.87035 11.8644H3.86754C3.40104 11.8504 2.9389 11.77 2.49504 11.6258C2.46693 11.6167 2.43707 11.6144 2.4079 11.619C2.37873 11.6237 2.35107 11.6351 2.32717 11.6525C2.30327 11.6699 2.28382 11.6926 2.27038 11.7189C2.25695 11.7453 2.24993 11.7744 2.24988 11.8039V19.8125C2.24988 19.8622 2.23013 19.9099 2.19497 19.9451C2.1598 19.9802 2.11211 20 2.06238 20H1.52332C1.11832 20 0.768633 20.3113 0.750821 20.7162C0.746262 20.8175 0.762257 20.9186 0.797843 21.0134C0.833428 21.1083 0.887865 21.195 0.957868 21.2682C1.02787 21.3414 1.11199 21.3997 1.20515 21.4396C1.2983 21.4794 1.39857 21.5 1.49988 21.5H22.4764C22.8814 21.5 23.2311 21.1887 23.2489 20.7838C23.2535 20.6825 23.2375 20.5814 23.2019 20.4866C23.1663 20.3917 23.1119 20.305 23.0419 20.2318C22.9719 20.1586 22.8878 20.1003 22.7946 20.0604C22.7015 20.0206 22.6012 20 22.4999 20ZM10.4999 16.8125C10.4999 16.8622 10.4801 16.9099 10.445 16.9451C10.4098 16.9802 10.3621 17 10.3124 17H6.18738C6.13766 17 6.08996 16.9802 6.0548 16.9451C6.01964 16.9099 5.99988 16.8622 5.99988 16.8125V13.8125C5.99988 13.6633 6.05915 13.5202 6.16464 13.4148C6.27013 13.3093 6.4132 13.25 6.56238 13.25H9.93738C10.0866 13.25 10.2296 13.3093 10.3351 13.4148C10.4406 13.5202 10.4999 13.6633 10.4999 13.8125V16.8125ZM17.8124 20H14.4374C14.3877 20 14.34 19.9802 14.3048 19.9451C14.2696 19.9099 14.2499 19.8622 14.2499 19.8125V13.8125C14.2499 13.6633 14.3091 13.5202 14.4146 13.4148C14.5201 13.3093 14.6632 13.25 14.8124 13.25H17.4374C17.5866 13.25 17.7296 13.3093 17.8351 13.4148C17.9406 13.5202 17.9999 13.6633 17.9999 13.8125V19.8125C17.9999 19.8622 17.9801 19.9099 17.945 19.9451C17.9098 19.9802 17.8621 20 17.8124 20ZM23.0891 6.98187L21.0772 2.36516C20.5504 1.23219 19.3471 0.5 18.0116 0.5H5.98582C4.65035 0.5 3.44707 1.23219 2.9202 2.36516L0.908321 6.98187C0.486446 7.89172 1.04379 8.82594 1.04426 8.82641L1.05738 8.8475C1.08035 8.88406 1.12113 8.94125 1.14598 8.97781C1.14832 8.98063 1.1502 8.98391 1.15254 8.98719L1.38691 9.27078C1.39568 9.28149 1.40507 9.29166 1.41504 9.30125L1.64941 9.52766L1.6691 9.54453C1.80674 9.66251 1.95397 9.76881 2.10926 9.86234V9.86469C2.6194 10.1737 3.20061 10.346 3.79676 10.3648H3.91254C4.81454 10.3665 5.68368 10.0263 6.34488 9.41281L6.36035 9.39828C6.42941 9.33322 6.52071 9.29698 6.61559 9.29698C6.71047 9.29698 6.80177 9.33322 6.87082 9.39828L6.88629 9.41281C7.55454 10.0253 8.42809 10.3651 9.33457 10.3651C10.241 10.3651 11.1146 10.0253 11.7829 9.41281C11.8522 9.34864 11.9432 9.31298 12.0376 9.31298C12.1321 9.31298 12.2231 9.34864 12.2924 9.41281C12.9587 10.0234 13.829 10.3629 14.7327 10.3649C15.6364 10.3669 16.5083 10.0312 17.1772 9.42359C17.2455 9.36034 17.3352 9.3252 17.4282 9.3252C17.5213 9.3252 17.611 9.36034 17.6793 9.42359C18.3489 10.0349 19.2246 10.371 20.1313 10.3648H20.248C20.8292 10.3431 21.3947 10.1703 21.8886 9.86328C21.9332 9.83656 21.9758 9.80844 22.0189 9.78031C22.3521 9.55572 22.642 9.27292 22.8749 8.94547L22.9564 8.82219C22.9646 8.80969 22.9721 8.79656 22.9789 8.78281C23.0568 8.62437 23.4739 7.80969 23.0891 6.98187Z" fill="#313338"/>
</svg>
