<svg width="32" height="32" viewBox="0 0 32 32" fill="none" xmlns="http://www.w3.org/2000/svg">
<path d="M19 20H24C25.3261 20 26.5979 19.4732 27.5355 18.5355C28.4732 17.5979 29 16.3261 29 15C29 13.6739 28.4732 12.4021 27.5355 11.4645C26.5979 10.5268 25.3261 10 24 10H19V20Z" fill="#FFD699"/>
<path d="M19 10V25.4648C19 25.6294 19.0406 25.7915 19.1183 25.9367C19.196 26.0818 19.3083 26.2055 19.4453 26.2969L20.8193 27.2129C20.9526 27.3018 21.1054 27.3573 21.2647 27.3748C21.424 27.3924 21.5851 27.3713 21.7346 27.3135C21.8841 27.2558 22.0175 27.1629 22.1236 27.0428C22.2296 26.9227 22.3053 26.7788 22.3442 26.6234L24 20" stroke="#313338" stroke-width="1.5" stroke-linecap="round" stroke-linejoin="round"/>
<path d="M23.9999 19.9998C25.326 19.9998 26.5977 19.473 27.5354 18.5353C28.4731 17.5977 28.9999 16.3259 28.9999 14.9998C28.9999 13.6737 28.4731 12.402 27.5354 11.4643C26.5977 10.5266 25.326 9.99982 23.9999 9.99982H18.9999C18.9999 9.99982 12.1934 9.99982 5.6435 4.50636C5.49782 4.38375 5.32017 4.30529 5.13143 4.2802C4.94269 4.25511 4.75071 4.28444 4.57807 4.36473C4.40542 4.44502 4.25929 4.57294 4.15687 4.73345C4.05444 4.89395 3.99998 5.08037 3.99988 5.27077V24.7289C3.99998 24.9193 4.05444 25.1057 4.15687 25.2662C4.25929 25.4267 4.40542 25.5546 4.57807 25.6349C4.75071 25.7152 4.94269 25.7445 5.13143 25.7194C5.32017 25.6943 5.49782 25.6159 5.6435 25.4933C12.1934 19.9998 18.9999 19.9998 18.9999 19.9998H23.9999Z" stroke="#313338" stroke-width="1.5" stroke-linecap="round" stroke-linejoin="round"/>
</svg>
