<svg width="20" height="20" viewBox="0 0 20 20" fill="none" xmlns="http://www.w3.org/2000/svg">
<path d="M13.4375 2.8125H6.5625C6.07004 2.8125 5.58241 2.90949 5.12744 3.09795C4.67246 3.2864 4.25907 3.56263 3.91085 3.91085C3.56263 4.25907 3.2864 4.67246 3.09795 5.12744C2.90949 5.58241 2.8125 6.07004 2.8125 6.5625V13.4375C2.8125 13.93 2.90949 14.4176 3.09795 14.8726C3.2864 15.3275 3.56263 15.7409 3.91085 16.0892C4.25907 16.4374 4.67246 16.7136 5.12744 16.9021C5.58241 17.0905 6.07004 17.1875 6.5625 17.1875H13.4375C13.93 17.1875 14.4176 17.0905 14.8726 16.9021C15.3275 16.7136 15.7409 16.4374 16.0892 16.0892C16.4374 15.7409 16.7136 15.3275 16.9021 14.8726C17.0905 14.4176 17.1875 13.93 17.1875 13.4375V6.5625C17.1875 6.07004 17.0905 5.58241 16.9021 5.12744C16.7136 4.67246 16.4374 4.25907 16.0892 3.91085C15.7409 3.56263 15.3275 3.2864 14.8726 3.09795C14.4176 2.90949 13.93 2.8125 13.4375 2.8125ZM10 13.125C9.38193 13.125 8.77775 12.9417 8.26384 12.5983C7.74994 12.255 7.3494 11.7669 7.11288 11.1959C6.87635 10.6249 6.81447 9.99653 6.93505 9.39034C7.05562 8.78415 7.35325 8.22733 7.79029 7.79029C8.22733 7.35325 8.78415 7.05562 9.39034 6.93505C9.99653 6.81447 10.6249 6.87635 11.1959 7.11288C11.7669 7.3494 12.255 7.74994 12.5983 8.26384C12.9417 8.77775 13.125 9.38193 13.125 10C13.125 10.8288 12.7958 11.6237 12.2097 12.2097C11.6237 12.7958 10.8288 13.125 10 13.125Z" fill="#FFD699"/>
<path d="M10 13.125C11.7259 13.125 13.125 11.7259 13.125 10C13.125 8.27411 11.7259 6.875 10 6.875C8.27411 6.875 6.875 8.27411 6.875 10C6.875 11.7259 8.27411 13.125 10 13.125Z" stroke="#313338" stroke-width="2" stroke-miterlimit="10"/>
<path d="M13.4375 2.8125H6.5625C4.49143 2.8125 2.8125 4.49143 2.8125 6.5625V13.4375C2.8125 15.5086 4.49143 17.1875 6.5625 17.1875H13.4375C15.5086 17.1875 17.1875 15.5086 17.1875 13.4375V6.5625C17.1875 4.49143 15.5086 2.8125 13.4375 2.8125Z" stroke="#313338" stroke-width="2" stroke-linecap="round" stroke-linejoin="round"/>
<path d="M14.0625 6.875C14.5803 6.875 15 6.45527 15 5.9375C15 5.41973 14.5803 5 14.0625 5C13.5447 5 13.125 5.41973 13.125 5.9375C13.125 6.45527 13.5447 6.875 14.0625 6.875Z" fill="#313338"/>
</svg>
