<svg width="19" height="28" viewBox="0 0 19 28" fill="none" xmlns="http://www.w3.org/2000/svg">
<g clip-path="url(#clip0)">
<path d="M9.19084 19.6352C9.19136 19.6352 9.19136 19.6352 9.19084 19.6352H9.19136C9.19136 19.6352 9.19136 19.6352 9.19189 19.6352C14.1779 19.6346 18.2347 16.1522 18.2347 11.8716C18.2347 11.4412 17.8818 11.0928 17.4469 11.0928C13.7692 11.0928 10.6032 12.99 9.19136 15.7015C7.77955 12.9895 4.61347 11.0928 0.935303 11.0928C0.499889 11.0928 0.147461 11.4412 0.147461 11.8716C0.147461 16.1522 4.20432 19.6346 9.19084 19.6352ZM16.5855 12.6946C16.1364 15.4938 13.4389 17.7073 10.0527 18.0323C10.5023 15.2336 13.1999 13.0202 16.5855 12.6946ZM8.33051 18.0328C4.94384 17.7078 2.2468 15.4938 1.7972 12.6951C5.18335 13.0202 7.88039 15.2336 8.33051 18.0328Z" fill="#313338"/>
<path d="M17.4479 17.252C13.7703 17.252 10.6042 19.1492 9.19185 21.8612C7.78004 19.1492 4.61396 17.252 0.935791 17.252C0.500377 17.252 0.147949 17.6009 0.147949 18.0308C0.147949 22.3113 4.20481 25.7938 9.19185 25.7938C14.1784 25.7938 18.2358 22.3113 18.2358 18.0308C18.2358 17.6009 17.8828 17.252 17.4479 17.252ZM1.79716 18.8543C5.18331 19.1793 7.88035 21.3928 8.32995 24.1915C4.94433 23.8669 2.24729 21.6535 1.79716 18.8543ZM10.0537 24.192C10.5028 21.3928 13.2004 19.1799 16.5865 18.8548C16.1369 21.6535 13.4394 23.867 10.0537 24.192Z" fill="#313338"/>
<path d="M8.76388 14.9482C8.77228 14.9534 8.78174 14.955 8.79014 14.9602C8.83268 14.9851 8.87785 15.0038 8.92407 15.0209C8.94508 15.0287 8.96556 15.0391 8.9871 15.0448C9.05065 15.0619 9.11578 15.0713 9.18143 15.0723C9.18458 15.0723 9.18774 15.0734 9.19141 15.0734H9.19194H9.19246C9.19561 15.0734 9.19877 15.0723 9.20244 15.0723C9.2681 15.0713 9.33322 15.0619 9.39678 15.0448C9.41884 15.0391 9.43985 15.0282 9.46138 15.0204C9.50707 15.0038 9.55119 14.9856 9.59269 14.9607C9.60214 14.9555 9.6116 14.9539 9.62052 14.9482C11.6647 13.6398 12.8853 11.4029 12.8853 8.96513C12.8853 6.53877 11.6752 4.31283 9.64836 3.00177C9.64153 2.99709 9.63576 2.99138 9.6284 2.98723C9.62578 2.98567 9.62315 2.98359 9.62052 2.98152C9.60529 2.97165 9.58849 2.96594 9.57325 2.95763C9.54542 2.94258 9.51863 2.92648 9.48922 2.91506C9.46716 2.90623 9.44457 2.90104 9.42199 2.89377C9.39573 2.88546 9.36946 2.87715 9.34268 2.87196C9.32009 2.86781 9.29803 2.86677 9.27545 2.86417C9.24709 2.86106 9.21872 2.85742 9.18984 2.85742C9.16988 2.85742 9.14992 2.86002 9.13049 2.86209C9.0995 2.86417 9.06851 2.86677 9.03752 2.873C9.01809 2.87663 8.9997 2.8839 8.98027 2.88909C8.95086 2.8974 8.92145 2.90467 8.89256 2.91609C8.86735 2.92648 8.84371 2.9405 8.81903 2.95348C8.80064 2.96334 8.78121 2.97009 8.76388 2.98152C8.76125 2.98308 8.75863 2.98567 8.75547 2.98775C8.74865 2.9919 8.74287 2.99709 8.73604 3.00177C6.70919 4.31283 5.49854 6.53877 5.49854 8.96565C5.49906 11.4034 6.71916 13.6398 8.76388 14.9482ZM9.19194 4.60256C10.5234 5.64621 11.3091 7.23713 11.3091 8.96461C11.3091 10.6921 10.5229 12.283 9.19194 13.3262C7.86101 12.2825 7.07474 10.6921 7.07474 8.96461C7.07474 7.23713 7.86049 5.64673 9.19194 4.60256Z" fill="#313338"/>
</g>
<defs>
<clipPath id="clip0">
<rect width="18.383" height="27" fill="white" transform="translate(0 0.5)"/>
</clipPath>
</defs>
</svg>
