<svg width="1024" height="1024" viewBox="0 0 1024 1024" fill="none" xmlns="http://www.w3.org/2000/svg">
<path d="M153.635 125.74C126.632 125.74 104.613 147.76 104.613 174.762L104.619 856.662C104.619 883.665 126.639 905.684 153.641 905.684L939.149 905.684C966.152 905.684 988.171 883.665 988.172 856.662L988.165 174.762C988.165 147.76 966.145 125.74 939.143 125.74L153.635 125.74Z" fill="#FFD699"/>
<path d="M84.7037 934.949L939.296 934.949C986.068 934.949 1024 896.856 1024 850.245L1024 174.704C1024 128.093 986.068 90 939.296 90L84.7038 89.9999C37.9319 89.9999 8.09008e-05 127.932 7.68119e-05 174.704L1.77542e-05 850.245C1.36653e-05 897.017 37.9318 934.949 84.7037 934.949ZM117.653 174.704C117.653 147.702 139.673 125.682 166.675 125.682L939.135 125.682C966.138 125.682 988.157 147.702 988.157 174.704L988.157 850.245C988.157 877.247 966.138 899.267 939.135 899.267L166.675 899.267C139.673 899.267 117.653 877.247 117.653 850.245L117.653 174.704Z" fill="#313338"/>
<path d="M690.83 609.373C683.447 601.233 670.954 600.476 662.814 607.859L662.246 608.237C642.37 626.22 621.548 641.364 598.454 652.154C575.36 662.754 550.184 668.244 525.008 668.244C512.325 668.433 499.832 666.919 487.338 664.268C475.034 661.618 462.919 657.643 451.372 652.343C439.826 647.043 428.846 640.607 418.246 633.224C407.646 625.842 397.613 617.323 387.77 608.237L387.202 607.669C380.955 601.991 371.68 600.665 363.919 605.019C354.454 610.509 351.047 622.624 356.536 632.088C372.815 660.672 398.37 683.955 428.089 699.477C442.854 707.238 458.755 713.106 475.034 717.271C491.314 721.246 508.161 723.328 525.008 723.328C541.855 723.328 558.702 721.246 574.982 717.271C591.261 713.296 607.162 707.049 621.927 699.477C651.646 684.144 677.579 660.861 693.48 631.899C697.455 625.085 696.698 615.809 690.83 609.373Z" fill="#313338"/>
<path d="M486.365 546.534C498.669 547.67 511.73 545.777 523.656 541.045C535.581 536.502 546.75 529.119 555.836 519.843C565.111 510.568 572.115 499.021 576.847 486.528C579.119 480.281 580.633 473.656 581.58 467.03C581.958 463.812 582.148 460.405 582.337 456.998L582.526 449.615C582.526 430.307 581.769 410.81 580.633 391.502C579.498 372.194 577.794 352.886 575.144 333.389C574.008 324.87 567.194 317.677 558.107 316.352C547.128 314.838 537.285 322.41 535.771 333.389C533.121 352.697 531.417 372.005 530.281 391.502C529.145 410.81 528.388 430.307 528.388 449.615V456.619L528.199 461.162C528.01 464.191 527.442 467.22 526.874 470.059C525.36 475.927 522.709 481.417 518.923 486.528C511.352 496.75 499.805 504.321 485.797 506.972L484.472 507.161C475.954 508.865 469.139 515.868 468.382 524.955C467.435 536.123 475.386 545.587 486.365 546.534Z" fill="#313338"/>
<path d="M359.75 335.835C357.667 330.156 353.124 325.424 347.067 323.152C336.277 319.366 324.352 325.045 320.377 335.835C318.105 342.46 316.78 349.086 315.644 355.711C314.698 362.336 314.13 368.962 313.941 375.587C313.751 382.212 313.751 388.837 314.698 395.463C315.644 402.088 317.159 408.713 320.377 415.339C322.459 419.503 325.866 422.91 330.22 425.182C341.01 430.482 354.26 426.128 359.75 415.339C362.968 408.713 364.482 402.088 365.428 395.463C366.375 388.837 366.375 382.212 366.186 375.587C365.996 368.962 365.428 362.336 364.482 355.711C363.157 349.086 362.021 342.46 359.75 335.835Z" fill="#313338"/>
<path d="M760.629 335.835C758.547 330.156 754.004 325.424 747.946 323.152C737.156 319.366 725.231 325.045 721.256 335.835C718.984 342.46 717.659 349.086 716.523 355.711C715.577 362.336 715.009 368.962 714.82 375.587C714.63 382.212 714.63 388.837 715.577 395.463C716.523 402.088 718.038 408.713 721.256 415.339C723.338 419.503 726.745 422.91 731.099 425.182C741.889 430.482 755.139 426.128 760.629 415.339C763.847 408.713 765.361 402.088 766.308 395.463C767.254 388.837 767.254 382.212 767.065 375.587C766.876 368.962 766.308 362.336 765.361 355.711C764.036 349.086 762.9 342.46 760.629 335.835Z" fill="#313338"/>
</svg>
