<svg width="20" height="20" viewBox="0 0 20 20" fill="none" xmlns="http://www.w3.org/2000/svg">
<path d="M10 0.25C4.62391 0.25 0.25 4.62391 0.25 10C0.25 15.3761 4.62391 19.75 10 19.75C15.3761 19.75 19.75 15.3761 19.75 10C19.75 4.62391 15.3761 0.25 10 0.25ZM10.0938 4.75C10.7613 4.75 11.4138 4.94794 11.9688 5.31879C12.5238 5.68964 12.9564 6.21674 13.2118 6.83344C13.4673 7.45014 13.5341 8.12874 13.4039 8.78343C13.2737 9.43812 12.9522 10.0395 12.4802 10.5115C12.0082 10.9835 11.4069 11.3049 10.7522 11.4352C10.0975 11.5654 9.41889 11.4985 8.80219 11.2431C8.18549 10.9876 7.65839 10.5551 7.28754 10C6.91669 9.44503 6.71875 8.79251 6.71875 8.125C6.71875 7.22989 7.07433 6.37145 7.70726 5.73851C8.3402 5.10558 9.19864 4.75 10.0938 4.75ZM10 18.25C8.86209 18.2505 7.73645 18.0149 6.69419 17.5583C5.65194 17.1016 4.71572 16.4337 3.94469 15.5969C4.35906 13.4509 8.08094 13 10 13C11.9191 13 15.6409 13.4509 16.0553 15.5964C15.2844 16.4334 14.3482 17.1014 13.3059 17.5582C12.2636 18.0149 11.138 18.2505 10 18.25Z" fill="#313338"/>
</svg>
