<svg width="32" height="32" viewBox="0 0 32 32" fill="none" xmlns="http://www.w3.org/2000/svg">
<path d="M11.9883 16.5546C12.9352 18.4906 14.5045 20.0527 16.4448 20.9909C16.5867 21.0581 16.7438 21.0873 16.9004 21.0754C17.057 21.0636 17.2079 21.0111 17.3381 20.9233L20.195 19.0182C20.3214 18.934 20.4668 18.8826 20.618 18.8687C20.7692 18.8548 20.9215 18.8788 21.0611 18.9387L26.4059 21.2293C26.5874 21.3064 26.739 21.4404 26.8378 21.6112C26.9365 21.7819 26.9771 21.9802 26.9534 22.176C26.7845 23.4979 26.1395 24.7129 25.1393 25.5935C24.139 26.4741 22.8521 26.9599 21.5194 26.96C17.4034 26.96 13.456 25.3249 10.5455 22.4145C7.63508 19.504 6 15.5566 6 11.4406C6.00007 10.1079 6.48589 8.82099 7.36649 7.82074C8.24709 6.8205 9.46208 6.17552 10.784 6.00659C10.9798 5.98289 11.178 6.02348 11.3488 6.12224C11.5196 6.22099 11.6536 6.37257 11.7307 6.55413L14.0233 11.9035C14.0826 12.0419 14.1068 12.1928 14.0937 12.3427C14.0806 12.4927 14.0305 12.6371 13.9481 12.7631L12.0497 15.6638C11.9633 15.7943 11.9122 15.945 11.9014 16.1011C11.8907 16.2572 11.9206 16.4135 11.9883 16.5546Z" fill="#FFD699"/>
<path d="M11.9883 16.5546C12.9352 18.4906 14.5045 20.0527 16.4448 20.9909C16.5867 21.0581 16.7438 21.0873 16.9004 21.0754C17.057 21.0636 17.2079 21.0111 17.3381 20.9233L20.195 19.0182C20.3214 18.934 20.4668 18.8826 20.618 18.8687C20.7692 18.8548 20.9215 18.8788 21.0611 18.9387L26.4059 21.2293C26.5874 21.3064 26.739 21.4404 26.8378 21.6112C26.9365 21.7819 26.9771 21.9802 26.9534 22.176C26.7845 23.4979 26.1395 24.7129 25.1393 25.5935C24.139 26.4741 22.8521 26.9599 21.5194 26.96C17.4034 26.96 13.456 25.3249 10.5455 22.4145C7.63508 19.504 6 15.5566 6 11.4406C6.00007 10.1079 6.48589 8.82099 7.36649 7.82074C8.24709 6.8205 9.46208 6.17552 10.784 6.00659C10.9798 5.98289 11.178 6.02348 11.3488 6.12224C11.5196 6.22099 11.6536 6.37257 11.7307 6.55413L14.0233 11.9035C14.0826 12.0419 14.1068 12.1928 14.0937 12.3427C14.0806 12.4927 14.0305 12.6371 13.9481 12.7631L12.0497 15.6638C11.9633 15.7943 11.9122 15.945 11.9014 16.1011C11.8907 16.2572 11.9206 16.4135 11.9883 16.5546V16.5546Z" stroke="#313338" stroke-width="1.5" stroke-linecap="round" stroke-linejoin="round"/>
<path d="M19.627 6.875C21.1746 7.29121 22.5856 8.10677 23.7188 9.23997C24.852 10.3732 25.6676 11.7842 26.0838 13.3318" stroke="#313338" stroke-width="1.5" stroke-linecap="round" stroke-linejoin="round"/>
<path d="M18.6816 10.4043C19.6102 10.654 20.4568 11.1434 21.1368 11.8233C21.8167 12.5032 22.306 13.3498 22.5557 14.2784" stroke="#313338" stroke-width="1.5" stroke-linecap="round" stroke-linejoin="round"/>
</svg>
