<svg width="21" height="20" viewBox="0 0 21 20" fill="none" xmlns="http://www.w3.org/2000/svg">
<path d="M1.8192 1H19.4146C19.5733 1 19.7286 1.0461 19.8616 1.13269C19.9946 1.21929 20.0996 1.34265 20.1638 1.48779C20.228 1.63292 20.2486 1.79358 20.2232 1.95024C20.1979 2.1069 20.1275 2.25281 20.0208 2.37024L13.2875 9.7768C13.1504 9.92759 13.0745 10.1241 13.0745 10.3278V16.1263C13.0745 16.2611 13.0412 16.3939 12.9776 16.5128C12.9139 16.6317 12.8219 16.7331 12.7097 16.8079L9.43292 18.9924C9.30955 19.0747 9.16616 19.1219 9.01806 19.129C8.86996 19.1362 8.72269 19.103 8.59197 19.0331C8.46124 18.9631 8.35195 18.859 8.27575 18.7318C8.19956 18.6046 8.15931 18.4591 8.15931 18.3108V10.3279C8.15931 10.1241 8.08336 9.92759 7.94627 9.7768L1.21304 2.37024C1.10628 2.25281 1.03594 2.1069 1.01055 1.95024C0.985162 1.79358 1.00583 1.63292 1.07003 1.48779C1.13423 1.34265 1.23921 1.21929 1.37221 1.13269C1.50521 1.0461 1.66049 1 1.8192 1Z" fill="#FFD699"/>
<path d="M1.8192 1H19.4146C19.5733 1 19.7286 1.0461 19.8616 1.13269C19.9946 1.21929 20.0996 1.34265 20.1638 1.48779C20.228 1.63292 20.2486 1.79358 20.2232 1.95024C20.1979 2.1069 20.1275 2.25281 20.0208 2.37024L13.2875 9.7768C13.1504 9.92759 13.0745 10.1241 13.0745 10.3278V16.1263C13.0745 16.2611 13.0412 16.3939 12.9776 16.5128C12.9139 16.6317 12.8219 16.7331 12.7097 16.8079L9.43292 18.9924C9.30955 19.0747 9.16616 19.1219 9.01806 19.129C8.86996 19.1362 8.72269 19.103 8.59197 19.0331C8.46124 18.9631 8.35195 18.859 8.27575 18.7318C8.19956 18.6046 8.15931 18.4591 8.15931 18.3108V10.3279C8.15931 10.1241 8.08336 9.92759 7.94627 9.7768L1.21304 2.37024C1.10628 2.25281 1.03594 2.1069 1.01055 1.95024C0.985162 1.79358 1.00583 1.63292 1.07003 1.48779C1.13423 1.34265 1.23921 1.21929 1.37221 1.13269C1.50521 1.0461 1.66049 1 1.8192 1V1Z" stroke="#313338" stroke-width="1.5" stroke-linecap="round" stroke-linejoin="round"/>
</svg>
