<svg width="15" height="15" viewBox="0 0 15 15" fill="none" xmlns="http://www.w3.org/2000/svg">
<path d="M7.0588 1.00971L2.01789 2.01789L1.00971 7.0588C0.993567 7.13951 0.997601 7.22297 1.02145 7.30175C1.04531 7.38053 1.08824 7.4522 1.14645 7.51041L7.67475 14.0387C7.72117 14.0851 7.77629 14.122 7.83696 14.1471C7.89762 14.1722 7.96264 14.1852 8.0283 14.1852C8.09396 14.1852 8.15898 14.1722 8.21964 14.1471C8.2803 14.122 8.33542 14.0851 8.38185 14.0387L14.0387 8.38185C14.0851 8.33542 14.122 8.2803 14.1471 8.21964C14.1722 8.15898 14.1852 8.09396 14.1852 8.0283C14.1852 7.96264 14.1722 7.89762 14.1471 7.83696C14.122 7.7763 14.0851 7.72118 14.0387 7.67475L7.51041 1.14645C7.4522 1.08824 7.38053 1.04531 7.30175 1.02145C7.22296 0.997601 7.13951 0.993567 7.0588 1.00971Z" fill="#FFD699"/>
<path d="M7.0588 1.00971L2.01789 2.01789L1.00971 7.0588C0.993567 7.13951 0.997601 7.22297 1.02145 7.30175C1.04531 7.38053 1.08824 7.4522 1.14645 7.51041L7.67475 14.0387C7.72117 14.0851 7.77629 14.122 7.83696 14.1471C7.89762 14.1722 7.96264 14.1852 8.0283 14.1852C8.09396 14.1852 8.15898 14.1722 8.21964 14.1471C8.2803 14.122 8.33542 14.0851 8.38185 14.0387L14.0387 8.38185C14.0851 8.33542 14.122 8.2803 14.1471 8.21964C14.1722 8.15898 14.1852 8.09396 14.1852 8.0283C14.1852 7.96264 14.1722 7.89762 14.1471 7.83696C14.122 7.77629 14.0851 7.72118 14.0387 7.67475L7.51041 1.14645C7.4522 1.08824 7.38053 1.04531 7.30175 1.02145C7.22296 0.997601 7.13951 0.993567 7.0588 1.00971V1.00971Z" stroke="#313338" stroke-width="1.5" stroke-linecap="round" stroke-linejoin="round"/>
<path d="M4.6416 5.39258C5.05582 5.39258 5.3916 5.05679 5.3916 4.64258C5.3916 4.22836 5.05582 3.89258 4.6416 3.89258C4.22739 3.89258 3.8916 4.22836 3.8916 4.64258C3.8916 5.05679 4.22739 5.39258 4.6416 5.39258Z" fill="#313338"/>
</svg>
