<svg width="24" height="24" viewBox="0 0 24 24" fill="none" xmlns="http://www.w3.org/2000/svg">
<path d="M21.8055 10.0415H21V10H12V14H17.6515C16.827 16.3285 14.6115 18 12 18C8.6865 18 6 15.3135 6 12C6 8.6865 8.6865 6 12 6C13.5295 6 14.921 6.577 15.9805 7.5195L18.809 4.691C17.023 3.0265 14.634 2 12 2C6.4775 2 2 6.4775 2 12C2 17.5225 6.4775 22 12 22C17.5225 22 22 17.5225 22 12C22 11.3295 21.931 10.675 21.8055 10.0415Z" fill="#FFC107"/>
<path d="M3.15298 7.3455L6.43848 9.755C7.32748 7.554 9.48048 6 12 6C13.5295 6 14.921 6.577 15.9805 7.5195L18.809 4.691C17.023 3.0265 14.634 2 12 2C8.15898 2 4.82798 4.1685 3.15298 7.3455Z" fill="#FF3D00"/>
<path d="M12 22.0003C14.583 22.0003 16.93 21.0118 18.7045 19.4043L15.6095 16.7853C14.5718 17.5745 13.3037 18.0014 12 18.0003C9.399 18.0003 7.1905 16.3418 6.3585 14.0273L3.0975 16.5398C4.7525 19.7783 8.1135 22.0003 12 22.0003Z" fill="#4CAF50"/>
<path d="M21.8055 10.0415H21V10H12V14H17.6515C17.2571 15.1082 16.5467 16.0766 15.608 16.7855L15.6095 16.7845L18.7045 19.4035C18.4855 19.6025 22 17 22 12C22 11.3295 21.931 10.675 21.8055 10.0415Z" fill="#313338"/>
</svg>
