<svg width="73" height="46" viewBox="0 0 73 46" fill="none" xmlns="http://www.w3.org/2000/svg">
<path d="M56.6477 0.450848C52.2584 0.318287 52.391 0.318287 52.5235 4.57496C52.6561 8.83163 53.4515 8.30139 56.6477 8.03627C59.8438 7.77115 59.7113 7.50602 59.5787 4.17728C59.4462 0.848531 59.1958 0.524493 56.6477 0.450848Z" fill="white"/>
<path d="M54.4383 8.59575C53.8491 8.59575 53.3778 8.49265 53.0096 8.16861C52.4204 7.6531 52.1848 6.71044 52.1258 4.57474L52.1111 4.20652C52.0522 2.17392 52.008 1.15762 52.6119 0.553735C53.2305 -0.0648819 54.3057 -0.035424 56.6329 0.0382208H56.6476C59.5492 0.126595 59.8291 0.789398 59.9616 4.1476L59.9764 4.5011C60.1089 7.60891 60.0353 8.13915 56.6771 8.419C56.3678 8.44846 56.0879 8.47792 55.8228 8.49265C55.2926 8.55156 54.836 8.59575 54.4383 8.59575ZM54.9538 0.818857C54.0111 0.818857 53.4367 0.892501 53.1863 1.14289C52.8328 1.49639 52.8623 2.51269 52.9212 4.20652L52.9359 4.57474C52.9948 6.38641 53.1716 7.25542 53.5545 7.59418C53.9228 7.91822 54.6592 7.84457 55.7639 7.72674C56.029 7.69728 56.3089 7.66783 56.6182 7.6531C59.3136 7.43216 59.3136 7.43216 59.1957 4.56001L59.181 4.20652C59.0484 0.936688 58.8717 0.936689 56.6476 0.863044H56.6329C55.9701 0.833586 55.4104 0.818857 54.9538 0.818857Z" fill="#313338"/>
<path d="M57.7376 5.73829C56.7508 4.4716 55.7639 3.19018 54.7623 1.92349C54.453 1.5258 53.8933 2.08551 54.2026 2.48319C55.1895 3.74988 56.1763 5.0313 57.1632 6.29799C57.4872 6.7104 58.0469 6.13597 57.7376 5.73829Z" fill="#313338"/>
<path d="M57.2957 2.15912C56.088 3.17542 55.0127 4.32428 54.0554 5.57624C53.7461 5.98865 54.4383 6.38634 54.7476 5.97393C55.6608 4.78088 56.7213 3.69093 57.8702 2.71882C58.2384 2.39478 57.6787 1.83508 57.2957 2.15912Z" fill="#313338"/>
<path d="M44.3784 23.5756C43.9071 23.5756 43.4063 23.502 42.8908 23.3547C42.8761 23.34 42.8613 23.34 42.8466 23.34C42.8024 23.3252 42.7582 23.3105 42.7141 23.2958H42.6846L39.5031 22.1175C39.459 22.1027 39.4148 22.088 39.3706 22.088C39.3411 22.088 39.3117 22.088 39.2822 22.1027C38.1481 22.3531 36.9256 22.5741 35.7325 22.5741C34.3627 22.5741 33.2433 22.2648 32.3007 21.6314C31.0193 20.7477 29.9293 19.0244 30.5921 17.3158C31.1371 15.9018 32.5805 14.9887 34.2891 14.9887C34.5247 14.9887 34.7604 15.0034 34.9813 15.0476C37.0581 15.3863 38.6341 16.5352 39.8272 18.5825C39.9008 18.7004 40.0334 18.774 40.1659 18.774C40.1954 18.774 40.2101 18.774 40.2396 18.774C40.4016 18.7445 40.5342 18.612 40.5636 18.45C41.0202 15.9608 42.8466 14.1049 44.673 12.4111C45.2916 11.8367 45.9692 11.5273 46.6025 11.5273C47.3684 11.5273 48.0165 11.9839 48.4878 12.853C49.725 15.1654 49.5778 18.8476 48.1638 21.2337C47.5452 22.2942 46.3668 23.5756 44.3784 23.5756Z" fill="white"/>
<path d="M46.6467 11.9243C47.4126 11.9243 47.8987 12.5282 48.1785 13.0289C49.3569 15.2236 49.2243 18.7291 47.8545 21.012C47.2654 21.9989 46.1901 23.1772 44.3932 23.1772C43.9661 23.1772 43.5242 23.1183 43.0529 22.9857C43.0529 22.9857 43.0529 22.9857 43.0381 22.9857C42.9645 22.9415 42.8761 22.9268 42.7877 22.9121L40.9319 22.2198L39.6652 21.7485C39.5768 21.719 39.4885 21.7043 39.3853 21.7043C39.3264 21.7043 39.2675 21.7043 39.2086 21.719C38.0892 21.9694 36.9109 22.1904 35.7473 22.1904C34.4511 22.1904 33.4054 21.8958 32.5511 21.3066C31.3875 20.5113 30.4007 18.9794 30.9898 17.4624C31.4759 16.2104 32.772 15.4003 34.3186 15.4003C34.5248 15.4003 34.7457 15.415 34.9519 15.4445C36.9256 15.7538 38.3838 16.829 39.5179 18.788C39.6652 19.0384 39.9303 19.1857 40.2102 19.1857C40.2544 19.1857 40.2985 19.1857 40.3427 19.1709C40.6668 19.112 40.9319 18.8616 40.9908 18.5228C41.4179 16.1515 43.2002 14.3546 44.9824 12.7049C45.5273 12.2041 46.1165 11.9243 46.6467 11.9243ZM46.6467 11.1289C45.9103 11.1289 45.1444 11.4677 44.4521 12.1157C42.5521 13.8685 40.6815 15.7685 40.2102 18.3756C39.0466 16.3871 37.4559 15.0321 35.0698 14.6491C34.8194 14.6049 34.569 14.5902 34.3039 14.5902C32.5806 14.5902 30.872 15.5034 30.2239 17.1678C29.5169 19.0089 30.5627 20.9089 32.0798 21.9547C33.1845 22.7206 34.4511 22.971 35.7326 22.971C36.9403 22.971 38.1923 22.7353 39.3559 22.4849C40.4164 22.8826 41.4916 23.2803 42.5521 23.678C42.5815 23.6927 42.6257 23.6927 42.6552 23.6927C42.6846 23.7074 42.6994 23.7222 42.7141 23.7222C43.2885 23.8842 43.8335 23.9726 44.349 23.9726C49.2979 23.9726 50.9476 16.5786 48.8413 12.6607C48.3111 11.615 47.501 11.1289 46.6467 11.1289Z" fill="#313338"/>
<path d="M42.935 20.8357C23.9347 21.3954 24.5827 20.0403 24.4502 24.0319C24.3176 28.0234 23.9199 28.156 26.8363 28.156C29.7526 28.156 54.4825 28.156 55.6903 27.7583C56.8834 27.3606 56.3531 25.2396 56.2206 23.2365C56.088 21.2334 56.6182 20.438 42.935 20.8357Z" fill="#FFD699"/>
<path d="M53.7608 34.3714C53.6725 45.2561 54.0702 43.4003 43.7451 43.9158C42.5963 43.9747 41.3149 44.0631 39.8862 44.1956C39.4737 44.2251 39.0613 44.2693 38.6195 44.3282C27.396 45.5654 28.2355 43.0615 27.72 36.8606C26.9983 28.1558 26.144 24.3557 27.1309 23.1038C27.6317 22.4704 33.4054 22.0727 39.2675 21.8223C40.4311 21.7781 41.5947 21.734 42.7289 21.7045C47.0739 21.5719 50.874 21.513 51.8166 21.513C54.188 21.4983 53.864 21.9254 53.7608 34.3714Z" fill="#FFD699"/>
<path d="M52.9065 27.7432C44.3343 27.8463 35.762 27.9494 27.175 28.0377C26.6595 28.0377 26.6595 28.8478 27.175 28.8331C35.7473 28.73 44.3195 28.6269 52.9065 28.5385C53.4221 28.5385 53.4221 27.7432 52.9065 27.7432Z" fill="white"/>
<path d="M40.2691 43.7548C40.2691 36.464 40.0629 29.07 39.6504 21.7939V21.7055C39.621 21.1753 39.5915 20.6303 39.5621 20.1001C39.5473 19.9675 39.4737 19.8349 39.3559 19.776C39.4148 19.7466 39.4737 19.7024 39.5179 19.6582C39.5915 19.7171 39.7094 19.7613 39.8125 19.7613L42.2575 19.6582L42.2869 20.704L43.3474 43.5486C42.3017 43.5928 41.3001 43.6664 40.2691 43.7548Z" fill="white"/>
<path d="M41.8304 20.0699L41.8745 21.0715L41.904 21.7343C42.0807 25.4755 42.2428 29.2314 42.4195 32.9725C42.5815 36.3749 42.7288 39.7626 42.8908 43.165C42.1544 43.2091 41.4032 43.2681 40.652 43.327C40.652 36.1687 40.4311 28.9221 40.0334 21.7785V21.6901C40.004 21.1746 39.9745 20.6591 39.945 20.1583C40.3133 20.1436 40.6668 20.1289 41.035 20.1141C41.3001 20.0994 41.5652 20.0847 41.8304 20.0699ZM39.4884 19.2451C39.3559 19.2451 39.2381 19.304 39.1644 19.4071C38.8846 19.5397 38.8846 19.9816 39.135 20.1141C39.1644 20.6738 39.2086 21.2483 39.2381 21.808C39.6652 29.2608 39.8714 36.7137 39.8567 44.1813C41.2854 44.0487 42.5668 43.9603 43.7157 43.9014C43.3769 36.4927 43.0381 29.0841 42.6846 21.6754C42.6552 20.9979 42.6257 20.3203 42.5963 19.6428C42.5815 19.4366 42.4342 19.2451 42.2133 19.2451H42.1986C41.3885 19.2746 40.5784 19.3188 39.7683 19.3482C39.7094 19.2893 39.5915 19.2451 39.4884 19.2451Z" fill="#313338"/>
<path d="M49.4011 35.7843C49.3569 35.4455 49.5336 35.1509 49.7693 34.93C49.8135 33.8548 49.8135 32.8974 49.5778 32.6764C49.3421 32.4408 48.5762 32.4997 47.7514 32.5144C47.1181 32.5144 46.4553 32.5291 45.9692 32.5586C45.9103 32.8826 45.763 33.2067 45.439 33.3098C45.3064 33.354 45.1738 33.3392 45.0707 33.3098C45.0118 33.6191 44.9824 34.0315 44.9676 34.4734C45.4095 34.8858 45.4242 35.5044 44.9971 35.9463C44.9824 35.961 44.9676 35.961 44.9529 35.9757C44.9529 36.0346 44.9529 36.0788 44.9529 36.1377C44.9676 36.6385 44.9676 37.1099 44.9824 37.5075C45.4684 37.7285 45.7777 38.1851 45.8808 38.7153C46.0134 38.73 46.146 38.7448 46.308 38.7448C46.5731 38.3618 46.9708 38.0231 47.4568 38.1851C47.722 38.2734 47.9134 38.4649 48.046 38.7006C48.4289 38.6564 48.7824 38.5975 49.0476 38.5238C48.9886 38.3176 48.9739 38.0967 49.0917 37.8758C49.2096 37.6254 49.4305 37.4928 49.6809 37.4192C49.6809 37.0951 49.6809 36.7269 49.6956 36.3292C49.5484 36.1967 49.4305 36.0199 49.4011 35.7843Z" fill="white"/>
<path d="M51.4042 29.9827C51.2274 29.909 51.0654 29.8059 50.9328 29.6587C50.7708 29.4819 50.6677 29.261 50.6383 29.0548C50.4321 29.04 50.1669 29.04 49.9018 29.04C49.8134 29.3346 49.6514 29.585 49.3568 29.6734C48.915 29.7912 48.6204 29.4377 48.4437 29.0695C48.1638 29.0695 47.884 29.0842 47.6483 29.099C47.4568 29.585 47.1033 29.968 46.632 30.1889C46.6025 30.5129 46.5878 30.8812 46.5878 31.2641C46.8235 31.3967 47.0297 31.5882 47.0886 31.868C47.1917 32.2804 46.9708 32.6634 46.6909 32.9579C46.6614 32.9874 46.632 33.0021 46.6025 33.0169C46.6173 33.7386 46.6467 34.313 46.8235 34.4308C47.3537 34.7843 50.7414 34.9022 51.1391 34.4308C51.2863 34.2541 51.2863 33.3262 51.3305 32.5013C51.1832 32.3688 51.0801 32.192 51.0801 31.9564C51.0801 31.6765 51.2127 31.4556 51.3894 31.2788C51.4189 30.8075 51.4336 30.3362 51.4042 29.9827Z" fill="white"/>
<path d="M36.9845 31.2334C34.5395 31.2923 32.0945 31.3512 29.6348 31.4101C29.1193 31.4249 29.1193 32.2202 29.6348 32.2055C32.0798 32.1466 34.5248 32.0877 36.9845 32.0288C37.5 32.0288 37.5 31.2334 36.9845 31.2334Z" fill="#313338"/>
<path d="M34.186 34.1508C32.7868 34.1656 31.3875 34.1508 30.003 34.1066C29.4875 34.0919 29.4875 34.8873 30.003 34.902C31.4023 34.9462 32.8015 34.9609 34.186 34.9462C34.7015 34.9462 34.7015 34.1508 34.186 34.1508Z" fill="#313338"/>
<path d="M31.7852 41.8833C31.4612 41.8833 31.1813 41.736 31.0193 41.4414C30.6953 40.867 31.034 39.9833 31.4759 39.4088C31.7705 39.0259 32.124 38.746 32.5069 38.5693C32.4185 38.3778 32.3007 38.2747 32.1534 38.2305C31.7263 38.1274 30.9309 38.5987 30.1061 39.8654C29.9883 40.0569 29.7379 40.1011 29.5611 39.9833C29.3697 39.8654 29.3255 39.615 29.4433 39.4383C30.4007 37.9654 31.4612 37.2584 32.3449 37.4646C32.6248 37.5383 33.0666 37.7445 33.317 38.4073C33.4643 38.4073 33.6263 38.422 33.7736 38.4662C34.2449 38.5987 34.5248 38.8197 34.7015 39.0406C35.3054 37.8623 36.1597 36.5367 37.0287 36.463C37.7062 36.4041 38.0303 36.684 38.1776 36.9196C38.6342 37.6414 38.1187 38.8491 37.6031 39.7476C37.176 40.484 37.2791 40.705 37.2791 40.705C37.3086 40.7197 37.4853 40.7786 37.9566 40.6608C38.1628 40.6019 38.3838 40.7344 38.4427 40.9406C38.5016 41.1469 38.3691 41.3678 38.1628 41.4267C37.4264 41.6329 36.9256 41.5445 36.6458 41.191C36.3364 40.7934 36.4248 40.1895 36.9109 39.3499C37.5148 38.2894 37.6473 37.5677 37.5 37.3468C37.4264 37.2437 37.2202 37.2437 37.0876 37.2584C36.5427 37.3026 35.5411 38.967 34.8636 40.5871C34.8046 40.7786 34.731 40.9112 34.7163 40.9406C34.6132 41.1321 34.3922 41.2058 34.2008 41.1174C34.0093 41.029 33.9209 40.8081 33.9945 40.6019C34.024 40.5135 34.0682 40.4251 34.1124 40.3073C34.1713 40.1011 34.2155 39.836 34.1271 39.6298C34.0535 39.453 33.862 39.3205 33.5674 39.2468C33.5379 39.2321 33.5085 39.2321 33.479 39.2321C33.5821 40.6166 32.8751 41.6034 32.124 41.8391C32.0061 41.8686 31.8883 41.8833 31.7852 41.8833ZM32.6689 39.3794C32.4038 39.5414 32.2123 39.7623 32.0945 39.8949C31.6968 40.4104 31.6232 40.9259 31.6968 41.0437C31.7116 41.0585 31.7263 41.1027 31.8588 41.0585C32.2418 40.9406 32.7131 40.3515 32.6689 39.3794Z" fill="white"/>
<path d="M50.2259 32.1768C49.4894 32.2209 48.753 32.2504 48.0165 32.2946C47.501 32.324 47.501 33.1194 48.0165 33.09C48.6204 33.0605 49.2243 33.031 49.8135 33.0016L49.7693 34.7691C49.7545 35.2846 50.5499 35.2846 50.5646 34.7691C50.5794 34.0326 50.5941 33.3109 50.6088 32.5744C50.6383 32.3682 50.4468 32.1768 50.2259 32.1768Z" fill="#FFD699"/>
<path d="M48.7235 33.2966C47.825 33.3997 46.9266 33.5028 46.0281 33.5912H46.0134C45.7924 33.5617 45.542 33.6796 45.5126 33.9594C45.4684 34.6517 45.4242 35.3587 45.38 36.0509C45.3506 36.4486 45.2475 36.9347 45.5273 37.2734C45.7335 37.5238 45.9839 37.5533 46.2932 37.568C47.0297 37.6122 47.7661 37.5385 48.5026 37.5385C48.7235 37.5385 48.8855 37.3618 48.9003 37.1409C48.9739 35.992 49.0475 34.8431 49.1359 33.6796C49.1359 33.4881 48.9297 33.2671 48.7235 33.2966ZM46.5583 36.7726C46.2785 36.7137 46.2049 36.8021 46.1459 36.4486C46.087 36.0951 46.1901 35.6385 46.2196 35.2703C46.2343 34.961 46.2638 34.6664 46.2785 34.3571C46.9413 34.2834 47.6188 34.2098 48.2816 34.1362L48.1049 36.7579C47.8103 36.7579 47.5305 36.7726 47.2359 36.7726C47.0297 36.7726 46.7645 36.8168 46.5583 36.7726Z" fill="#FFD699"/>
<path d="M40.7257 21.0262C40.4311 21.0262 40.1365 21.0114 39.8125 21.0114C39.5916 20.9967 39.3854 20.9967 39.2233 20.9967C38.8993 20.9967 38.7078 20.8642 38.6047 20.7463C38.4722 20.599 38.4132 20.4076 38.4132 20.1719C38.4132 19.3176 39.4443 17.668 40.328 17.668C40.7699 17.668 41.6831 17.668 42.7583 19.2882C43.0971 19.8037 43.0234 20.1719 42.9056 20.3928C42.5963 20.9083 41.8009 21.0262 40.7257 21.0262Z" fill="white"/>
<path d="M40.7257 21.0262C40.4311 21.0262 40.1365 21.0114 39.8125 21.0114C39.5916 20.9967 39.3854 20.9967 39.2233 20.9967C38.8993 20.9967 38.7078 20.8642 38.6047 20.7463C38.4722 20.599 38.4132 20.4076 38.4132 20.1719C38.4132 19.3176 39.4443 17.668 40.328 17.668C40.7699 17.668 41.6831 17.668 42.7583 19.2882C43.0971 19.8037 43.0234 20.1719 42.9056 20.3928C42.5963 20.9083 41.8009 21.0262 40.7257 21.0262ZM39.2086 20.1866H39.2233C39.4001 20.1866 39.6063 20.2013 39.842 20.2013C41.3001 20.2603 42.0955 20.1866 42.1986 19.9804C42.1986 19.9804 42.2133 19.9068 42.0808 19.7006C41.2559 18.4339 40.6668 18.4339 40.328 18.4339C40.2102 18.4486 39.8419 18.7432 39.5326 19.2882C39.2675 19.7448 39.1939 20.0688 39.2086 20.1866Z" fill="#313338"/>
<path d="M46.3374 14.2812C44.5405 15.4006 43.0234 16.8441 41.8304 18.5821C41.3738 19.2449 42.066 19.6426 42.5226 18.9798C43.642 17.3449 45.0707 16.0045 46.7498 14.9588C47.177 14.6937 46.7793 14.0014 46.3374 14.2812Z" fill="#313338"/>
<path d="M39.0466 18.5964C37.8683 18.1987 36.852 17.5065 36.0272 16.5785C35.6884 16.1956 35.1287 16.7553 35.4675 17.1382C36.3806 18.1693 37.5295 18.9204 38.8404 19.3623C39.3264 19.5243 39.5326 18.7584 39.0466 18.5964Z" fill="#313338"/>
<path d="M65.5881 13.9717C62.9369 15.3857 60.271 16.8144 57.6197 18.2284C57.1631 18.464 57.5756 19.1563 58.0174 18.9206C60.6686 17.5066 63.3346 16.0779 65.9858 14.6639C66.4424 14.4136 66.0447 13.7213 65.5881 13.9717Z" fill="#313338"/>
<path d="M62.3625 23.1035L59.181 23.5307C58.6802 23.6043 58.8864 24.3702 59.3872 24.2966L62.5687 23.8694C63.0842 23.8105 62.8633 23.0299 62.3625 23.1035Z" fill="#313338"/>
<path d="M21.6221 22.4554C18.5585 20.3197 15.3623 18.4491 12.0041 16.8142C11.5475 16.5932 11.1351 17.2708 11.6064 17.5064C14.9646 19.1413 18.1608 21.0119 21.2245 23.1476C21.6369 23.4422 22.0346 22.7499 21.6221 22.4554Z" fill="#313338"/>
<path d="M20.0609 28.0965C18.8236 28.067 17.5717 28.0228 16.3344 27.9934C15.8189 27.9786 15.8189 28.774 16.3344 28.7887C17.5717 28.8182 18.8236 28.8624 20.0609 28.8918C20.5764 28.9066 20.5764 28.1112 20.0609 28.0965Z" fill="#313338"/>
<path d="M54.129 18.95C53.9522 18.95 53.7902 18.8322 53.746 18.6554C52.6266 14.5461 54.7623 12.8964 55.4399 12.484C55.8228 12.2631 56.2205 12.1011 56.6329 12.0274C56.6918 11.8507 56.7655 11.6739 56.8391 11.4972C57.3399 10.3483 58.8864 7.53508 62.6129 6.34203C67.6649 4.72184 71.303 7.04902 72.5255 8.50719C72.6727 8.66921 72.6433 8.93433 72.4813 9.06689C72.3192 9.21418 72.0541 9.18472 71.9216 9.0227C70.8169 7.71182 67.5029 5.60558 62.8632 7.10794C59.4609 8.21261 58.0322 10.7754 57.5756 11.8212C57.5461 11.8801 57.5314 11.939 57.5019 11.998C58.1353 12.0569 58.7244 12.2925 59.181 12.7197C60.0206 13.515 59.9322 14.2368 59.7996 14.5903C59.5787 15.2089 58.9012 15.6507 58.1794 15.6802C57.443 15.7097 56.8244 15.3267 56.5003 14.6492C56.3089 14.2368 56.2794 13.6181 56.412 12.9111C56.2205 12.9701 56.0437 13.0584 55.867 13.1615C54.3794 14.06 53.8786 16.0337 54.5267 18.4345C54.5856 18.6407 54.453 18.8617 54.2468 18.9206C54.2026 18.95 54.1732 18.95 54.129 18.95ZM57.2515 12.7786C57.06 13.5003 57.0748 14.06 57.2073 14.3251C57.4577 14.8406 57.8996 14.9143 58.1353 14.8996C58.5477 14.8848 58.9306 14.6344 59.0485 14.3251C59.1957 13.9422 58.9012 13.5592 58.636 13.3088C58.2678 12.9553 57.7818 12.7786 57.2515 12.7786Z" fill="#FFD699"/>
<path d="M3.57914 32.6773C3.56441 32.6773 3.54968 32.6773 3.53495 32.6773C2.31245 32.53 0 31.5284 0 28.8183C0 26.8151 1.36979 25.0182 3.41712 24.3407C5.47918 23.6631 7.54123 24.3259 8.83738 26.0492C9.07305 26.3585 9.23506 26.6531 9.3529 26.9182C10.87 27.0803 12.8142 28.0082 13.7569 29.3927C13.8747 29.5695 13.8305 29.8199 13.6538 29.9524C13.477 30.0702 13.2266 30.0261 13.0941 29.8493C12.3576 28.7741 10.8258 27.9935 9.57383 27.7578C9.63275 28.3617 9.41181 28.7446 9.26452 28.9361C8.88157 29.4222 8.20404 29.6136 7.67379 29.378C7.20247 29.1718 6.9668 28.6857 7.05518 28.0966C7.14355 27.5221 7.55596 27.1097 8.21876 26.9624C8.29241 26.9477 8.36605 26.933 8.45443 26.9182C8.38078 26.7857 8.29241 26.6679 8.18931 26.5353C6.90789 24.7973 5.00785 24.6647 3.66751 25.1066C2.2388 25.5779 0.795364 26.9035 0.795364 28.8183C0.795364 31.499 3.52022 31.8672 3.63806 31.8819C3.85899 31.9114 4.00628 32.1028 3.99155 32.3238C3.94737 32.53 3.77062 32.6773 3.57914 32.6773ZM8.74901 27.6842C8.61645 27.6842 8.48389 27.6989 8.38078 27.7283C7.88 27.8462 7.83581 28.1113 7.82108 28.1997C7.79163 28.4206 7.83581 28.5679 7.96837 28.6268C8.14512 28.7005 8.4397 28.6415 8.61645 28.4206C8.77847 28.2586 8.82265 27.9935 8.74901 27.6842Z" fill="#FFD699"/>
<path d="M66.899 20.9682C66.192 22.2938 65.1168 23.9877 64.9253 24.9745C64.9253 24.9745 67.6943 25.0923 68.5928 25.7109C68.5928 25.7109 70.0804 22.6326 71.0231 21.6458C71.0231 21.6458 68.2835 20.6589 66.899 20.9682Z" fill="white"/>
<path d="M68.5928 26.094C68.5191 26.094 68.4308 26.0646 68.3719 26.0204C67.7091 25.5638 65.647 25.387 64.9105 25.3576C64.7927 25.3576 64.6896 25.2987 64.616 25.2103C64.5423 25.1219 64.5129 25.0041 64.5423 24.8863C64.7043 24.0909 65.3524 22.9273 65.971 21.8226C66.1772 21.4691 66.3687 21.1156 66.5455 20.7769C66.6044 20.6738 66.6927 20.6001 66.8106 20.5707C68.2835 20.2319 71.0378 21.2187 71.1556 21.2629C71.2882 21.3071 71.3766 21.4102 71.406 21.5428C71.4355 21.6753 71.406 21.8079 71.3029 21.911C70.4192 22.8389 68.961 25.8436 68.9463 25.8731C68.9021 25.9762 68.799 26.0498 68.6959 26.0793C68.6664 26.094 68.637 26.094 68.5928 26.094ZM65.4555 24.6064C66.2067 24.6653 67.5618 24.8126 68.416 25.1661C68.7843 24.4444 69.6238 22.8242 70.3455 21.8374C69.4618 21.5722 68.0331 21.2187 67.1641 21.3218C67.0168 21.6017 66.84 21.911 66.678 22.2056C66.2067 23.0304 65.7059 23.9289 65.4555 24.6064Z" fill="#313338"/>
<path d="M68.4603 27.7139C69.344 26.8301 70.9937 26.2852 70.9937 26.2852C70.9937 26.2852 72.0983 28.7154 72.3193 29.1573C72.3193 29.1573 69.5649 29.5992 69.0052 29.8201C69.0052 29.8201 68.3572 28.4945 68.4603 27.7139Z" fill="white"/>
<path d="M69.0052 30.2184C68.8579 30.2184 68.7106 30.1301 68.6517 29.9975C68.5781 29.8502 67.9447 28.5393 68.0626 27.6703C68.0773 27.582 68.1215 27.5083 68.1804 27.4494C69.1231 26.5067 70.8022 25.947 70.8758 25.9176C71.0673 25.8587 71.2882 25.947 71.3619 26.1238C71.3766 26.1533 72.4665 28.5541 72.6727 28.9812C72.7317 29.099 72.7317 29.2316 72.6727 29.3347C72.6138 29.4525 72.5107 29.5262 72.3782 29.5409C71.3324 29.7029 69.5207 30.027 69.1525 30.1743C69.1083 30.2037 69.0641 30.2184 69.0052 30.2184ZM68.8432 27.906C68.8432 28.3184 69.0641 28.937 69.2262 29.3347C69.8742 29.1727 71.0378 28.9665 71.7301 28.8487C71.4502 28.2448 71.0231 27.3021 70.7874 26.7866C70.3161 26.9781 69.4324 27.3758 68.8432 27.906Z" fill="#313338"/>
<path d="M64.071 42.0449C65.5734 42.2217 66.6486 42.8403 66.6486 42.8403C66.6486 42.8403 64.233 45.4473 63.8059 45.9481C63.8059 45.9481 62.333 44.2837 61.788 43.945C61.788 43.945 63.0694 42.4721 64.071 42.0449Z" fill="#FFD699"/>
<path d="M23.6547 9.80372C22.7268 10.5991 22.1966 12.7348 22.1966 12.7348C22.1966 12.7348 24.8625 13.1325 25.2602 13.3976C25.2602 13.3976 26.7184 10.4665 27.116 9.93628C27.116 9.93628 24.3175 9.67116 23.6547 9.80372Z" fill="#FFD699"/>
<path d="M16.3344 6.20996C14.4786 6.7402 12.7405 7.80069 12.7405 7.80069C12.7405 7.80069 12.0777 10.1868 11.8126 11.262C11.8126 11.262 15.0088 11.3946 15.8042 11.3946C15.8042 11.3946 16.0693 7.28518 16.3344 6.20996Z" fill="white"/>
<path d="M15.8042 11.7919C15.0088 11.7919 11.9305 11.6593 11.7979 11.6593C11.6801 11.6593 11.5622 11.6004 11.4886 11.4973C11.4149 11.3942 11.3855 11.2764 11.4149 11.1585C11.6801 10.098 12.3429 7.71194 12.3429 7.69721C12.3723 7.59411 12.4312 7.52046 12.5196 7.46155C12.5933 7.41736 14.3166 6.35688 16.2019 5.82663C16.3344 5.78245 16.4817 5.82663 16.5848 5.92973C16.6879 6.03284 16.7321 6.18013 16.6879 6.31269C16.4375 7.32899 16.1724 11.3795 16.1724 11.4236C16.1871 11.6298 16.0251 11.7919 15.8042 11.7919ZM12.3281 10.8934C13.1088 10.9229 14.6259 10.9818 15.436 10.9965C15.4949 10.1422 15.6569 8.03598 15.8336 6.79874C14.5817 7.24061 13.4623 7.85923 13.094 8.08016C12.9615 8.53676 12.5785 9.93601 12.3281 10.8934Z" fill="#313338"/>
<path d="M23.257 13.1471C23.964 12.8231 25.378 12.3223 25.3927 12.396C25.3927 12.396 27.1013 13.7805 27.6463 14.3255C27.6463 14.3255 25.7168 15.0766 25.1865 15.4007C25.1865 15.3859 23.257 13.4565 23.257 13.1471Z" fill="white"/>
<path d="M25.1865 15.7835C25.0834 15.7835 24.9803 15.7394 24.9067 15.6657C22.8593 13.6184 22.8593 13.2943 22.8593 13.1323C22.8593 12.9703 22.9477 12.8378 23.095 12.7641C23.1097 12.7494 25.1571 11.8362 25.5547 12.0129C25.5989 12.0277 25.6284 12.0571 25.6578 12.0866C25.8051 12.2044 27.3959 13.5006 27.9261 14.0308C28.0145 14.1192 28.0587 14.2665 28.0292 14.399C27.9998 14.5316 27.9114 14.6347 27.7788 14.6936C27.2486 14.8998 25.7904 15.489 25.378 15.7394C25.3191 15.7688 25.2454 15.7835 25.1865 15.7835ZM23.8315 13.3385C24.126 13.7068 24.7005 14.3401 25.2602 14.8998C25.702 14.6789 26.409 14.3843 26.9098 14.1781C26.3648 13.692 25.5842 13.0587 25.2896 12.8083C24.995 12.8967 24.3764 13.1176 23.8315 13.3385ZM25.0245 12.5284C25.0392 12.5874 25.0687 12.6315 25.1129 12.661C25.0687 12.6315 25.0392 12.5874 25.0245 12.5284Z" fill="#313338"/>
<path d="M13.6096 34.3271C12.6817 35.1225 11.8863 36.4481 11.8863 36.4481C11.8863 36.4481 12.6817 39.6443 12.9468 40.1746C12.9468 40.1746 14.8026 38.3187 15.6127 37.921C15.6127 37.921 13.6096 34.7248 13.6096 34.3271Z" fill="#FFD699"/>
<path d="M22.7857 40.9854C23.5664 41.0001 25.054 41.1621 25.0393 41.2357C25.0393 41.2357 25.9819 43.2242 26.2323 43.9459C26.2323 43.9459 24.1703 43.7839 23.5516 43.8428C23.5664 43.8428 22.6532 41.2799 22.7857 40.9854Z" fill="#FFD699"/>
</svg>
