<svg width="32" height="32" viewBox="0 0 32 32" fill="none" xmlns="http://www.w3.org/2000/svg">
<path d="M15.986 28.8515C15.8135 28.8515 15.644 28.8069 15.4939 28.7221L4.9939 22.7873C4.83974 22.7001 4.71148 22.5736 4.62223 22.4207C4.53299 22.2677 4.48596 22.0938 4.48596 21.9167V10.0836C4.48593 9.90555 4.53349 9.73069 4.62371 9.57715L4.62379 9.57719L16.1187 16.0002L15.986 28.8515L15.986 28.8515Z" fill="#FFD699"/>
<path d="M16.1187 16L15.986 28.8513" stroke="#313338" stroke-width="1.5" stroke-linecap="round" stroke-linejoin="round"/>
<path d="M27.486 21.9163V10.0832C27.486 9.90613 27.4389 9.73222 27.3497 9.57926C27.2604 9.42631 27.1322 9.29979 26.978 9.21266L16.478 3.27787C16.3279 3.19303 16.1584 3.14844 15.986 3.14844C15.8135 3.14844 15.644 3.19303 15.4939 3.27787L4.9939 9.21266C4.83974 9.29979 4.71148 9.42631 4.62223 9.57926C4.53299 9.73222 4.48596 9.90613 4.48596 10.0832V21.9163C4.48596 22.0934 4.53299 22.2673 4.62223 22.4202C4.71148 22.5732 4.83974 22.6997 4.9939 22.7869L15.4939 28.7216C15.644 28.8065 15.8135 28.8511 15.986 28.8511C16.1584 28.8511 16.3279 28.8065 16.478 28.7216L26.978 22.7869C27.1322 22.6997 27.2604 22.5732 27.3497 22.4202C27.4389 22.2673 27.486 22.0934 27.486 21.9163V21.9163Z" stroke="#313338" stroke-width="1.5" stroke-linecap="round" stroke-linejoin="round"/>
<path d="M27.349 9.57852L16.1187 16.0001L4.62378 9.57715" stroke="#313338" stroke-width="1.5" stroke-linecap="round" stroke-linejoin="round"/>
<path d="M22.1278 18.5642V12.5642L10.5304 6.08398" stroke="#313338" stroke-width="1.5" stroke-linecap="round" stroke-linejoin="round"/>
</svg>
