<svg width="22" height="22" viewBox="0 0 22 22" fill="none" xmlns="http://www.w3.org/2000/svg">
<path d="M10.9999 7.25C10.2582 7.25 9.53318 7.46993 8.9165 7.88199C8.29981 8.29404 7.81916 8.87971 7.53534 9.56494C7.25151 10.2502 7.17724 11.0042 7.32194 11.7316C7.46663 12.459 7.82379 13.1272 8.34823 13.6517C8.87268 14.1761 9.54087 14.5333 10.2683 14.6779C10.9957 14.8226 11.7497 14.7484 12.4349 14.4645C13.1202 14.1807 13.7058 13.7001 14.1179 13.0834C14.53 12.4667 14.7499 11.7417 14.7499 11C14.7469 10.0064 14.3509 9.05425 13.6483 8.35163C12.9456 7.64901 11.9935 7.25297 10.9999 7.25ZM19.0961 11C19.0942 11.3504 19.0685 11.7003 19.0193 12.0472L21.3016 13.8341C21.401 13.9161 21.468 14.0309 21.4906 14.1578C21.5132 14.2847 21.4899 14.4155 21.4249 14.5269L19.2658 18.2544C19.2002 18.3647 19.0977 18.4484 18.9765 18.4907C18.8553 18.5329 18.723 18.5311 18.603 18.4855L15.9194 17.4073C15.3606 17.8377 14.7491 18.1948 14.0997 18.47L13.6985 21.3191C13.676 21.4467 13.6099 21.5625 13.5115 21.6468C13.4131 21.7311 13.2885 21.7786 13.1589 21.7812H8.84082C8.71363 21.7788 8.59103 21.7333 8.49304 21.6521C8.39504 21.571 8.32745 21.459 8.30129 21.3345L7.90004 18.4855C7.24889 18.2134 6.63693 17.8557 6.08035 17.4219L3.39676 18.5C3.2768 18.5457 3.14458 18.5476 3.02336 18.5054C2.90213 18.4632 2.79965 18.3796 2.73395 18.2694L0.574884 14.5423C0.509895 14.431 0.486613 14.3002 0.509197 14.1733C0.531781 14.0464 0.59876 13.9316 0.698165 13.8495L2.98051 12.0627C2.93183 11.7105 2.90615 11.3555 2.90363 11C2.90558 10.6496 2.93127 10.2997 2.98051 9.95281L0.698165 8.16594C0.59876 8.08386 0.531781 7.96911 0.509197 7.84219C0.486613 7.71527 0.509895 7.58446 0.574884 7.47312L2.73395 3.74563C2.79958 3.63528 2.90202 3.55161 3.02326 3.50934C3.14449 3.46707 3.27675 3.46891 3.39676 3.51453L6.08035 4.59266C6.63916 4.16235 7.25068 3.80524 7.90004 3.53L8.30129 0.680938C8.32375 0.55332 8.38983 0.437462 8.48823 0.353161C8.58664 0.268861 8.71127 0.221351 8.84082 0.21875H13.1589C13.2861 0.221226 13.4087 0.266746 13.5067 0.34788C13.6047 0.429013 13.6723 0.540968 13.6985 0.665469L14.0997 3.51453C14.7517 3.78639 15.3645 4.14408 15.9218 4.57812L18.603 3.5C18.723 3.45434 18.8552 3.45243 18.9764 3.49461C19.0976 3.53679 19.2001 3.62036 19.2658 3.73062L21.4249 7.45813C21.4899 7.56946 21.5132 7.70027 21.4906 7.82719C21.468 7.95411 21.401 8.06886 21.3016 8.15094L19.0193 9.93781C19.0679 10.2898 19.0936 10.6446 19.0961 11Z" fill="#313338"/>
</svg>
