<svg width="14" height="14" viewBox="0 0 14 14" fill="none" xmlns="http://www.w3.org/2000/svg">
<path d="M7 0.75C3.55375 0.75 0.75 3.55375 0.75 7C0.75 10.4462 3.55375 13.25 7 13.25C10.4462 13.25 13.25 10.4462 13.25 7C13.25 3.55375 10.4462 0.75 7 0.75ZM7 3.3125C7.1607 3.3125 7.31779 3.36015 7.4514 3.44943C7.58502 3.53871 7.68916 3.6656 7.75065 3.81407C7.81215 3.96253 7.82824 4.1259 7.79689 4.28351C7.76554 4.44112 7.68815 4.58589 7.57452 4.69952C7.46089 4.81315 7.31612 4.89054 7.15851 4.92189C7.0009 4.95324 6.83753 4.93715 6.68907 4.87565C6.5406 4.81416 6.41371 4.71002 6.32443 4.5764C6.23515 4.44279 6.1875 4.2857 6.1875 4.125C6.1875 3.90951 6.2731 3.70285 6.42548 3.55048C6.57785 3.3981 6.78451 3.3125 7 3.3125ZM8.5 10.375H5.75C5.61739 10.375 5.49021 10.3223 5.39645 10.2286C5.30268 10.1348 5.25 10.0076 5.25 9.875C5.25 9.74239 5.30268 9.61521 5.39645 9.52145C5.49021 9.42768 5.61739 9.375 5.75 9.375H6.625V6.625H6.125C5.99239 6.625 5.86521 6.57232 5.77145 6.47855C5.67768 6.38479 5.625 6.25761 5.625 6.125C5.625 5.99239 5.67768 5.86521 5.77145 5.77145C5.86521 5.67768 5.99239 5.625 6.125 5.625H7.125C7.25761 5.625 7.38479 5.67768 7.47855 5.77145C7.57232 5.86521 7.625 5.99239 7.625 6.125V9.375H8.5C8.63261 9.375 8.75979 9.42768 8.85355 9.52145C8.94732 9.61521 9 9.74239 9 9.875C9 10.0076 8.94732 10.1348 8.85355 10.2286C8.75979 10.3223 8.63261 10.375 8.5 10.375Z" fill="#2196F3"/>
</svg>
