<svg width="152" height="32" viewBox="0 0 152 32" fill="none" xmlns="http://www.w3.org/2000/svg">
<path d="M55.5389 6.96637L53.3581 15.0837L50.9956 6.96637H46.7552L44.3927 15.0837L42.2119 6.96637H39.7888H37.3657L39.7888 14.5385L42.2119 22.1107H46.4523L48.8754 14.0236L51.2985 22.1107H55.5389L60.385 6.96637H55.5389Z" fill="#313338"/>
<path d="M72.5156 6.96637V8.38994C71.5161 7.23897 70.032 6.54233 68.0026 6.54233C64.0348 6.54233 60.7637 10.0255 60.7637 14.5385C60.7637 19.0515 64.0348 22.5347 68.0026 22.5347C70.032 22.5347 71.5161 21.8381 72.5156 20.6871V22.1107H77.0589V6.96637H72.5156ZM68.9113 18.2337C66.8214 18.2337 65.3069 16.8102 65.3069 14.5385C65.3069 12.2669 66.8214 10.8433 68.9113 10.8433C71.0012 10.8433 72.5156 12.2669 72.5156 14.5385C72.5156 16.8102 71.0012 18.2337 68.9113 18.2337Z" fill="#313338"/>
<path d="M80.3163 22.1107H84.8596V0H80.3163V22.1107Z" fill="#313338"/>
<path d="M99.1033 0.908657V8.38994C98.1038 7.23897 96.6197 6.54233 94.5903 6.54233C90.6225 6.54233 87.3513 10.0255 87.3513 14.5385C87.3513 19.0515 90.6225 22.5347 94.5903 22.5347C96.6197 22.5347 98.1038 21.8381 99.1033 20.6871V22.1107H103.647V0.908657H99.1033ZM95.499 18.2337C93.4091 18.2337 91.8946 16.8102 91.8946 14.5385C91.8946 12.2669 93.4091 10.8433 95.499 10.8433C97.5889 10.8433 99.1033 12.2669 99.1033 14.5385C99.1033 16.8102 97.5889 18.2337 95.499 18.2337Z" fill="#313338"/>
<path d="M114.173 22.5347C118.626 22.5347 122.2 19.0515 122.2 14.5385C122.2 10.0255 118.626 6.54233 114.173 6.54233C109.721 6.54233 106.147 10.0255 106.147 14.5385C106.147 19.0515 109.721 22.5347 114.173 22.5347ZM114.173 18.1126C112.205 18.1126 110.69 16.689 110.69 14.5385C110.69 12.388 112.205 10.9645 114.173 10.9645C116.142 10.9645 117.656 12.388 117.656 14.5385C117.656 16.689 116.142 18.1126 114.173 18.1126Z" fill="#313338"/>
<path d="M4.40565 2.53764C3.63129 2.53764 2.99982 3.16911 2.99982 3.94346L3 23.4985C3 24.2729 3.63147 24.9044 4.40583 24.9044L26.9321 24.9044C27.7065 24.9044 28.3379 24.2729 28.3379 23.4985L28.3377 3.94346C28.3377 3.16911 27.7063 2.53764 26.9319 2.53764L4.40565 2.53764Z" fill="#FFD699"/>
<path d="M2.42923 25.7441L26.9366 25.7441C28.2779 25.7441 29.3657 24.6517 29.3657 23.3151L29.3657 3.94236C29.3657 2.60567 28.2779 1.51328 26.9366 1.51328L2.42923 1.51327C1.08793 1.51327 0.000152704 2.60106 0.000152587 3.94236L0.000150893 23.3151C0.000150776 24.6564 1.08793 25.7441 2.42923 25.7441ZM3.37412 3.94236C3.37412 3.168 4.00559 2.53653 4.77995 2.53653L26.932 2.53654C27.7064 2.53654 28.3379 3.168 28.3379 3.94236L28.3379 23.3151C28.3379 24.0894 27.7064 24.7209 26.932 24.7209L4.77995 24.7209C4.00559 24.7209 3.37412 24.0894 3.37412 23.3151L3.37412 3.94236Z" fill="#313338"/>
<path d="M19.811 16.4079C19.5993 16.1745 19.241 16.1528 19.0076 16.3645L18.9913 16.3754C18.4213 16.8911 17.8242 17.3253 17.1619 17.6348C16.4996 17.9388 15.7777 18.0962 15.0557 18.0962C14.692 18.1016 14.3337 18.0582 13.9754 17.9822C13.6226 17.9062 13.2752 17.7922 12.944 17.6402C12.6129 17.4882 12.298 17.3036 11.994 17.0919C11.69 16.8802 11.4023 16.6359 11.1201 16.3754L11.1038 16.3591C10.9246 16.1962 10.6586 16.1582 10.4361 16.2831C10.1647 16.4405 10.0669 16.7879 10.2244 17.0593C10.6912 17.879 11.424 18.5467 12.2763 18.9919C12.6997 19.2144 13.1557 19.3827 13.6226 19.5021C14.0894 19.6161 14.5726 19.6759 15.0557 19.6759C15.5388 19.6759 16.022 19.6161 16.4888 19.5021C16.9556 19.3881 17.4116 19.209 17.835 18.9919C18.6873 18.5522 19.431 17.8845 19.887 17.0539C20.001 16.8585 19.9793 16.5925 19.811 16.4079Z" fill="#313338"/>
<path d="M13.9476 14.6065C14.3004 14.6391 14.675 14.5848 15.017 14.4491C15.359 14.3188 15.6793 14.1071 15.9398 13.8411C16.2058 13.5751 16.4067 13.244 16.5424 12.8857C16.6075 12.7066 16.6509 12.5166 16.6781 12.3266C16.6889 12.2343 16.6944 12.1366 16.6998 12.0389L16.7052 11.8272C16.7052 11.2735 16.6835 10.7143 16.6509 10.1606C16.6184 9.60692 16.5695 9.05322 16.4935 8.49409C16.461 8.24981 16.2655 8.04353 16.005 8.00553C15.6901 7.9621 15.4078 8.17924 15.3644 8.49409C15.2884 9.04779 15.2396 9.6015 15.207 10.1606C15.1744 10.7143 15.1527 11.2735 15.1527 11.8272V12.028L15.1473 12.1583C15.1418 12.2451 15.1256 12.332 15.1093 12.4134C15.0658 12.5817 14.9898 12.7391 14.8813 12.8857C14.6641 13.1788 14.333 13.396 13.9313 13.472L13.8933 13.4774C13.649 13.5263 13.4536 13.7271 13.4319 13.9877C13.4047 14.308 13.6327 14.5794 13.9476 14.6065Z" fill="#313338"/>
<path d="M10.3165 8.56337C10.2568 8.40052 10.1265 8.2648 9.95282 8.19966C9.64339 8.09109 9.3014 8.25395 9.1874 8.56337C9.12226 8.75337 9.08426 8.94336 9.05169 9.13336C9.02455 9.32335 9.00826 9.51335 9.00284 9.70335C8.99741 9.89334 8.99741 10.0833 9.02455 10.2733C9.05169 10.4633 9.09512 10.6533 9.1874 10.8433C9.24712 10.9627 9.34483 11.0605 9.46968 11.1256C9.7791 11.2776 10.1591 11.1527 10.3165 10.8433C10.4088 10.6533 10.4522 10.4633 10.4794 10.2733C10.5065 10.0833 10.5065 9.89334 10.5011 9.70335C10.4957 9.51335 10.4794 9.32335 10.4522 9.13336C10.4142 8.94336 10.3817 8.75337 10.3165 8.56337Z" fill="#313338"/>
<path d="M21.8126 8.56337C21.7529 8.40052 21.6226 8.2648 21.4489 8.19966C21.1395 8.09109 20.7975 8.25395 20.6835 8.56337C20.6184 8.75337 20.5804 8.94336 20.5478 9.13336C20.5206 9.32335 20.5044 9.51335 20.4989 9.70335C20.4935 9.89334 20.4935 10.0833 20.5206 10.2733C20.5478 10.4633 20.5912 10.6533 20.6835 10.8433C20.7432 10.9627 20.8409 11.0605 20.9658 11.1256C21.2752 11.2776 21.6552 11.1527 21.8126 10.8433C21.9049 10.6533 21.9483 10.4633 21.9755 10.2733C22.0026 10.0833 22.0026 9.89334 21.9972 9.70335C21.9918 9.51335 21.9755 9.32335 21.9483 9.13336C21.9103 8.94336 21.8778 8.75337 21.8126 8.56337Z" fill="#313338"/>
<path d="M98.6253 25.4017C98.0857 24.9304 97.1726 24.8865 96.5776 25.314L96.5361 25.3359C95.0835 26.3772 93.5616 27.254 91.8737 27.8788C90.1858 28.4926 88.3457 28.8105 86.5056 28.8105C85.5787 28.8214 84.6655 28.7337 83.7524 28.5803C82.8531 28.4268 81.9677 28.1967 81.1237 27.8898C80.2798 27.5829 79.4773 27.2102 78.7025 26.7827C77.9278 26.3553 77.1945 25.862 76.4751 25.3359L76.4336 25.303C75.977 24.9742 75.2991 24.8975 74.7318 25.1496C74.0401 25.4675 73.791 26.1689 74.1923 26.717C75.3821 28.372 77.2498 29.7202 79.422 30.619C80.5011 31.0683 81.6633 31.4081 82.8531 31.6493C84.0429 31.8794 85.2743 32 86.5056 32C87.7369 32 88.9683 31.8794 90.1581 31.6493C91.3479 31.4191 92.5101 31.0574 93.5892 30.619C95.7614 29.7311 97.6568 28.383 98.819 26.706C99.1095 26.3114 99.0542 25.7744 98.6253 25.4017Z" fill="#313338"/>
<path d="M125.84 22.1101C125.628 22.3216 125.375 22.4273 125.078 22.4273C124.782 22.4273 124.529 22.3216 124.317 22.1101C124.106 21.8986 124 21.6449 124 21.3488C124 21.0528 124.106 20.799 124.317 20.5875C124.529 20.3761 124.782 20.2703 125.078 20.2703C125.375 20.2703 125.628 20.3761 125.84 20.5875C126.051 20.799 126.157 21.0528 126.157 21.3488C126.157 21.6449 126.051 21.8986 125.84 22.1101Z" fill="#313338"/>
<path d="M129.717 22.44C128.761 22.44 127.961 22.1186 127.318 21.4757C126.684 20.8328 126.367 20.0377 126.367 19.0903C126.367 18.1429 126.684 17.3478 127.318 16.7049C127.961 16.0621 128.761 15.7406 129.717 15.7406C130.334 15.7406 130.897 15.8887 131.404 16.1847C131.912 16.4808 132.296 16.8784 132.559 17.3774L131.15 18.2021C131.023 17.9399 130.829 17.7327 130.567 17.5804C130.313 17.4282 130.025 17.352 129.704 17.352C129.213 17.352 128.807 17.517 128.486 17.8469C128.164 18.1683 128.004 18.5828 128.004 19.0903C128.004 19.5894 128.164 20.0039 128.486 20.3338C128.807 20.6552 129.213 20.8159 129.704 20.8159C130.034 20.8159 130.326 20.744 130.579 20.6002C130.842 20.448 131.036 20.2407 131.163 19.9785L132.584 20.7905C132.305 21.2896 131.912 21.6914 131.404 21.9959C130.897 22.292 130.334 22.44 129.717 22.44Z" fill="#313338"/>
<path d="M133.133 22.2624V13H134.769V22.2624H133.133Z" fill="#313338"/>
<path d="M136.762 15.157C136.492 15.157 136.255 15.0597 136.052 14.8652C135.857 14.6622 135.76 14.4253 135.76 14.1546C135.76 13.8839 135.857 13.6471 136.052 13.4441C136.255 13.2411 136.492 13.1396 136.762 13.1396C137.041 13.1396 137.278 13.2411 137.473 13.4441C137.676 13.6471 137.777 13.8839 137.777 14.1546C137.777 14.4253 137.676 14.6622 137.473 14.8652C137.278 15.0597 137.041 15.157 136.762 15.157ZM135.95 22.2624V15.9183H137.587V22.2624H135.95Z" fill="#313338"/>
<path d="M141.788 22.44C140.832 22.44 140.032 22.1186 139.39 21.4757C138.755 20.8328 138.438 20.0377 138.438 19.0903C138.438 18.1429 138.755 17.3478 139.39 16.7049C140.032 16.0621 140.832 15.7406 141.788 15.7406C142.405 15.7406 142.968 15.8887 143.475 16.1847C143.983 16.4808 144.368 16.8784 144.63 17.3774L143.221 18.2021C143.095 17.9399 142.9 17.7327 142.638 17.5804C142.384 17.4282 142.096 17.352 141.775 17.352C141.284 17.352 140.878 17.517 140.557 17.8469C140.235 18.1683 140.075 18.5828 140.075 19.0903C140.075 19.5894 140.235 20.0039 140.557 20.3338C140.878 20.6552 141.284 20.8159 141.775 20.8159C142.105 20.8159 142.397 20.744 142.65 20.6002C142.913 20.448 143.107 20.2407 143.234 19.9785L144.655 20.7905C144.376 21.2896 143.983 21.6914 143.475 21.9959C142.968 22.292 142.405 22.44 141.788 22.44Z" fill="#313338"/>
<path d="M151.053 22.2624H149.15L146.84 19.3822V22.2624H145.204V13.3806H146.84V18.7097L149.023 15.9183H150.977L148.426 19.0523L151.053 22.2624Z" fill="#313338"/>
</svg>
