<svg width="250" height="205" viewBox="0 0 250 205" fill="none" xmlns="http://www.w3.org/2000/svg">
<path d="M167.233 147.995C166.712 148.035 166.151 148.075 165.589 148.196C165.589 148.075 165.549 147.955 165.549 147.835C163.424 147.875 161.259 147.754 159.174 147.714C151.395 147.474 143.536 148.115 135.758 148.396C127.538 148.677 119.759 145.389 111.539 145.509C107.049 145.589 101.756 149.88 97.3051 148.917C97.3051 148.957 97.3051 148.997 97.3452 149.038C90.8495 148.316 85.8375 147.995 85.8375 147.995C67.9144 151.243 63.0226 161.548 55.9657 174.579C48.9087 187.61 49.47 183.801 71.7236 194.106C93.9771 204.411 99.9514 208.22 109.735 191.941C119.518 175.662 121.684 172.414 127.097 171.852C132.51 171.291 153.681 168.605 163.464 162.069C173.208 155.613 175.373 147.434 167.233 147.995Z" fill="white"/>
<path d="M95.9021 204.131C90.5693 204.131 83.9934 201.084 74.2099 196.513L71.2027 195.109C66.752 193.024 63.1834 191.541 60.3366 190.378C54.4825 187.932 51.796 186.809 51.0342 184.644C50.3125 182.599 51.5153 180.394 53.9211 175.983C54.2419 175.382 54.6028 174.74 54.9636 174.059L55.8057 172.495C62.5419 159.985 67.8747 150.121 85.5973 146.913L85.7176 146.873H85.8379C85.878 146.873 90.2084 147.154 95.9422 147.796L95.9021 147.555L97.4257 147.796C99.591 148.237 102.237 147.194 104.763 146.192C106.969 145.31 109.254 144.387 111.459 144.347C115.589 144.307 119.639 145.069 123.529 145.831C127.498 146.593 131.588 147.395 135.638 147.234C137.923 147.154 140.209 147.034 142.534 146.953C147.987 146.673 153.601 146.432 159.134 146.593L160.698 146.633C162.262 146.673 163.906 146.753 165.469 146.713L166.472 146.673L166.512 146.913C166.712 146.873 166.913 146.873 167.113 146.873C171.364 146.593 172.647 148.517 173.048 149.68C174.21 153.168 170.522 158.622 163.986 162.992C153.24 170.169 129.743 172.695 127.137 172.936C122.366 173.417 120.441 176.063 110.577 192.503C105.605 200.843 101.435 204.131 95.9021 204.131ZM85.8379 149.079C69.2781 152.126 64.4264 161.108 57.7303 173.537L56.8883 175.101C56.5274 175.783 56.1665 176.424 55.8458 177.026C53.881 180.594 52.6781 182.76 53.0791 183.922C53.5202 185.205 56.4071 186.408 61.1786 188.373C64.0655 189.576 67.6341 191.06 72.1249 193.145L75.1321 194.548C95.1804 203.89 99.9117 206.096 108.733 191.42C118.637 174.941 120.922 171.412 126.937 170.811C136.319 169.889 154.443 166.801 162.823 161.228C168.878 157.178 171.765 152.567 171.043 150.442C170.602 149.079 168.517 149.038 167.314 149.119C166.793 149.159 166.311 149.199 165.79 149.279L164.627 149.439L164.587 148.958C163.304 148.998 161.981 148.918 160.698 148.878L159.134 148.838C153.681 148.678 148.108 148.958 142.695 149.199C140.369 149.319 138.084 149.439 135.798 149.48C131.468 149.64 127.257 148.798 123.208 148.036C119.399 147.314 115.509 146.553 111.58 146.593C109.775 146.633 107.811 147.435 105.686 148.277C103.4 149.199 101.034 150.121 98.7489 150.161L98.789 150.362L97.2253 150.161C91.3712 149.48 86.6799 149.159 85.8379 149.079Z" fill="#313338"/>
<path d="M150.593 149.479C146.824 153.168 141.772 154.852 136.56 154.01H136.519C136.6 153.93 136.72 153.85 136.8 153.81C135.717 153.93 135.597 154.692 135.236 155.253C135.236 155.654 135.477 156.015 135.998 156.095C142.013 157.057 147.787 155.253 152.157 151.003C153.119 150.041 151.596 148.477 150.593 149.479Z" fill="#313338"/>
<path d="M169.559 151.565C166.472 151.204 163.424 153.489 162.943 156.577C162.743 157.94 164.828 158.542 165.028 157.138C165.389 154.933 167.314 153.449 169.559 153.73C170.922 153.89 170.922 151.725 169.559 151.565Z" fill="#313338"/>
<path d="M85.3977 150.481C77.4587 150.481 71.9655 150.241 67.4747 149.679C45.2211 146.873 45.3815 134.884 45.9429 99.238C46.0632 92.1008 46.1834 84.0013 46.1434 74.739C46.1434 69.5265 46.0632 64.5947 45.983 59.8232C45.582 30.8736 45.3414 11.7075 58.6935 5.37223C66.352 1.72346 84.9166 1.2022 103.842 1.2022C109.095 1.2022 114.508 1.2423 119.961 1.2824C125.454 1.3225 130.947 1.36259 136.32 1.36259C139.528 1.36259 142.655 1.36259 145.743 1.32249H147.267C153.882 1.2423 159.576 1.16211 164.708 1.16211C199.713 1.16211 204.765 4.77079 206.569 30.9137C207.211 40.1759 208.855 64.7149 208.935 81.0743C209.095 115.317 208.213 132.398 199.592 141.059C190.932 149.759 174.532 149.759 144.781 149.8C135.959 149.8 125.975 149.84 114.628 150.04C114.548 150.04 114.428 150.04 114.267 150.04L107.411 150.201C98.9103 150.321 91.6528 150.481 85.3977 150.481Z" fill="white"/>
<path d="M164.709 2.2053C199.151 2.2053 203.762 5.45312 205.487 30.9143C206.088 40.0964 207.772 64.7557 207.812 80.9948C208.133 158.461 203.602 147.114 114.548 148.878C114.428 148.878 114.307 148.878 114.187 148.878C102.76 149.119 93.2568 149.359 85.3578 149.359C78.2206 149.359 72.3665 149.159 67.595 148.557C42.0937 145.35 47.3864 130.714 47.2261 74.6996C47.1459 37.7708 44.3391 13.3521 59.1748 6.29514C66.4322 2.84685 83.9143 2.2454 103.842 2.2454C114.388 2.2454 125.574 2.40579 136.32 2.40579C139.528 2.40579 142.656 2.40579 145.743 2.36569C152.92 2.2855 159.215 2.2053 164.709 2.2053ZM164.709 0V2.16521V0C159.576 0 153.842 0.0801965 147.227 0.160389H145.703C142.856 0.200486 139.769 0.200482 136.32 0.200482C130.947 0.200482 125.374 0.160387 119.961 0.12029C114.628 0.0801941 109.095 0.0400989 103.842 0.0400989C84.7964 0.0400989 66.1115 0.561355 58.2526 4.29032C44.2589 10.9463 44.5396 30.353 44.9406 59.7437C45.0208 64.5151 45.0608 69.447 45.1009 74.6595C45.141 83.8817 44.9807 91.9812 44.9005 99.1184C44.6198 117.242 44.4594 129.191 47.1058 137.05C49.9125 145.269 55.7666 149.199 67.3545 150.682C71.8453 151.244 77.4187 151.524 85.3979 151.524C91.693 151.524 98.9504 151.364 107.371 151.204C109.576 151.164 111.861 151.123 114.227 151.043C114.227 151.043 114.227 151.043 114.267 151.043C114.388 151.043 114.508 151.043 114.628 151.043C125.975 150.803 135.919 150.803 144.7 150.803C174.773 150.763 191.333 150.763 200.314 141.741C209.256 132.759 210.138 116.32 209.977 80.9948C209.897 64.6354 208.253 40.0162 207.612 30.754C206.73 17.6825 205.005 9.74343 198.59 5.21253C192.375 0.842025 182.311 0 164.709 0Z" fill="#313338"/>
<path d="M146.624 100.683C145.823 115.358 140.249 113.113 108.854 112.912C107.571 112.912 106.287 112.912 104.924 112.912C101.035 112.912 97.5465 112.953 94.3789 112.993C75.1727 113.193 68.9176 113.313 66.7925 103.73C65.8302 99.3999 65.75 93.1048 65.6698 84.0029C65.5495 68.5257 65.5094 56.5769 72.8471 53.6499C78.9016 51.204 99.431 52.2465 115.75 52.1262C141.452 51.9257 144.339 51.8055 145.382 64.1953C145.702 68.0445 146.584 78.3894 146.624 85.2058C146.705 91.7415 146.825 96.7936 146.624 100.683Z" fill="#FFD699"/>
<g clip-path="url(#clip0)">
<path d="M109.651 79.9383C110.659 78.4069 117.959 73.043 118.729 76.7734C119.153 78.818 115.759 78.8486 114.541 79.4251C113.08 80.1169 112.214 81.2729 111.465 82.6476C106.768 91.2266 117.33 99.6365 124.907 93.7908C127.549 91.7528 128.677 86.9895 127.37 83.996C126.473 81.9413 125.053 80.4223 123.173 79.2269C120.976 77.8289 123.82 76.0577 125.8 77.4681C132.596 82.3094 132.605 94.6983 123.901 97.5599C120.476 98.686 115.437 98.7968 112.308 96.8317C110.494 95.6932 109.308 93.8491 108.496 91.9212C106.037 92.6814 103.317 92.3556 100.79 92.239C99.2999 92.1698 97.7896 92.0378 96.2992 92.0378C95.619 92.0378 95.3653 94.7464 94.9381 95.4928C92.8403 99.1569 87.0337 100.534 83.5874 97.9644C82.0198 96.7953 81.2543 94.9344 81.3337 93.0138C81.4117 91.134 84.3506 91.2535 84.2727 93.1333C84.0573 98.3427 92.3617 96.5518 92.9565 92.2558C93.4609 88.615 88.5764 85.8656 85.7043 88.2185C84.7852 88.9721 82.2109 90.0225 82.6014 87.5807C82.7668 86.5471 84.0624 85.6994 84.9043 85.2657C85.544 84.9355 85.3278 83.6192 85.3492 82.918C85.5999 74.7865 91.5345 75.6903 97.883 75.5307C101.264 75.4454 96.8837 68.8191 99.5499 67.2709C102.567 65.5187 102.029 74.0642 102.045 75.4199C105.923 75.3558 107.545 76.7297 109.651 79.9383ZM94.369 87.3394C96.0345 89.4969 96.0639 89.1194 99.0205 89.2746C101.512 89.4051 104.161 89.6872 106.637 89.3431C108.219 89.1237 107.171 86.7825 107.395 85.3568C107.738 83.1673 108.348 83.2853 107.122 81.4318C106.04 79.7961 105.274 78.3405 103.212 78.3311C100.926 78.3194 98.6418 78.4681 96.3558 78.4681C94.2492 78.4681 91.7308 77.7582 89.7764 78.8428C87.8528 79.9098 88.3006 82.7066 88.2234 84.5398C90.669 84.5325 92.8492 85.37 94.369 87.3394ZM111.764 75.5044C111.923 77.8959 109.252 76.7851 108.317 75.9615C107.378 75.1342 105.916 73.7442 105.916 72.3761C105.917 69.9233 108.26 71.3476 108.954 72.3425C109.618 73.2872 111.682 74.2879 111.764 75.5044ZM119.325 85.5733C121.252 85.5733 121.878 89.0392 119.866 89.5501C116.715 90.3519 116.356 85.5733 119.325 85.5733Z" fill="#313338"/>
</g>
<path d="M114.549 148.878C114.428 148.878 114.308 148.878 114.188 148.878C92.4154 149.319 77.6198 149.84 67.5957 148.557C67.6358 137.651 68.7184 135.125 75.8155 134.403C78.7826 134.123 101.998 134.684 105.006 134.884C112.784 135.406 114.348 137.972 114.549 148.878Z" fill="#EAEBEB"/>
<path d="M48.3489 24.9403C48.0281 24.9403 47.7474 24.82 47.5469 24.5795C47.3465 24.3389 47.2262 24.0181 47.3064 23.6572C48.9904 14.0742 52.6392 8.22011 58.7338 5.33317C66.4324 1.6844 84.997 1.16315 103.923 1.16315C109.175 1.16315 114.588 1.20324 120.041 1.24334C125.535 1.28343 131.028 1.32353 136.401 1.32353C139.568 1.32353 142.696 1.32353 145.743 1.28344H147.227C153.843 1.20324 159.576 1.12305 164.749 1.12305C192.095 1.12305 201.196 3.28825 204.725 16.8408C204.805 17.1616 204.725 17.4824 204.524 17.7631C204.324 18.0437 204.003 18.2041 203.682 18.2041C162.383 19.407 120.402 21.4519 79.8246 23.4167C69.3594 23.9379 58.8942 24.4191 48.4692 24.9403C48.389 24.9403 48.389 24.9403 48.3489 24.9403Z" fill="white"/>
<path d="M164.708 2.2053C191.532 2.2053 200.273 4.17003 203.641 17.1212C151.837 18.6047 100.113 21.3714 48.348 23.8574C49.8717 15.2366 52.9992 9.26227 59.1741 6.33524C66.4315 2.88694 83.9536 2.2855 103.922 2.2855C114.467 2.2855 125.654 2.44588 136.36 2.44588C139.527 2.44588 142.655 2.44588 145.742 2.40579C152.919 2.2855 159.175 2.2053 164.708 2.2053ZM164.708 0C159.575 0 153.842 0.0801965 147.186 0.160389H145.702C142.855 0.200486 139.808 0.200482 136.36 0.200482C130.987 0.200482 125.413 0.160387 120 0.12029C114.668 0.0801941 109.134 0.0400989 103.882 0.0400989C81.8285 0.0400989 65.6296 0.761837 58.2117 4.29032C51.7963 7.33765 47.9471 13.4323 46.1828 23.4163C46.0625 24.0579 46.263 24.7395 46.7041 25.2207C47.105 25.7018 47.7065 25.9424 48.348 25.9424C48.3881 25.9424 48.4282 25.9424 48.4683 25.9424C58.8934 25.4612 69.3184 24.94 79.7836 24.4187C120.401 22.454 162.382 20.4091 203.682 19.2062C204.323 19.2062 204.965 18.8854 205.366 18.3241C205.767 17.8028 205.887 17.1212 205.727 16.4796C201.837 1.52367 190.811 0 164.708 0Z" fill="#313338"/>
<path d="M136.721 31.1547C76.4962 31.5155 72.9277 28.8291 72.9677 37.8909C73.0479 49.7594 69.1586 47.0328 130.145 46.6319C191.132 46.271 188.726 48.3159 188.967 39.615C189.328 28.1474 188.205 30.8339 136.721 31.1547Z" fill="#313338"/>
<path d="M134.996 54.2903C125.694 53.8893 126.095 66.9608 134.435 67.3216C142.815 67.6424 143.657 54.6512 134.996 54.2903Z" fill="white"/>
<path d="M182.712 7.97838C179.143 7.81799 179.303 12.83 182.511 12.9503C185.679 13.1107 186.04 8.13876 182.712 7.97838Z" fill="#EAEBEB"/>
<path d="M193.016 7.97838C189.448 7.81799 189.608 12.83 192.816 12.9503C196.024 13.1107 196.344 8.13876 193.016 7.97838Z" fill="#EAEBEB"/>
<path d="M171.284 7.97838C167.715 7.81799 167.876 12.83 171.083 12.9503C174.291 13.1107 174.612 8.13876 171.284 7.97838Z" fill="#EAEBEB"/>
<path d="M173.561 92.3009C167.667 92.2208 163.296 92.2608 160.169 92.8222C151.067 94.5463 152.029 98.9569 152.029 102.886C152.029 108.179 154.876 107.939 172.679 107.939C194.05 107.939 196.015 105.252 196.015 99.1975C196.015 94.1855 185.871 92.4212 173.561 92.3009Z" fill="#313338"/>
<path d="M177.73 92.0206C154.555 91.78 156.359 93.2636 156.359 98.5563C156.359 103.849 159.206 103.608 177.009 103.608C198.38 103.608 196.175 101.604 195.814 96.5515C195.453 91.4993 190.04 92.1409 177.73 92.0206Z" fill="#FFD699"/>
<path d="M197.747 59.503C193.016 59.3827 193.738 60.1044 193.818 70.2488C193.898 80.3932 193.858 81.1149 197.868 80.8744C201.917 80.6338 200.835 78.7894 200.755 69.0058C200.634 59.2223 200.995 59.6233 197.747 59.503Z" fill="#EAEBEB"/>
<path d="M177.538 65.7184C170.04 65.4778 162.582 65.2372 155.084 64.9966C153.68 64.9565 153.68 67.1218 155.084 67.1618C162.582 67.4024 170.04 67.643 177.538 67.8836C178.941 67.9237 178.941 65.7585 177.538 65.7184Z" fill="#313338"/>
<path d="M176.816 77.3457L155.084 77.466C153.68 77.466 153.68 79.6312 155.084 79.6312L176.816 79.5109C178.219 79.5109 178.219 77.3457 176.816 77.3457Z" fill="#313338"/>
<path d="M75.0922 118.565C72.927 118.445 70.7617 118.325 68.5564 118.244C67.1531 118.164 67.1531 120.329 68.5564 120.41C70.7216 120.53 72.8869 120.65 75.0922 120.73C76.4955 120.811 76.4955 118.645 75.0922 118.565Z" fill="#EAEBEB"/>
<path d="M180.617 96.6724C176.768 96.7526 172.878 96.8729 169.029 96.9531C167.626 96.9932 167.626 99.1584 169.029 99.1183C172.878 99.0381 176.768 98.9178 180.617 98.8376C182.02 98.7975 182.02 96.6323 180.617 96.6724Z" fill="#313338"/>
<path d="M174.291 139.936C169.76 139.976 165.229 140.056 160.738 140.096C159.335 140.096 159.335 142.302 160.738 142.262C165.269 142.222 169.8 142.141 174.291 142.101C175.694 142.061 175.694 139.896 174.291 139.936Z" fill="#EAEBEB"/>
<path d="M248.35 18.8864C240.21 23.0164 232.07 27.1062 223.931 31.2361C222.688 31.8777 223.771 33.7221 225.014 33.1207C233.153 28.9907 241.293 24.9009 249.432 20.771C250.715 20.1294 249.593 18.285 248.35 18.8864Z" fill="#FFD699"/>
<path d="M238.086 96.6733C233.154 93.9869 228.222 91.3405 223.25 88.6541C222.007 87.9724 220.924 89.857 222.167 90.5386C227.099 93.2251 232.031 95.8714 237.003 98.5579C238.246 99.2395 239.328 97.355 238.086 96.6733Z" fill="#FFD699"/>
<path d="M23.9701 93.9472C19.7599 94.5486 15.5097 95.1901 11.2996 95.7916C9.93632 95.9921 10.4977 98.0771 11.8609 97.8766C16.0711 97.2752 20.3213 96.6336 24.5314 96.0322C25.9348 95.8317 25.3333 93.7467 23.9701 93.9472Z" fill="#FFD699"/>
<path d="M31.5482 69.3672C21.5642 61.829 11.5401 54.2909 1.55608 46.7528C0.433376 45.9108 -0.649226 47.7953 0.473474 48.6373C10.4575 56.1754 20.4816 63.7136 30.4656 71.2517C31.5482 72.0937 32.6308 70.2092 31.5482 69.3672Z" fill="#FFD699"/>
<path d="M143.859 138.213C139.368 132.639 126.297 140.338 103.723 153.971L135.76 153.409C142.977 147.475 147.067 142.222 143.859 138.213Z" fill="white"/>
<path d="M136.442 154.291L135.078 152.607C142.857 146.191 145.383 141.821 143.057 138.894C139.208 134.082 131.71 138.052 109.457 151.484L108.334 149.64C131.43 135.686 139.649 131.195 144.742 137.53C148.952 142.863 142.536 149.279 136.442 154.291Z" fill="#313338"/>
<path d="M108.814 149.639C95.5024 148.677 84.1551 157.057 81.0276 170.008C80.7068 171.372 82.7918 171.933 83.1126 170.57C85.9995 158.541 96.4647 150.923 108.774 151.805C110.218 151.885 110.178 149.72 108.814 149.639Z" fill="#313338"/>
<path d="M136.801 153.77C137.884 152.928 138.966 152.086 140.089 151.284C141.212 150.482 140.129 148.598 139.007 149.4C131.829 154.692 124.973 160.426 118.517 166.601C117.515 167.563 119.039 169.087 120.041 168.125C124.532 163.834 129.223 159.785 134.075 155.895C133.995 155.895 133.914 155.895 133.834 155.895C133.914 155.895 133.995 155.895 134.075 155.895C134.476 155.575 134.837 155.254 135.238 154.973C135.238 155.053 135.238 155.133 135.238 155.214C135.598 154.652 135.719 153.89 136.801 153.77Z" fill="#313338"/>
<path d="M142.414 141.66C140.249 139.855 137.041 139.575 134.756 141.419C132.51 143.223 132.069 146.471 133.393 148.957C134.034 150.2 135.919 149.077 135.277 147.875C133.352 144.306 137.683 140.577 140.891 143.223C141.933 144.065 143.497 142.542 142.414 141.66Z" fill="#313338"/>
<defs>
<clipPath id="clip0">
<rect width="50" height="41" fill="white" transform="translate(81 67)"/>
</clipPath>
</defs>
</svg>
