<svg width="28" height="20" viewBox="0 0 28 20" fill="none" xmlns="http://www.w3.org/2000/svg">
<rect x="0.0820312" width="27.3118" height="20" rx="2" fill="#EE3831"/>
<path d="M25.7344 3.01074H2.08594V17.2043H25.7344V3.01074Z" fill="#EE3831"/>
<path d="M16.2854 10.8616C16.2705 10.833 16.256 10.8036 16.2422 10.7734C16.256 10.8036 16.2705 10.833 16.2854 10.8616Z" fill="#733D96"/>
<path d="M7.02006 12.9458H6.20876C6.10606 12.9458 6.01191 13.005 5.96805 13.0974L5.03978 15.0716L4.09476 13.0959C4.05125 13.0046 3.95711 12.9458 3.85511 12.9458H3.07306C2.92685 12.9458 2.80774 13.0635 2.80774 13.2083V15.967C2.80774 16.1118 2.92685 16.2295 3.07306 16.2295H3.4771C3.62332 16.2295 3.74242 16.1118 3.74242 15.967V14.3705L4.57797 16.0811C4.62183 16.1714 4.71562 16.2295 4.8169 16.2295H5.25232C5.35467 16.2295 5.44882 16.1707 5.49197 16.0794L6.33322 14.3213V15.967C6.33322 16.1118 6.45232 16.2295 6.59854 16.2295H7.02006C7.16626 16.2295 7.28537 16.1118 7.28537 15.967V13.2083C7.28537 13.0635 7.16626 12.9458 7.02006 12.9458Z" fill="white"/>
<path d="M10.2838 13.0767C10.2367 12.9961 10.1487 12.9458 10.0541 12.9458H9.4857C9.39192 12.9458 9.30419 12.9954 9.25712 13.0749L7.6142 15.834C7.56642 15.9142 7.56535 16.0145 7.61171 16.0958C7.65842 16.1781 7.74722 16.2295 7.84314 16.2295H8.28571C8.38021 16.2295 8.46829 16.1792 8.51536 16.0983L8.80243 15.6061C8.80386 15.6083 8.80529 15.6108 8.80672 15.6133C8.85093 15.691 8.93474 15.7392 9.02496 15.7392H10.7688L10.9778 16.0983C11.0248 16.1792 11.1129 16.2295 11.2074 16.2295H11.6746C11.7702 16.2295 11.8586 16.1785 11.9057 16.0965C11.9517 16.0155 11.9513 15.9157 11.9043 15.8354L10.2838 13.0767ZM9.16582 14.9831L9.74888 13.9839L10.3295 14.9831H9.17653C9.17296 14.9831 9.16939 14.9831 9.16582 14.9831Z" fill="white"/>
<path d="M16.0662 14.2123H14.3124C14.1662 14.2123 14.0471 14.33 14.0471 14.4747V14.7547C14.0471 14.8995 14.1662 15.0171 14.3124 15.0171H15.4029V15.1844C15.124 15.3698 14.73 15.479 14.3288 15.479C13.5663 15.479 13.0539 15.1209 13.0539 14.5878C13.0539 14.0497 13.5542 13.702 14.3288 13.702C14.7531 13.702 15.1558 13.8435 15.3305 14.0536C15.4225 14.1648 15.5848 14.1837 15.6996 14.0964L15.9945 13.8689C16.0551 13.8221 16.0929 13.7519 16.0986 13.6766C16.1044 13.6025 16.0783 13.5294 16.027 13.4752C15.6914 13.121 15.0249 12.8921 14.3288 12.8921C12.9544 12.8921 12.0308 13.5736 12.0308 14.5878C12.0308 15.602 12.9544 16.2835 14.3288 16.2835C15.0481 16.2835 15.7399 16.0749 16.2263 15.7118C16.2923 15.6626 16.3315 15.5845 16.3315 15.5021V14.4747C16.3315 14.33 16.2124 14.2123 16.0662 14.2123Z" fill="white"/>
<path d="M20.0817 12.9458H19.6541C19.5079 12.9458 19.3888 13.0635 19.3888 13.2083V15.0042L17.815 13.0449C17.7644 12.9818 17.6888 12.9458 17.6075 12.9458H17.0547C16.9082 12.9458 16.7891 13.0635 16.7891 13.2083V15.967C16.7891 16.1118 16.9082 16.2295 17.0547 16.2295H17.482C17.6285 16.2295 17.7473 16.1118 17.7473 15.967V14.3869L19.1438 16.1296C19.1941 16.1931 19.27 16.2295 19.352 16.2295H20.0817C20.2279 16.2295 20.347 16.1118 20.347 15.967V13.2083C20.347 13.0635 20.2279 12.9458 20.0817 12.9458Z" fill="white"/>
<path d="M24.979 15.8354L23.3585 13.077C23.3114 12.9961 23.2234 12.9458 23.1289 12.9458H22.5604C22.467 12.9458 22.3793 12.9954 22.3315 13.0749L20.6893 15.8337C20.6411 15.9139 20.6401 16.0141 20.6861 16.0954C20.7331 16.1781 20.8219 16.2295 20.9175 16.2295H21.3601C21.4546 16.2295 21.5426 16.1792 21.5901 16.0983L21.8771 15.6061C21.8786 15.6083 21.8796 15.6108 21.8811 15.6129C21.9253 15.6907 22.0091 15.7392 22.0993 15.7392H23.8435L24.0521 16.0983C24.0996 16.1792 24.1876 16.2295 24.2821 16.2295H24.7493C24.8445 16.2295 24.9333 16.1785 24.9804 16.0965C25.0264 16.0155 25.026 15.9157 24.979 15.8354ZM22.2405 14.9831L22.8232 13.9839L23.4042 14.9831H22.2512C22.2477 14.9831 22.2441 14.9831 22.2405 14.9831Z" fill="white"/>
<path d="M12.2674 10.6919C12.2325 10.6295 12.1629 10.5938 12.0934 10.5999C12.0221 10.6059 11.9615 10.653 11.9379 10.7204C11.7289 11.3163 11.5949 11.2913 11.5892 11.2924C11.245 11.2799 10.7629 9.9979 10.3374 8.86708C10.0889 8.20521 9.97013 7.83611 9.6556 7.14179C9.62599 7.07688 9.56181 7.03552 9.49048 7.03516H9.49012C9.41915 7.03516 9.35461 7.07653 9.32537 7.14107L9.12174 7.58648C9.10034 7.63356 9.09999 7.68776 9.12103 7.73519C9.37673 8.31183 9.44555 8.53685 9.67021 9.12277C10.31 10.7914 10.8153 12.1094 11.5842 12.1254H11.5956C11.9714 12.1254 12.1644 11.9874 12.4935 11.2307C12.5149 11.1811 12.5092 11.1241 12.4828 11.0767L12.2674 10.6919Z" fill="white"/>
<path d="M12.8192 8.10747V8.10783L13 8.45482C13.0314 8.51544 13.0938 8.55253 13.1608 8.55253C13.168 8.55253 13.1755 8.55217 13.183 8.5511C13.2578 8.54183 13.3195 8.48691 13.337 8.41345L13.592 7.34753C13.6597 7.06581 13.73 6.77446 13.8138 6.49451C13.8195 6.47597 13.8252 6.45742 13.8309 6.43853V6.44102C13.8498 6.3804 13.8709 6.31728 13.8962 6.25523C13.9215 6.31728 13.9425 6.3804 13.9614 6.44102V6.43853C13.9671 6.45742 13.9728 6.47597 13.9786 6.49451C14.0624 6.77446 14.1326 7.06581 14.2004 7.34753L14.4553 8.41345C14.4728 8.48691 14.5345 8.54183 14.6094 8.5511C14.6169 8.55217 14.6244 8.55253 14.6315 8.55253C14.6986 8.55253 14.761 8.51544 14.7923 8.45482L14.9731 8.10783V8.10747C14.9917 8.07146 15.0174 8.0226 15.0245 7.95913C15.0323 7.89422 15.0177 7.83787 15.0081 7.80043C14.8655 7.24376 14.8448 7.19348 14.6782 6.62468C14.6008 6.3615 14.5078 6.05624 14.3783 5.76132C14.3131 5.6119 14.2335 5.4582 14.0955 5.34372C14.0367 5.29558 13.9671 5.2724 13.8962 5.27347C13.8252 5.2724 13.7557 5.29558 13.6968 5.34372C13.5588 5.4582 13.4793 5.6119 13.414 5.76132C13.2846 6.05624 13.1915 6.3615 13.1141 6.62468C12.9476 7.19348 12.9269 7.24376 12.7843 7.80043C12.7746 7.83787 12.76 7.89422 12.7679 7.95913C12.775 8.0226 12.8007 8.07146 12.8192 8.10747Z" fill="white"/>
<path d="M18.463 7.14107C18.4337 7.07652 18.3692 7.03516 18.2982 7.03516H18.2975C18.2265 7.03516 18.1624 7.07688 18.1328 7.14179C17.8182 7.83611 17.6995 8.20521 17.4506 8.86708C17.0255 9.9979 16.5433 11.2799 16.1992 11.2924C16.1935 11.2913 16.0594 11.3163 15.8504 10.7204C15.8269 10.653 15.7659 10.6059 15.695 10.5995C15.6251 10.5934 15.5559 10.6295 15.5209 10.6919L15.3055 11.0767C15.2791 11.1237 15.2734 11.1811 15.2948 11.2307C15.624 11.9874 15.8169 12.1254 16.1928 12.1254H16.2042C16.973 12.1094 17.4784 10.7914 18.1181 9.12277C18.3428 8.53685 18.4116 8.31183 18.6673 7.73519C18.6884 7.68776 18.688 7.63356 18.6666 7.58612L18.463 7.14107Z" fill="white"/>
<path d="M21.8298 6.27755C21.8209 6.23441 21.8117 6.19232 21.8024 6.15238C21.801 6.14525 21.7992 6.13812 21.7974 6.13099C21.7949 6.11957 21.792 6.10852 21.7896 6.09747C21.7878 6.09033 21.786 6.0832 21.7842 6.07642C21.7799 6.0593 21.7756 6.04255 21.7714 6.02614C21.7707 6.02329 21.7696 6.02008 21.7689 6.01723C21.7674 6.01045 21.766 6.00403 21.7642 5.99868C21.7642 5.99797 21.7639 5.99726 21.7639 5.99654C21.7628 5.99333 21.7617 5.98977 21.7607 5.98656C21.4636 4.87963 21.0899 3.87897 20.3624 3.87256H20.3577C19.9334 3.87256 19.6484 4.06477 19.0279 5.26763C19.0019 5.31827 19.0012 5.37782 19.0258 5.42917L19.2237 5.84249C19.2537 5.90525 19.3172 5.94519 19.3867 5.94555H19.3874C19.4566 5.94555 19.5201 5.90596 19.5504 5.84356C20.1409 4.62287 20.3192 4.70026 20.3585 4.70168C20.5781 4.71202 21.3206 5.11928 21.653 9.9307C21.602 10.4892 21.469 10.8254 21.2964 10.8308C21.2956 10.8311 21.2949 10.8311 21.2942 10.8311C21.0168 10.8311 20.4087 9.2328 20.0454 8.27672C19.3111 6.34673 18.5519 4.35113 17.6058 4.35113C17.5997 4.35113 17.594 4.35113 17.5883 4.35149C16.6911 4.37467 16.1223 5.7972 15.5199 7.30353C15.0521 8.47358 14.5243 9.79411 13.959 9.88434V9.88363C13.9373 9.88719 13.9155 9.88933 13.8938 9.88933C13.872 9.88933 13.8503 9.88719 13.8285 9.88363V9.88434C13.2633 9.79411 12.7351 8.47358 12.2673 7.30353C11.6649 5.7972 11.0962 4.37467 10.1993 4.35149C10.1932 4.35113 10.1875 4.35113 10.1818 4.35113C9.23535 4.35113 8.47647 6.34673 7.74221 8.27672C7.37846 9.2328 6.77044 10.8311 6.49299 10.8311C6.49228 10.8311 6.49157 10.8311 6.49085 10.8308C6.31825 10.8254 6.18524 10.4892 6.13424 9.9307C6.4666 5.11928 7.20907 4.71202 7.4291 4.70168C7.46833 4.70026 7.64628 4.62287 8.23719 5.84356C8.26714 5.90596 8.33062 5.94555 8.40016 5.94555H8.40087C8.47005 5.94519 8.53353 5.90525 8.56349 5.84249L8.76177 5.42917C8.78637 5.37782 8.7853 5.31827 8.75927 5.26763C8.13912 4.06477 7.85418 3.87256 7.42946 3.87256H7.42518C6.69733 3.87897 6.3236 4.87963 6.02654 5.98656C6.02547 5.98977 6.0244 5.99333 6.02369 5.99654C6.02333 5.99726 6.02333 5.99797 6.02297 5.99868C6.02155 6.00403 6.01977 6.01045 6.01834 6.01723C6.01762 6.02008 6.01691 6.02329 6.0162 6.02614C6.01156 6.04255 6.00729 6.0593 6.00301 6.07642C6.00158 6.0832 5.9998 6.09033 5.99801 6.09747C5.99516 6.10852 5.99266 6.11957 5.98981 6.13099C5.98838 6.13812 5.9866 6.14525 5.98482 6.15238C5.97555 6.19232 5.96663 6.23441 5.95736 6.27755C5.63142 7.72219 5.12395 10.8525 5.87249 11.8011C6.0294 12.0005 6.24693 12.1025 6.48122 12.1025C7.305 12.0961 7.8738 10.5259 8.53246 8.70787C9.02958 7.33634 9.64759 5.6303 10.1864 5.6303H10.19C10.6636 5.63672 11.0191 6.81533 11.3629 7.95542C11.8839 9.68392 12.4748 11.6432 13.8924 11.646H13.8931H13.8934H13.8938H13.8941H13.8949C15.3124 11.6432 15.9033 9.68392 16.4247 7.95542C16.7684 6.81533 17.124 5.63672 17.5976 5.6303H17.6011C18.14 5.6303 18.758 7.33634 19.2547 8.70787C19.9134 10.5259 20.4822 12.0961 21.306 12.1025C21.5406 12.1025 21.7578 12.0005 21.9147 11.8011C22.6636 10.8525 22.1561 7.72219 21.8298 6.27755Z" fill="white"/>
</svg>
