<svg width="65" height="20" viewBox="0 0 65 20" fill="none" xmlns="http://www.w3.org/2000/svg">
<path fill-rule="evenodd" clip-rule="evenodd" d="M0 3.33301V16.4901H61.161L64.8167 3.33301H0Z" fill="#D62631"/>
<path fill-rule="evenodd" clip-rule="evenodd" d="M31.3727 3.33398L27.6328 16.491H61.1572L64.8129 3.33398H31.3727Z" fill="#004F94"/>
<path d="M63.2245 14.8311C63.6794 14.8311 64.0332 15.1848 64.0332 15.6313C64.0332 16.0945 63.6794 16.4399 63.2161 16.4399C62.7528 16.4399 62.3906 16.0861 62.3906 15.6313C62.399 15.1848 62.7612 14.8311 63.2245 14.8311ZM63.2161 14.9658C62.8539 14.9658 62.5759 15.2691 62.5759 15.6313C62.5759 16.0019 62.8539 16.2967 63.2329 16.2967C63.5867 16.3051 63.8647 16.0019 63.8647 15.6397C63.8563 15.2691 63.5783 14.9658 63.2161 14.9658ZM63.0729 16.0777H62.9129V15.2354C62.9971 15.2185 63.0897 15.2101 63.2077 15.2101C63.3509 15.2101 63.4183 15.2354 63.4688 15.2775C63.5193 15.3112 63.553 15.3786 63.553 15.4544C63.553 15.5555 63.4772 15.6228 63.393 15.6565V15.665C63.4604 15.6986 63.5025 15.7576 63.5278 15.8755C63.553 16.0019 63.5699 16.0524 63.5951 16.0861H63.4351C63.4098 16.0524 63.393 15.9766 63.3677 15.8671C63.3509 15.7745 63.2919 15.7323 63.174 15.7323H63.0729V16.0777ZM63.0729 15.5976H63.1824C63.2919 15.5976 63.4014 15.5639 63.4014 15.4628C63.4014 15.387 63.3509 15.3196 63.1993 15.3196C63.1403 15.3196 63.1066 15.3196 63.0813 15.328V15.5976H63.0729Z" fill="black"/>
<path d="M13.2834 6.60126L12.5674 9.0103H14.151C14.4627 9.0103 14.7154 8.95976 14.9007 8.86711C15.2292 8.69864 15.465 8.36172 15.6166 7.85632C15.7767 7.31724 15.7514 6.94662 15.5408 6.7613C15.4229 6.66023 15.2123 6.60126 14.9091 6.60126H13.2834ZM0 7.62047H11.6156L12.3821 5.04297H15.6672C16.1305 5.05982 16.4674 5.13562 16.678 5.27882C16.8885 5.42201 17.0402 5.63259 17.1328 5.90214C17.2086 6.12956 17.2507 6.38226 17.2592 6.6518C17.2592 6.92977 17.2086 7.24143 17.1075 7.5952C16.9812 8.02479 16.779 8.43753 16.4927 8.85026C16.2147 9.263 15.8609 9.54939 15.4397 9.71785C15.7009 9.88632 15.8441 10.1222 15.8862 10.4254C15.9283 10.7286 15.8525 11.1919 15.6672 11.8237L15.4903 12.4217C15.3724 12.826 15.2966 13.1124 15.2797 13.2556C15.246 13.483 15.2797 13.6599 15.3808 13.7694L15.3134 13.9968H13.772C13.7888 13.7947 13.8056 13.6346 13.8225 13.5167C13.8646 13.264 13.9152 13.0113 13.991 12.7418L14.2268 11.9079C14.3868 11.3351 14.4205 10.9561 14.3279 10.7623C14.2352 10.5686 13.9825 10.4759 13.5698 10.4759H12.1294L11.085 13.9884H9.80462H0V12.9187H10.0405L10.2679 12.169H0V11.0993H10.5796L10.7817 10.4254H0V9.36408H11.0934L11.2955 8.69022H0V7.62047ZM19.2892 9.0103C19.0533 9.263 18.8512 9.59993 18.6743 10.0295H20.6874C20.8053 9.57466 20.7969 9.22931 20.6874 8.99346C20.5695 8.75761 20.3758 8.63968 20.1062 8.63968C19.803 8.63126 19.5334 8.75761 19.2892 9.0103ZM21.5466 7.51097C21.8161 7.72155 21.993 8.04163 22.0772 8.48806C22.1531 8.88396 22.1446 9.33881 22.052 9.85263C21.993 10.1559 21.8751 10.5939 21.7066 11.1666H18.3205C18.1436 11.8321 18.1605 12.2954 18.371 12.5649C18.4974 12.7334 18.6911 12.8176 18.9438 12.8176C19.2133 12.8176 19.4576 12.7165 19.6851 12.5144C19.8114 12.4049 19.9293 12.2532 20.0641 12.0595H21.3865C21.2349 12.4554 20.9654 12.8513 20.5695 13.2556C19.9546 13.8958 19.2639 14.2243 18.5058 14.2243C17.8741 14.2243 17.4024 13.9547 17.0823 13.4156C16.7622 12.8766 16.779 11.9921 17.1412 10.7708C17.4782 9.6252 17.9583 8.74918 18.5732 8.13429C19.1881 7.51939 19.8451 7.21616 20.5358 7.21616C20.9401 7.19931 21.277 7.30881 21.5466 7.51097ZM26.5416 7.4857C26.7184 7.66259 26.8364 7.90686 26.8953 8.21852L27.8303 5.05982H29.1443L26.491 13.9968H25.236L25.5055 13.0787C25.2023 13.4662 24.9074 13.7526 24.6211 13.9379C24.3347 14.1148 24.0146 14.2074 23.6608 14.2074C23.0796 14.2074 22.6921 13.8958 22.4731 13.2725C22.2626 12.6407 22.3047 11.8405 22.5995 10.8634C22.9364 9.7347 23.3913 8.84184 23.9725 8.19325C24.5537 7.54466 25.1686 7.22458 25.8256 7.22458C26.1204 7.22458 26.3562 7.30881 26.5416 7.4857ZM25.455 12.2027C25.7582 11.8405 25.9856 11.3688 26.1625 10.7876C26.4068 9.97897 26.4236 9.39777 26.2215 9.05242C26.0951 8.84184 25.9098 8.73234 25.6571 8.73234C25.2781 8.73234 24.9411 8.92607 24.6463 9.30512C24.3599 9.68416 24.1325 10.1643 23.964 10.7286C23.7872 11.3435 23.7282 11.8321 23.7956 12.1943C23.8714 12.5565 24.0904 12.7418 24.4526 12.7418C24.8316 12.7502 25.1601 12.5649 25.455 12.2027Z" fill="white"/>
<path fill-rule="evenodd" clip-rule="evenodd" d="M57.8691 10.0967C58.0881 10.0546 58.2481 10.004 58.3492 9.94506C58.5345 9.84398 58.6609 9.67552 58.7198 9.45651C58.7872 9.18697 58.7788 9.00166 58.6777 8.90058C58.5851 8.7995 58.4166 8.74054 58.1808 8.74054C57.9196 8.74054 57.7006 8.84162 57.5406 9.04378C57.4227 9.19539 57.3216 9.39755 57.2289 9.65025H56.1592C56.3277 9.07747 56.5551 8.59735 56.8415 8.23515C57.2879 7.65395 57.8691 7.36756 58.5935 7.36756C59.0652 7.36756 59.4442 7.51075 59.7306 7.79714C60.017 8.08353 60.0591 8.62262 59.857 9.4144L59.0736 12.4299C59.0147 12.6405 58.9557 12.8932 58.8799 13.188C58.8294 13.4154 58.8125 13.567 58.8293 13.6429C58.8462 13.7271 58.8799 13.7945 58.9473 13.845L58.8799 14.0977H57.6669C57.6669 13.9629 57.6754 13.845 57.6922 13.7271C57.7091 13.6092 57.7343 13.4744 57.768 13.3312C57.549 13.5923 57.3132 13.8113 57.0605 13.9882C56.7657 14.1988 56.4624 14.3083 56.1592 14.3083C55.7717 14.3083 55.4938 14.1398 55.3253 13.8029C55.1653 13.4575 55.1653 12.9774 55.3253 12.3541C55.5359 11.5455 55.8896 10.9558 56.3866 10.5936C56.6646 10.3999 57.0268 10.2567 57.4816 10.1725L57.8691 10.0967ZM58.3408 10.9053C58.2566 10.9727 58.1639 11.0317 58.0797 11.0738C57.9955 11.1159 57.8944 11.1496 57.7596 11.1917L57.4901 11.2675C57.2374 11.3349 57.0521 11.4107 56.9257 11.5034C56.7151 11.655 56.5635 11.8992 56.4793 12.2362C56.4035 12.531 56.4035 12.7416 56.4708 12.8763C56.5467 13.0027 56.6562 13.0701 56.8078 13.0701C57.052 13.0701 57.2963 12.9606 57.5574 12.7416C57.8186 12.5226 58.0292 12.1267 58.1892 11.5539L58.3408 10.9053ZM56.2434 7.36756C56.2603 7.36756 56.294 7.36756 56.3361 7.37598L55.8812 9.13643C55.8138 9.12801 55.7549 9.11959 55.6959 9.11116C55.6454 9.11116 55.5948 9.10274 55.5611 9.10274C55.1147 9.10274 54.7525 9.33017 54.483 9.7766C54.3314 10.0293 54.1881 10.4168 54.045 10.9474L53.2279 14.0893H52.0992L53.8091 7.51075H54.8789L54.5756 8.65631C54.862 8.2183 55.0894 7.91507 55.2663 7.75502C55.5443 7.48548 55.856 7.35071 56.1845 7.35071C56.2182 7.36756 56.2266 7.36756 56.2434 7.36756ZM52.4024 8.22672C52.6046 8.79108 52.5625 9.62498 52.2761 10.7284C51.9728 11.8908 51.577 12.7753 51.0716 13.3817C50.5746 13.9882 50.0608 14.2914 49.5301 14.2914C49.1848 14.2914 48.9405 14.1567 48.7804 13.8955C48.6962 13.7524 48.6288 13.5418 48.5867 13.2638L47.8455 16.1109H46.742L48.9742 7.51917H50.0439L49.7912 8.48784C49.985 8.20145 50.1703 7.97403 50.3556 7.81399C50.6841 7.51917 51.0126 7.36756 51.358 7.36756C51.8549 7.37598 52.2087 7.66237 52.4024 8.22672ZM51.2232 9.46494C51.1726 9.07747 50.9789 8.88374 50.642 8.88374C50.2377 8.88374 49.8839 9.17855 49.5722 9.76817C49.4122 10.0798 49.269 10.4841 49.1426 10.9643C48.9405 11.7308 48.9321 12.2699 49.1174 12.5731C49.2269 12.7584 49.3869 12.8426 49.6059 12.8426C49.9176 12.8426 50.204 12.6573 50.4651 12.2867C50.7262 11.9161 50.9368 11.4275 51.0968 10.8042C51.2316 10.3073 51.2737 9.86083 51.2232 9.46494ZM47.2811 7.54444C47.4327 7.65395 47.5507 7.8561 47.6265 8.13407C47.6854 8.3615 47.6939 8.64789 47.6517 8.97639C47.618 9.19539 47.5507 9.5239 47.4412 9.94506L46.3546 14.0893H45.209L46.304 9.90295C46.3714 9.65025 46.3967 9.44809 46.3883 9.28805C46.3714 8.98481 46.2282 8.82477 45.9587 8.82477C45.647 8.82477 45.3859 9.01851 45.1669 9.4144C45.049 9.62498 44.9563 9.87768 44.8805 10.1725L43.8613 14.0893H42.7326L43.7518 10.1725C43.8529 9.78502 43.9034 9.49863 43.895 9.32174C43.8866 9.00166 43.7434 8.84162 43.4654 8.84162C43.1453 8.84162 42.8926 9.00166 42.6989 9.32174C42.5894 9.49863 42.4883 9.7766 42.3957 10.1304L41.368 14.0893H40.2309L41.9408 7.51917H43.0274L42.7747 8.47942C43.0021 8.13407 43.1959 7.89822 43.3559 7.7466C43.6423 7.4939 43.9539 7.35913 44.2993 7.35913C44.6278 7.35913 44.8637 7.46863 45.0069 7.68764C45.1164 7.8898 45.1753 8.15934 45.1753 8.47942C45.4196 8.09195 45.6807 7.80556 45.9418 7.62868C46.2198 7.44337 46.4978 7.35913 46.7841 7.35913C46.961 7.37598 47.1295 7.43494 47.2811 7.54444ZM39.1948 13.3059C38.6558 13.9882 38.0156 14.3336 37.2827 14.3336C36.5499 14.3336 36.0867 13.9882 35.9014 13.3059C35.716 12.6152 35.7497 11.7897 36.0024 10.8211C36.2467 9.86925 36.6426 9.0522 37.1901 8.35307C37.7292 7.65395 38.3694 7.30859 39.1106 7.30859C39.8518 7.30859 40.3067 7.65395 40.4836 8.35307C40.6605 9.04378 40.6268 9.86925 40.3825 10.8211C40.1298 11.7897 39.7339 12.6152 39.1948 13.3059ZM38.5462 12.3541C38.8158 11.9919 39.0348 11.4865 39.2117 10.8295C39.3801 10.1725 39.4307 9.66709 39.338 9.31332C39.2538 8.95112 39.0516 8.77423 38.7231 8.77423C38.3946 8.77423 38.0998 8.95112 37.8218 9.31332C37.5523 9.66709 37.3333 10.1725 37.1648 10.8295C36.9964 11.4865 36.9458 12.0003 37.0301 12.3541C37.1143 12.7079 37.3249 12.8932 37.6534 12.8932C37.9819 12.8848 38.2767 12.7079 38.5462 12.3541ZM34.6884 9.8861C34.7305 9.64182 34.7305 9.42282 34.6968 9.22066C34.6379 8.95954 34.4778 8.82477 34.2167 8.82477C33.8377 8.82477 33.5092 9.11116 33.2228 9.69236C33.0711 9.9956 32.928 10.3999 32.7932 10.9137C32.6668 11.3939 32.5995 11.7813 32.5995 12.0761C32.591 12.6236 32.7679 12.9016 33.1385 12.9016C33.3997 12.9016 33.6187 12.7921 33.7787 12.5731C33.9472 12.3541 34.0819 12.0761 34.1999 11.7308H35.3454C35.1854 12.253 34.9327 12.75 34.5873 13.2133C34.0398 13.9629 33.4249 14.342 32.7342 14.342C32.0435 14.342 31.6224 14.0303 31.4623 13.3986C31.3023 12.7753 31.3528 11.9582 31.6139 10.9558C31.9087 9.82714 32.3131 8.95112 32.8353 8.31938C33.3575 7.68764 33.9303 7.37598 34.5621 7.37598C35.1012 7.37598 35.4886 7.56129 35.7329 7.93191C35.9772 8.30253 36.0108 8.95954 35.834 9.89452H34.6884V9.8861Z" fill="white"/>
</svg>
