<svg width="24" height="24" viewBox="0 0 24 24" fill="none" xmlns="http://www.w3.org/2000/svg">
<path d="M9.59709 9.10943L6.97573 15.371H5.26456L3.97816 10.3739C3.90534 10.0699 3.83252 9.94836 3.58981 9.82677C3.20146 9.62008 2.55825 9.41339 2 9.2918L2.03641 9.10943H4.79126C5.1432 9.10943 5.45874 9.34044 5.53155 9.74166L6.21116 13.377L7.88592 9.12158H9.59709V9.10943ZM16.284 13.3284C16.2961 11.6749 14.0024 11.5897 14.0267 10.8481C14.0267 10.6292 14.2451 10.3861 14.7063 10.3253C14.9369 10.301 15.5801 10.2766 16.2961 10.6049L16.5752 9.27964C16.1869 9.13374 15.6893 9 15.0583 9C13.4563 9 12.3398 9.85109 12.3277 11.0669C12.3155 11.9667 13.1286 12.4652 13.7354 12.7691C14.3665 13.0731 14.5728 13.2676 14.5728 13.5473C14.5728 13.9728 14.0752 14.1552 13.6019 14.1552C12.7888 14.1673 12.3155 13.9363 11.9393 13.7539L11.6481 15.1279C12.0243 15.2981 12.7282 15.4561 13.4442 15.4561C15.1675 15.4683 16.284 14.6294 16.284 13.3284ZM20.5073 15.371H22L20.6893 9.10943H19.3058C18.9903 9.10943 18.7354 9.2918 18.6141 9.57145L16.1869 15.371H17.8859L18.2257 14.4348H20.301L20.5073 15.371ZM18.699 13.1582L19.5485 10.8116L20.034 13.1582H18.699ZM11.9029 9.10943L10.568 15.371H8.95388L10.2888 9.10943H11.9029Z" fill="#15195A"/>
</svg>
