<svg width="24" height="16" viewBox="0 0 24 16" fill="none" xmlns="http://www.w3.org/2000/svg">
<path d="M18.5072 2.61781C16.4578 1.2125 14.2645 0.5 11.9887 0.5C9.94078 0.5 7.94438 1.10937 6.05484 2.30375C4.14937 3.51078 2.28141 5.70312 0.75 8C1.98844 10.0625 3.6825 12.1831 5.44687 13.3991C7.47094 14.7931 9.67172 15.5 11.9887 15.5C14.2856 15.5 16.4817 14.7936 18.5184 13.4005C20.3114 12.1719 22.0177 10.0541 23.25 8C22.0134 5.96422 20.3016 3.84875 18.5072 2.61781ZM12 12.5C11.11 12.5 10.24 12.2361 9.49993 11.7416C8.75991 11.2471 8.18314 10.5443 7.84254 9.72208C7.50195 8.89981 7.41283 7.99501 7.58647 7.12209C7.7601 6.24918 8.18868 5.44736 8.81802 4.81802C9.44736 4.18868 10.2492 3.7601 11.1221 3.58647C11.995 3.41283 12.8998 3.50195 13.7221 3.84254C14.5443 4.18314 15.2471 4.75991 15.7416 5.49993C16.2361 6.23995 16.5 7.10998 16.5 8C16.4986 9.19306 16.0241 10.3369 15.1805 11.1805C14.3369 12.0241 13.1931 12.4986 12 12.5Z" fill="#313338"/>
</svg>
