<svg width="16" height="16" viewBox="0 0 16 16" fill="none" xmlns="http://www.w3.org/2000/svg">
<path d="M7.33333 2.66699H2.66666C2.31304 2.66699 1.9739 2.80747 1.72385 3.05752C1.4738 3.30756 1.33333 3.6467 1.33333 4.00033V13.3337C1.33333 13.6873 1.4738 14.0264 1.72385 14.2765C1.9739 14.5265 2.31304 14.667 2.66666 14.667H12C12.3536 14.667 12.6928 14.5265 12.9428 14.2765C13.1929 14.0264 13.3333 13.6873 13.3333 13.3337V8.66699" stroke="#2196F3" stroke-width="1.5" stroke-linecap="round" stroke-linejoin="round"/>
<path d="M12.3333 1.66714C12.5985 1.40193 12.9583 1.25293 13.3333 1.25293C13.7084 1.25293 14.0681 1.40193 14.3333 1.66714C14.5985 1.93236 14.7475 2.29207 14.7475 2.66714C14.7475 3.04222 14.5985 3.40193 14.3333 3.66714L7.99999 10.0005L5.33333 10.6671L5.99999 8.00048L12.3333 1.66714Z" stroke="#2196F3" stroke-width="1.5" stroke-linecap="round" stroke-linejoin="round"/>
</svg>
