<svg width="18" height="18" viewBox="0 0 18 18" fill="none" xmlns="http://www.w3.org/2000/svg">
<path d="M15.375 0.75H7.875C7.17904 0.750744 6.51179 1.02755 6.01967 1.51967C5.52754 2.01179 5.25074 2.67904 5.25 3.375V8.25H12.4392L9.96984 5.78016C9.83513 5.63836 9.76113 5.44955 9.76364 5.25398C9.76614 5.0584 9.84495 4.87155 9.98325 4.73325C10.1215 4.59495 10.3084 4.51614 10.504 4.51364C10.6995 4.51114 10.8884 4.58513 11.0302 4.71984L14.7802 8.46984C14.9207 8.61048 14.9997 8.80117 14.9997 9C14.9997 9.19883 14.9207 9.38952 14.7802 9.53016L11.0302 13.2802C10.8884 13.4149 10.6995 13.4889 10.504 13.4864C10.3084 13.4839 10.1215 13.4051 9.98325 13.2668C9.84495 13.1285 9.76614 12.9416 9.76364 12.746C9.76113 12.5505 9.83513 12.3616 9.96984 12.2198L12.4392 9.75H5.25V14.625C5.25 16.1273 6.83391 17.25 8.25 17.25H15.375C16.071 17.2493 16.7382 16.9725 17.2303 16.4803C17.7225 15.9882 17.9993 15.321 18 14.625V3.375C17.9993 2.67904 17.7225 2.01179 17.2303 1.51967C16.7382 1.02755 16.071 0.750744 15.375 0.75ZM0.75 8.25C0.551088 8.25 0.360322 8.32902 0.21967 8.46967C0.0790178 8.61032 0 8.80109 0 9C0 9.19891 0.0790178 9.38968 0.21967 9.53033C0.360322 9.67098 0.551088 9.75 0.75 9.75H5.25V8.25H0.75Z" fill="#313338"/>
</svg>
