<svg width="13" height="18" viewBox="0 0 13 18" fill="none" xmlns="http://www.w3.org/2000/svg">
<path d="M6.25 0.25C2.79961 0.25 0 2.76992 0 5.875C0 10.875 6.25 17.75 6.25 17.75C6.25 17.75 12.5 10.875 12.5 5.875C12.5 2.76992 9.70039 0.25 6.25 0.25ZM6.25 9C5.75555 9 5.2722 8.85338 4.86107 8.57867C4.44995 8.30397 4.12952 7.91352 3.9403 7.45671C3.75108 6.99989 3.70157 6.49723 3.79804 6.01227C3.8945 5.52732 4.1326 5.08186 4.48223 4.73223C4.83186 4.3826 5.27732 4.1445 5.76227 4.04804C6.24723 3.95157 6.74989 4.00108 7.20671 4.1903C7.66352 4.37952 8.05397 4.69995 8.32867 5.11107C8.60338 5.5222 8.75 6.00555 8.75 6.5C8.74928 7.16282 8.48565 7.79828 8.01697 8.26697C7.54828 8.73565 6.91282 8.99928 6.25 9Z" fill="#313338"/>
</svg>
