<svg width="100" height="101" viewBox="0 0 100 101" fill="none" xmlns="http://www.w3.org/2000/svg">
<g clip-path="url(#clip0_653_567)">
<path d="M97.3162 47.1275C92.8391 37.7509 76.7257 14.4783 73.1989 9.32536C69.6721 4.15131 62.8085 8.1216 35.7979 25.0587C6.10528 43.6852 6.18975 41.9324 10.2867 49.0916C13.3912 54.4768 22.2398 67.6125 28.9978 77.2426C30.7506 79.7346 32.3556 81.9942 33.6861 83.8104C33.7706 83.9371 33.855 84.0427 33.9395 84.1483C34.9954 84.2962 36.0091 84.5073 37.0017 84.9086C37.1918 84.9931 37.2762 85.1409 37.2762 85.3099C40.4863 85.9223 43.6118 86.9571 46.5473 88.372C46.8852 88.2031 47.2231 88.013 47.6032 87.8018C52.2493 85.2043 59.324 80.6004 70.6435 73.3356C102.997 52.555 101.793 56.483 97.3162 47.1275Z" fill="#EAEBEB"/>
<path d="M44.6463 29.2614C25.9353 40.3064 26.8223 40.1163 29.5888 44.2133C32.1653 48.0358 32.3131 47.5078 45.2799 40.0107C64.4766 28.9235 65.4903 27.9732 62.9983 24.3197C60.7809 21.0252 60.443 19.927 44.6463 29.2614Z" fill="white"/>
<path d="M65.2582 21.5531C64.7302 24.742 69.6931 24.9954 69.9887 22.1655C70.3688 18.7443 65.7439 18.5542 65.2582 21.5531Z" fill="#FFD699"/>
<path d="M85.2997 38.9759C83.1034 40.4119 83.6947 40.6654 87.0526 45.2058C89.9458 49.1339 89.8402 49.8519 91.4875 48.6059C93.1347 47.3599 94.0006 47.4867 90.9806 43.7064C86.8203 38.469 86.4613 38.2367 85.2997 38.9759Z" fill="white"/>
<path d="M53.3896 4.44716C50.2218 6.17888 50.5175 5.75651 51.8057 8.10066C53.0939 10.4448 53.3896 9.60008 55.5226 8.56527C57.6556 7.53046 57.022 6.91803 56.135 5.46085C54.9735 3.5813 54.889 3.64465 53.3896 4.44716Z" fill="white"/>
<path d="M53.2628 10.0857C53.1572 10.0857 53.0305 10.0646 52.9249 10.0434C52.3335 9.87449 51.8901 9.26206 51.3832 8.33284C51.2354 8.07942 51.1087 7.84711 51.0031 7.65705C50.5807 6.9179 50.3273 6.47441 50.454 5.96756C50.6018 5.41848 51.1509 5.12282 52.4391 4.42591C52.6503 4.2992 52.9037 4.17249 53.1572 4.02466L53.3895 4.44703L53.1572 4.02466C54.9311 3.05321 55.2901 3.1588 56.5361 5.2073L56.7473 5.52407C57.2119 6.28434 57.5921 6.87566 57.402 7.53033C57.2542 8.07942 56.7473 8.52291 55.7336 9.00863C55.3535 9.1987 55.0367 9.36765 54.7411 9.5366C54.1709 9.83226 53.7274 10.0857 53.2628 10.0857ZM54.6777 4.40479C54.4876 4.40479 54.1075 4.61598 53.6218 4.89052C53.3472 5.03835 53.1149 5.16506 52.9037 5.29177C52.1435 5.69302 51.4254 6.09428 51.3832 6.24211C51.3621 6.3477 51.6155 6.81231 51.8267 7.17132C51.9534 7.38251 52.0801 7.61481 52.228 7.86823C52.3758 8.14277 52.8615 9.00863 53.1783 9.11422C53.3895 9.17758 53.7696 8.94528 54.2764 8.67074C54.5721 8.50179 54.91 8.31172 55.3113 8.12165C56.1771 7.69928 56.4094 7.42474 56.4728 7.2558C56.5361 7.00237 56.2827 6.58 55.9237 6.03092L55.7125 5.69302C55.3957 5.18618 54.9522 4.46815 54.7199 4.38367C54.7199 4.40479 54.6988 4.40479 54.6777 4.40479Z" fill="#313338"/>
<path d="M53.453 6.91801C50.2852 8.64973 50.5808 8.22736 51.8691 10.5715C53.1573 12.9157 53.453 12.0709 55.5859 11.0361C57.7189 10.0013 57.0854 9.38888 56.1984 7.9317C55.0157 6.05215 54.9313 6.11551 53.453 6.91801Z" fill="white"/>
<path d="M53.3261 12.5777C53.2205 12.5777 53.0938 12.5565 52.9882 12.5354C52.3969 12.3665 51.9534 11.754 51.4466 10.8248C51.2987 10.5714 51.172 10.3391 51.0664 10.149C50.6441 9.40987 50.3906 8.96638 50.5173 8.45954C50.6652 7.91046 51.2143 7.6148 52.5025 6.91789C52.7137 6.79117 52.9671 6.66446 53.2205 6.51663C54.9945 5.54518 55.3535 5.65077 56.5995 7.69927L56.8107 8.01605C57.2753 8.77632 57.6554 9.36763 57.4654 10.0223C57.3175 10.5714 56.8107 11.0149 55.797 11.5006C55.4169 11.6907 55.1001 11.8596 54.8044 12.0286C54.2342 12.3242 53.7696 12.5777 53.3261 12.5777ZM53.6851 7.36138C53.4106 7.50921 53.1783 7.63592 52.946 7.76263C52.1857 8.16388 51.4677 8.56513 51.4254 8.71296C51.4043 8.81855 51.6577 9.28316 51.8689 9.64217C51.9956 9.85336 52.1224 10.0857 52.2702 10.3391C52.418 10.6136 52.9037 11.4795 53.2205 11.5851C53.4317 11.6484 53.8118 11.4161 54.3187 11.1416C54.6143 10.9726 54.9522 10.7826 55.3535 10.5925C56.2194 10.1701 56.4517 9.8956 56.515 9.72665C56.5784 9.47323 56.3249 9.05086 55.9659 8.50178L55.7547 8.16388C55.438 7.65703 54.9945 6.939 54.7622 6.85453C54.6355 6.83341 54.2131 7.06572 53.6851 7.36138Z" fill="#313338"/>
<path d="M49.567 10.4449L46.357 12.1978C45.8079 12.4934 46.2726 13.3593 46.8216 13.0425L50.0317 11.2897C50.5807 10.994 50.1161 10.1493 49.567 10.4449Z" fill="#313338"/>
<path d="M63.6109 4.74271L58.0356 2.94763C57.4443 2.75757 57.1698 3.68679 57.7611 3.87685L63.3364 5.67193C63.9277 5.86199 64.2022 4.93278 63.6109 4.74271Z" fill="#313338"/>
<path d="M60.3585 1.17358C60.0839 3.1376 59.8305 5.08051 59.556 7.04453C59.4715 7.65697 60.443 7.67809 60.5274 7.06565C60.802 5.10163 61.0554 3.15872 61.3299 1.1947C61.4355 0.561142 60.443 0.561142 60.3585 1.17358Z" fill="#313338"/>
<path d="M33.4113 43.7276C32.5877 42.5238 31.7641 41.3201 30.9404 40.0952C30.5814 39.5884 29.7367 40.0741 30.0957 40.5809C30.9193 41.7847 31.7429 42.9884 32.5666 44.2133C32.9256 44.7413 33.7703 44.2555 33.4113 43.7276Z" fill="#EAEBEB"/>
<path d="M66.3772 51.3936C70.9177 51.8582 74.9936 56.2086 82.5329 64.9094C90.0511 73.5891 91.276 74.3283 86.1231 77.834C72.8395 86.8516 75.1625 89.2169 69.8618 81.5719C62.6815 71.2027 57.1062 67.3592 57.1062 67.3592L66.3772 51.3936Z" fill="#FFD699"/>
<path d="M73.9589 76.3979C71.9949 73.7158 71.1713 70.5481 71.5092 67.2324C71.5725 66.5989 70.601 66.5778 70.5377 67.2113C70.1576 70.7804 71.129 74.1804 73.2409 77.0737C73.621 77.5805 74.339 76.9047 73.9589 76.3979Z" fill="#313338"/>
<path d="M78.1829 91.1386C76.3878 88.8578 74.6138 86.5981 72.8188 84.3173C72.4386 83.8316 71.7417 84.5285 72.1219 85.0142C73.9169 87.295 75.6909 89.5547 77.486 91.8355C77.8661 92.3212 78.563 91.6243 78.1829 91.1386Z" fill="#313338"/>
<path d="M94.0005 80.4104C92.3532 78.0029 90.706 75.5742 89.0376 73.1667C88.6786 72.6599 87.8339 73.1456 88.1929 73.6525C89.8401 76.06 91.4874 78.4886 93.1557 80.8961C93.5147 81.403 94.3595 80.9172 94.0005 80.4104Z" fill="#313338"/>
<path d="M90.8961 77.9606C85.8699 81.3818 80.8436 84.803 75.8174 88.2242C75.3106 88.5833 75.7963 89.428 76.3031 89.069C81.3294 85.6478 86.3556 82.2266 91.3818 78.8054C91.8886 78.4464 91.4029 77.6016 90.8961 77.9606Z" fill="#313338"/>
<path d="M92.7123 81.3184C87.8761 84.4651 82.6598 88.1186 77.8448 91.2652C77.3169 91.6031 77.8026 92.4479 78.3305 92.11C83.1667 88.9633 88.383 85.3098 93.198 82.1631C93.7259 81.8252 93.2402 80.9805 92.7123 81.3184Z" fill="#313338"/>
<path d="M68.5738 68.415C66.7365 68.415 65.3638 66.5143 61.3513 60.8334C59.9152 58.8272 58.1624 56.3352 55.9027 53.2941C54.0654 54.0121 51.9958 54.3923 49.9262 54.3923C45.4913 54.3923 41.352 52.6605 38.8812 49.7462C36.6004 47.043 35.7345 43.474 36.4314 39.3981C37.8464 30.9507 44.6676 27.1705 50.8131 27.1705C54.7834 27.1705 58.4369 28.7332 60.8656 31.4364C63.442 34.3085 64.5191 38.2788 64.0122 42.946C63.7377 45.3958 62.8718 47.571 61.4146 49.3661C62.2805 50.2742 63.2097 51.5413 64.2023 52.8717C65.0048 53.9488 65.8073 55.0469 66.5887 55.955C70.9391 61.0446 72.8398 63.6211 72.5019 65.4795C72.2907 66.6199 71.277 67.3168 70.3267 67.8659C69.6509 68.246 69.1229 68.415 68.5738 68.415Z" fill="white"/>
<path d="M50.8342 27.6564C57.8666 27.6564 64.6668 32.7249 63.5475 42.8829C63.2941 45.2482 62.4494 47.2122 61.2456 48.8172C61.1189 48.965 61.0767 49.1551 61.0555 49.3452C61.0555 49.5563 61.1189 49.7675 61.2878 49.9365C62.7873 51.5837 64.5823 54.3502 66.2296 56.272C72.8186 63.9592 73.4099 65.6064 70.0943 67.4437C69.5241 67.7605 69.0383 67.9295 68.5737 67.9295C66.3985 67.9295 64.519 64.1704 56.4728 53.2521C56.3884 53.1254 56.2616 53.0409 56.1138 52.9775C55.9237 52.8931 55.6914 52.872 55.4591 52.9564C53.7063 53.6111 51.8056 53.9279 49.9261 53.9279C42.5768 53.9279 35.3121 49.0706 36.9171 39.4828C38.2475 31.5845 44.6253 27.6564 50.8342 27.6564ZM50.8342 26.685C44.4775 26.685 37.4239 30.5919 35.9667 39.3138C35.2698 43.5376 36.1568 47.2544 38.5432 50.0632C41.0985 53.0831 45.3645 54.8782 49.9472 54.8782C51.9535 54.8782 53.9386 54.5403 55.7337 53.8856C57.8666 56.7789 59.5773 59.1653 60.95 61.1082C65.0892 66.9158 66.483 68.8798 68.5737 68.8798C69.1862 68.8798 69.8197 68.6897 70.58 68.2674C71.6359 67.676 72.7552 66.8947 73.0086 65.5431C73.3676 63.4735 71.5303 60.9181 66.9899 55.6174C66.2296 54.7304 65.406 53.6322 64.6246 52.5552C63.801 51.4359 62.9984 50.38 62.2593 49.5141C62.2171 49.4507 62.1748 49.3874 62.1748 49.324C62.1748 49.2607 62.1959 49.1762 62.2382 49.1128C63.5053 47.3389 64.2867 45.2904 64.5401 42.9674C65.0681 38.1735 63.9277 34.0553 61.2667 31.0776C58.7325 28.29 54.9312 26.685 50.8342 26.685Z" fill="#313338"/>
<path d="M50.0528 51.0346C46.716 51.0346 43.6116 49.7252 41.7532 47.5289C40.0215 45.5015 39.3879 42.7983 39.8948 39.7362C40.9507 33.3795 46.0825 30.5496 50.7074 30.5496C53.6852 30.5496 56.4517 31.7111 58.2679 33.7596C60.2108 35.9137 61.0344 38.9125 60.6332 42.3971C59.9785 48.3314 54.6988 51.0346 50.0528 51.0346Z" fill="white"/>
<path d="M50.7075 31.0353C55.9449 31.0353 60.9922 34.8155 60.1686 42.3548C59.5562 47.8456 54.7834 50.5488 50.0528 50.5488C44.5831 50.5488 39.1979 46.9375 40.3805 39.8206C41.352 33.9496 46.0825 31.0353 50.7075 31.0353ZM50.7075 30.0427C45.8925 30.0427 40.5284 33.0204 39.4302 39.6516C38.9022 42.8616 39.578 45.6915 41.3942 47.8456C43.3794 50.1898 46.526 51.5202 50.0528 51.5202C54.9101 51.5202 60.4431 48.6904 61.1401 42.4604C61.5413 38.828 60.6755 35.7025 58.6481 33.4428C56.7052 31.2887 53.8119 30.0427 50.7075 30.0427Z" fill="#313338"/>
<path d="M50.1375 35.9348C49.8207 39.0604 49.5039 42.207 49.1872 45.3326C49.1238 45.9661 50.0953 45.9873 50.1586 45.3537C50.4754 42.2282 50.7922 39.0815 51.109 35.956C51.1723 35.3435 50.2009 35.3013 50.1375 35.9348Z" fill="#EAEBEB"/>
<path d="M53.7486 34.7523L53.5586 40.6021C53.5374 41.2357 54.5089 41.2568 54.53 40.6232L54.7201 34.7734C54.7412 34.1398 53.7698 34.1187 53.7486 34.7523Z" fill="#EAEBEB"/>
<path d="M55.8393 53.5475C64.2445 52.5761 67.6235 53.0407 67.6657 55.596C67.7079 59.0172 65.6806 58.6371 65.6806 58.6371C65.6806 58.6371 68.1092 58.0035 68.4682 60.9813C68.785 63.5366 66.4831 64.0223 66.4831 64.0223C66.4831 64.0223 68.9328 63.1987 69.0595 66.5354C69.1862 69.9144 59.4084 72.6387 57.3599 70.5691C55.1424 68.3094 55.7126 66.0286 55.7126 66.0286C55.7126 66.0286 53.0094 65.2683 54.1287 60.1576C54.1287 60.1365 51.2777 54.0755 55.8393 53.5475Z" fill="#FFD699"/>
<path d="M66.3775 51.3936C56.6418 50.76 57.571 52.0905 57.4866 55.0048C57.4021 57.9192 71.9739 59.3552 71.0869 56.7365C70.1999 54.1178 66.3775 51.3936 66.3775 51.3936Z" fill="#FFD699"/>
<path d="M66.9898 56.9057C63.9699 57.138 59.6617 57.2647 58.6057 53.6323C58.4368 53.041 57.4865 53.2522 57.6554 53.8646C58.838 57.9616 63.3997 58.1517 66.9476 57.8771C67.56 57.8349 67.6022 56.8635 66.9898 56.9057Z" fill="#313338"/>
<path d="M68.4894 68.225C65.9974 69.7667 63.2731 70.4847 60.3588 70.3369C59.7252 70.3157 59.7041 71.2872 60.3377 71.3083C63.421 71.4561 66.3565 70.717 68.9752 69.0697C69.482 68.753 69.0174 67.8871 68.4894 68.225Z" fill="#313338"/>
<path d="M66.293 63.3255C63.0196 64.1703 59.704 64.8249 56.3461 65.3107C55.7337 65.3951 55.966 66.3455 56.5784 66.261C59.9363 65.7964 63.2308 65.1206 66.5253 64.2758C67.1166 64.1069 66.9054 63.1566 66.293 63.3255Z" fill="#313338"/>
<path d="M64.35 58.3205C61.1188 58.8485 57.9088 59.3764 54.6777 59.9044C54.0652 60.01 54.2975 60.9603 54.91 60.8547C58.1411 60.3268 61.3511 59.7988 64.5823 59.2708C65.2158 59.1652 64.9835 58.2149 64.35 58.3205Z" fill="#313338"/>
<path d="M68.9327 66.5354C68.5315 65.5851 67.3911 65.0571 66.3985 65.4162C65.4059 65.7752 64.8991 66.9156 65.1736 67.9081C65.3426 68.4995 66.2929 68.2883 66.124 67.6758C65.7438 66.3454 67.5389 65.7541 68.0669 67.0001C68.3203 67.5914 69.1862 67.1056 68.9327 66.5354Z" fill="#313338"/>
<path d="M67.6867 61.0025C67.2221 59.8833 65.8071 59.2708 64.6667 59.7777C63.5052 60.3056 63.0828 61.7206 63.5686 62.8398C63.822 63.41 64.6667 62.9454 64.4344 62.3752C64.1599 61.7206 64.4978 60.8547 65.1736 60.6224C65.8705 60.3901 66.5674 60.8336 66.8419 61.4671C67.0743 62.0373 67.919 61.5727 67.6867 61.0025Z" fill="#313338"/>
<path d="M62.5761 52.8085C62.2382 54.2234 60.232 53.9911 60.2953 52.5128C60.3164 51.8793 59.345 51.8582 59.3239 52.4917C59.2816 53.5688 60.0208 54.6036 61.1189 54.7725C62.2171 54.9415 63.2519 54.1601 63.5053 53.1253C63.6532 52.4917 62.7239 52.1961 62.5761 52.8085Z" fill="#313338"/>
<path d="M80.0411 33.7173C76.8945 35.2378 73.7689 36.7584 70.6223 38.2789C70.0521 38.5534 70.5167 39.4193 71.0869 39.1448L80.5057 34.5831C81.0759 34.3086 80.5902 33.4427 80.0411 33.7173Z" fill="white"/>
<path d="M78.9642 43.6219C76.8524 43.4952 74.7405 43.3685 72.6287 43.2418C71.9951 43.1996 71.974 44.171 72.6076 44.2133C74.7194 44.34 76.8313 44.4667 78.9431 44.5934C79.5556 44.6356 79.5978 43.6642 78.9642 43.6219Z" fill="white"/>
<path d="M45.6178 57.2645C44.8364 59.1018 44.0339 60.9602 43.2526 62.7976C42.9991 63.3678 43.9495 63.6634 44.1818 63.0932C44.9632 61.2559 45.7657 59.3975 46.5471 57.5602C46.8005 56.9688 45.8713 56.6943 45.6178 57.2645Z" fill="white"/>
<path d="M26.4211 45.7761C32.7144 54.5614 46.1458 69.3021 40.1693 76.6514C34.1927 84.0006 23.6335 85.5211 14.827 77.0526C6.02062 68.5841 2.76836 61.7839 10.5822 54.139C18.3961 46.4941 26.4211 45.7761 26.4211 45.7761Z" fill="#FFD699"/>
<path d="M31.743 54.9416C30.5393 54.7726 30.2647 56.6311 31.4685 56.8C32.6722 56.969 32.9468 55.1105 31.743 54.9416Z" fill="#313338"/>
<path d="M33.8549 84.571C34.2562 84.4865 34.6785 84.4443 35.0798 84.4865L35.2276 83.9797L37.6562 75.8491L28.9976 77.2218L19.7688 78.7001C19.0086 81.5299 18.3117 83.9163 17.6992 85.8592C17.5725 86.2605 17.4458 86.6617 17.3402 87.0208C21.3527 85.5002 25.6187 84.6555 29.9691 84.6133C31.194 84.5921 32.3977 84.6555 33.6015 84.7611C33.6437 84.6766 33.7282 84.5921 33.8549 84.571Z" fill="#FFD699"/>
<path d="M11.3846 50.8869C4.14093 57.6871 -2.32135 68.014 4.49994 75.7856C11.3212 83.5573 26.1676 86.8729 25.2383 78.0664C24.288 69.26 19.1984 61.066 19.1984 61.066C19.1984 61.066 31.9118 49.8521 28.8496 46.093C25.7874 42.3128 16.4108 46.1563 11.3846 50.8869Z" fill="#313338"/>
<path d="M20.2122 62.291C11.9338 67.2328 12.8841 73.6739 15.8618 76.2926C18.8606 78.9113 26.0198 74.0118 26.0198 74.0118L20.2122 62.291Z" fill="#FFD699"/>
<path d="M23.1055 69.809C21.1837 69.4499 19.3042 69.7245 17.5725 70.6326C17.0234 70.9282 17.488 71.773 18.0371 71.4984C19.5154 70.717 21.1626 70.4425 22.8099 70.7382C23.4434 70.8438 23.718 69.9145 23.1055 69.809Z" fill="#313338"/>
<path d="M36.8749 59.9254C36.8116 59.6931 36.5159 59.4819 36.2836 59.5875C35.8823 59.7564 35.4811 59.9042 35.0587 60.0732C34.8053 60.1788 34.6364 60.39 34.7208 60.6645C34.7842 60.8968 35.0798 61.108 35.3121 61.0024C35.7134 60.8335 36.1146 60.6856 36.537 60.5167C36.7904 60.4111 36.9594 60.1999 36.8749 59.9254Z" fill="#313338"/>
<path d="M10.2234 90.3363C10.2234 89.7027 9.2308 89.7027 9.25192 90.3363C9.29416 93.5885 9.33639 96.8408 9.37863 100.072C9.37863 100.705 10.3712 100.705 10.3501 100.072C10.2867 96.8408 10.2656 93.5885 10.2234 90.3363Z" fill="#313338"/>
<path d="M42.3656 86.1127C42.3445 85.4791 41.373 85.4791 41.3941 86.1127L41.8376 99.2695C41.8587 99.9031 42.8302 99.9031 42.8091 99.2695L42.3656 86.1127Z" fill="#313338"/>
<path d="M49.9685 90.1884L49.4828 99.4383C49.4405 100.072 50.4331 100.072 50.4542 99.4383L50.9399 90.1884C50.9822 89.5548 50.0107 89.5548 49.9685 90.1884Z" fill="#313338"/>
<path d="M58.6904 97.4109C55.2692 93.6096 51.13 90.5051 46.5472 88.3299C42.8937 86.5771 38.9868 85.4156 34.9532 84.9087C34.7842 84.8876 34.6364 84.8665 34.4674 84.8454C32.968 84.6764 31.4686 84.592 29.9481 84.6131C25.5977 84.6764 21.3317 85.5001 17.3192 87.0206C11.2582 89.3225 5.78847 93.145 1.52252 98.1289C1.12127 98.6147 0.42436 97.9177 0.825612 97.432C5.32386 92.1735 11.1948 88.161 17.6571 85.8591C21.564 84.4652 25.7032 83.6839 29.9058 83.6416C31.1518 83.6205 32.3978 83.6839 33.6438 83.7895C34.1507 83.8317 34.6786 83.895 35.1855 83.9584C39.4936 84.5286 43.6751 85.8168 47.5609 87.7597C51.9958 89.9772 56.0083 93.0183 59.3451 96.714C59.8097 97.1997 59.1128 97.8966 58.6904 97.4109Z" fill="#313338"/>
<path d="M22.1974 85.1411C22.1763 84.5075 21.2048 84.5075 21.2259 85.1411C21.3949 89.8505 21.5427 94.5599 21.7117 99.2694C21.7328 99.9029 22.7042 99.9029 22.6831 99.2694C22.5142 94.5599 22.3663 89.8505 22.1974 85.1411Z" fill="#313338"/>
<path d="M32.0387 84.1697C32.0387 83.5362 31.0461 83.5362 31.0672 84.1697C31.1517 89.196 31.2151 94.2433 31.2995 99.2695C31.2995 99.9031 32.2921 99.9031 32.271 99.2695C32.1865 94.2433 32.102 89.196 32.0387 84.1697Z" fill="#313338"/>
</g>
<defs>
<clipPath id="clip0_653_567">
<rect width="100" height="100.794" fill="white"/>
</clipPath>
</defs>
</svg>
