<svg width="200" height="188" viewBox="0 0 200 188" fill="none" xmlns="http://www.w3.org/2000/svg">
<path d="M151.614 15.3894C151.221 15.3894 150.828 15.3894 150.435 15.3403C149.305 15.2912 148.274 15.2912 147.39 15.2912C145.13 15.2912 143.509 15.3403 142.33 14.1123C141.102 12.9335 140.906 10.8705 140.906 8.0217C140.906 7.1867 140.906 6.49905 140.857 5.86052C140.808 3.55198 140.759 2.12756 141.79 1.09608C142.92 -0.0336321 144.59 -0.0336306 148.568 0.0154873C149.256 0.0154873 149.993 0.0154873 150.828 0.0154873C156.378 0.0154873 157.066 0.752257 157.36 7.28494L157.41 8.31642C157.557 10.7232 157.655 12.6388 156.329 14.0141C155.396 14.9473 153.922 15.3894 151.614 15.3894ZM148.175 12.6388C148.863 12.6388 149.649 12.6388 150.533 12.6879C153.136 12.8353 154.119 12.4423 154.413 12.1476C154.905 11.6564 154.806 10.2811 154.708 8.51288L154.659 7.48141C154.561 5.8114 154.463 3.55197 154.02 3.0608C153.726 2.71697 152.4 2.71697 150.779 2.71697C149.944 2.71697 149.207 2.71697 148.519 2.71697C146.162 2.71697 143.951 2.66786 143.607 3.01168C143.411 3.20815 143.411 4.68169 143.46 5.8114C143.46 6.44993 143.509 7.1867 143.509 8.0217C143.509 8.90583 143.509 11.6073 144.148 12.2458C144.541 12.6388 145.769 12.6388 147.34 12.6388C147.635 12.6388 147.881 12.6388 148.175 12.6388Z" fill="#EAEBEB"/>
<path d="M50.6266 38.6228C46.2551 38.6228 41.3925 36.5598 40.6557 36.216C40.2136 36.0195 39.8698 35.5775 39.8698 35.0372C39.3295 22.3647 39.6733 20.5474 46.4025 20.1544C47.0901 20.1053 47.876 20.0562 48.711 20.0071C51.9528 19.7124 53.8193 20.0562 55.0964 21.1368C56.8646 22.6595 57.012 25.2136 57.3067 29.143C57.3558 29.8798 57.4049 30.6657 57.5031 31.5007C57.6996 34.153 56.9628 36.1178 55.2928 37.3457C53.9666 38.2789 52.3458 38.6228 50.6266 38.6228ZM42.4731 34.0548C45.9604 35.4301 51.4616 36.8054 53.721 35.1845C54.0649 34.9389 55.0472 34.2513 54.8508 31.6971C54.8017 30.813 54.7034 30.0271 54.6543 29.2904C54.4087 26.0486 54.3105 23.8874 53.3772 23.1015C52.7387 22.5612 51.3143 22.3647 48.9566 22.6103C48.0725 22.7086 47.2375 22.7577 46.5498 22.7577C42.2275 23.0524 41.9819 23.0524 42.4731 34.0548Z" fill="#313338"/>
<path d="M74.1047 38.6215C66.3441 38.6215 57.4046 36.4604 55.9311 36.1165C55.3908 35.9692 54.9487 35.478 54.9487 34.9377C54.3593 27.2753 54.4085 23.4441 56.3732 21.2829C58.2397 19.22 61.2358 19.1217 66.2459 18.9744C67.572 18.9253 69.0456 18.8762 70.7156 18.827C83.7318 18.1394 84.7142 20.7917 85.6474 28.5033C85.7457 29.2891 85.8439 30.1241 85.9913 31.0574C86.286 33.1203 85.6966 34.8395 84.2721 36.1165C82.1601 37.983 78.3289 38.6215 74.1047 38.6215ZM57.552 33.7589C63.9373 35.2324 78.5253 37.7374 82.5039 34.1518C83.2407 33.4642 83.5354 32.6292 83.3389 31.4503C83.1915 30.5171 83.0933 29.633 82.9951 28.8471C82.2092 22.2653 82.0618 20.9391 70.8138 21.4794C69.1438 21.5776 67.6212 21.6268 66.295 21.6268C61.9726 21.7741 59.4185 21.8232 58.3379 23.0512C57.1591 24.3774 57.1099 27.8647 57.552 33.7589Z" fill="#313338"/>
<path d="M74.8905 137.595C42.571 137.595 38.2486 136.809 37.8557 136.711C37.2662 136.564 36.8733 136.072 36.8242 135.483C36.8242 135.237 35.498 109.058 34.1718 66.2758L34.0736 62.7394C33.3368 39.8504 33.0912 32.9248 50.2825 31.5986C53.0822 31.4021 56.6187 31.3039 61.6778 31.3039C64.4776 31.3039 67.5229 31.353 70.912 31.353C75.0379 31.4021 79.655 31.4513 84.8124 31.4513C94.2921 31.4513 103.281 31.3039 112.269 31.0092C115.069 30.911 117.77 30.8127 120.325 30.7145L121.798 30.6654C124.303 30.5671 126.661 30.4689 128.871 30.3707C135.797 30.076 141.74 29.7812 146.652 29.7812C155.493 29.7812 162.222 30.6163 166.299 34.693C172.242 40.6363 172.193 52.8667 172.193 77.18V83.5653C172.193 133.469 169.393 137.497 134.471 137.497C131.769 137.497 128.822 137.497 125.678 137.448C122.044 137.399 118.114 137.399 113.89 137.399C111.287 137.399 108.536 137.399 105.687 137.448C94.1939 137.497 83.83 137.595 74.8905 137.595Z" fill="white"/>
<path d="M146.652 31.0586C172.144 31.0586 170.818 38.3281 170.818 83.5165C170.818 132.536 168.608 136.122 134.422 136.122C128.577 136.122 121.75 136.024 113.842 136.024C111.238 136.024 108.488 136.024 105.639 136.073C93.2612 136.22 83.1429 136.269 74.8911 136.269C41.7856 136.269 38.1509 135.434 38.1509 135.434C38.1509 135.434 36.8247 109.5 35.4985 66.2761C34.7126 40.2928 33.6811 34.2513 50.3321 32.9742C53.4265 32.7286 57.1595 32.6795 61.6292 32.6795C67.8181 32.6795 75.4314 32.8269 84.7638 32.8269C92.6226 32.8269 101.759 32.7286 112.27 32.3848C115.659 32.2866 118.802 32.1392 121.799 32.041C132.113 31.5007 140.218 31.0586 146.652 31.0586ZM146.652 28.4062C141.741 28.4062 135.748 28.701 128.823 28.9957C126.563 29.0939 124.205 29.1921 121.75 29.2904L120.374 29.3395C117.82 29.4377 115.119 29.536 112.27 29.6342C103.281 29.9289 94.3418 30.0763 84.862 30.0763C79.7537 30.0763 75.0875 30.0271 70.9616 29.978C67.5725 29.9289 64.4781 29.9289 61.7275 29.9289C56.521 29.9289 53.0827 30.0271 50.2339 30.2236C31.8147 31.648 32.0603 40.0963 32.797 62.7397L32.8953 66.2761C34.2214 109.058 35.5476 135.238 35.5476 135.483C35.5967 136.662 36.4317 137.644 37.6106 137.939C38.2491 138.087 43.1118 138.872 74.9402 138.872C83.8796 138.872 94.2435 138.823 105.737 138.676C108.586 138.627 111.287 138.627 113.891 138.627C118.115 138.627 121.946 138.676 125.679 138.676C128.823 138.676 131.72 138.725 134.471 138.725C150.778 138.725 161.879 138.087 167.675 129.638C173.127 121.681 173.52 106.897 173.52 83.4674C173.52 81.2571 173.52 79.145 173.52 77.0821C173.569 51.5899 173.569 39.949 167.233 33.6127C162.861 29.2904 155.837 28.4062 146.652 28.4062Z" fill="#313338"/>
<path d="M115.315 55.9106C111.975 55.7633 56.8155 57.5807 53.4755 56.2545C50.5284 55.0756 50.1846 47.708 50.381 32.9235C61.4817 32.0885 80.343 33.3655 112.319 32.3341C115.708 32.2358 118.851 32.0885 121.848 31.9902C122.29 51.2936 123.96 56.2545 115.315 55.9106Z" fill="#EAEBEB"/>
<path d="M77.1023 24.6719C72.6816 24.721 68.261 24.8192 63.7913 24.8684C62.0722 24.8684 62.0722 27.5698 63.7913 27.5207C68.2119 27.4716 72.6325 27.3734 77.1023 27.3242C78.7723 27.3242 78.7723 24.6719 77.1023 24.6719Z" fill="#313338"/>
<path d="M50.4789 24.623C49.0545 24.7212 47.581 24.8195 46.1565 24.9177C44.4374 25.0159 44.4374 27.7174 46.1565 27.5701C47.581 27.4718 49.0545 27.3736 50.4789 27.2754C52.1489 27.1771 52.198 24.4756 50.4789 24.623Z" fill="#313338"/>
<path d="M147.635 7.38244C137.811 7.38244 139.039 6.69479 139.039 14.0134C139.039 21.3319 140.906 19.6619 147.34 20.0057C153.775 20.3496 153.087 17.9919 152.891 13.3748C152.547 7.38244 152.252 7.38244 147.635 7.38244Z" fill="white"/>
<path d="M148.469 21.3816C148.076 21.3816 147.683 21.3816 147.29 21.3325C146.161 21.2833 145.129 21.2833 144.245 21.2833C141.986 21.2833 140.365 21.2833 139.186 20.1045C137.958 18.9257 137.761 16.8627 137.761 14.0139C137.761 13.1789 137.761 12.4912 137.712 11.8527C137.663 9.54417 137.614 8.11975 138.646 7.08827C139.775 5.95856 141.445 5.95856 145.424 6.00767C146.112 6.00767 146.848 6.00767 147.683 6.00767C153.234 6.00767 153.921 6.74444 154.216 13.2771L154.265 14.3086C154.412 16.7154 154.511 18.631 153.184 20.0063C152.251 20.9395 150.778 21.3816 148.469 21.3816ZM145.08 18.631C145.768 18.631 146.554 18.631 147.438 18.6801C150.041 18.8274 151.023 18.4345 151.318 18.1398C151.809 17.6486 151.711 16.2733 151.613 14.5051L151.564 13.4736C151.465 11.8036 151.367 9.54417 150.925 9.05299C150.63 8.70916 149.304 8.70916 147.683 8.70916C146.848 8.70916 146.112 8.70916 145.424 8.70916C143.066 8.70916 140.856 8.66004 140.512 9.00387C140.316 9.20034 140.316 10.6739 140.365 11.8036C140.365 12.4421 140.414 13.1789 140.414 14.0139C140.414 14.898 140.414 17.5995 141.052 18.238C141.445 18.631 142.673 18.631 144.245 18.631C144.491 18.631 144.785 18.631 145.08 18.631Z" fill="#EAEBEB"/>
<path d="M133.735 10.7227H123.764C122.045 10.7227 122.045 13.375 123.764 13.375H133.735C135.405 13.375 135.454 10.7227 133.735 10.7227Z" fill="#EAEBEB"/>
<path d="M174.846 15.4879L163.844 3.84693C162.665 2.61898 160.798 4.48546 161.977 5.71341L172.931 17.3544C174.109 18.5823 176.025 16.7158 174.846 15.4879Z" fill="#EAEBEB"/>
<path d="M171.752 2.66846C168.559 6.99084 165.366 11.3132 162.125 15.6356C161.093 17.0109 163.402 18.3371 164.433 16.9618C167.626 12.6394 170.819 8.31702 174.06 3.99465C175.092 2.66846 172.783 1.34228 171.752 2.66846Z" fill="#EAEBEB"/>
<path d="M140.906 36.3137C136.338 35.8225 131.819 35.8225 127.251 36.3137C125.581 36.5102 125.532 39.1625 127.251 38.9661C131.819 38.4749 136.338 38.4749 140.906 38.9661C142.625 39.1625 142.625 36.4611 140.906 36.3137Z" fill="#EAEBEB"/>
<path d="M149.893 45.3516C142.231 45.4007 134.618 45.4007 126.955 45.4498C125.236 45.4498 125.236 48.1022 126.955 48.1022C134.618 48.053 142.231 48.053 149.893 48.0039C151.613 48.0039 151.613 45.3516 149.893 45.3516Z" fill="#EAEBEB"/>
<path d="M144.934 111.808C120.768 111.464 96.6018 111.12 72.4358 110.727C70.7167 110.678 70.7167 113.38 72.4358 113.38C96.6018 113.723 120.768 114.067 144.934 114.46C146.604 114.509 146.653 111.857 144.934 111.808Z" fill="#EAEBEB"/>
<path d="M133.293 120.502C113.351 119.569 93.4092 119.569 73.4183 120.404C71.6991 120.453 71.6991 123.154 73.4183 123.056C93.3601 122.221 113.302 122.221 133.293 123.154C134.963 123.203 134.963 120.551 133.293 120.502Z" fill="#EAEBEB"/>
<path d="M180.642 104.636C175.485 104.341 176.32 104.98 176.467 115.294C176.664 126.444 175.485 128.114 179.611 127.918C183.786 127.77 183.245 128.262 183.098 117.112C183 104.783 183.491 104.783 180.642 104.636Z" fill="#313338"/>
<path d="M102.544 72.7576C71.1084 72.9541 65.0177 63.0814 57.3553 64.9479C42.7182 68.4843 41.1955 80.1253 41.1955 88.7209C41.1464 108.024 48.9562 101.786 101.512 101.393C154.068 101 163.155 100.706 164.678 85.3318C166.151 70.007 154.461 72.4138 102.544 72.7576Z" fill="#313338"/>
<path d="M110.55 64.8023C53.9658 65.1953 49.2505 61.4623 49.2014 80.7657C49.1523 100.069 56.962 93.831 109.518 93.4381C162.074 93.0451 162.762 94.3713 164.285 78.9974C165.709 63.6726 162.418 64.4094 110.55 64.8023Z" fill="white"/>
<path d="M75.5257 76.7618L75.5468 78.9307C75.5472 78.9727 75.5715 78.9995 75.6196 79.011C75.8479 79.0388 76.07 79.0516 76.286 79.0495C76.772 79.0448 77.1399 78.9362 77.3899 78.7238C77.6458 78.5053 77.7718 78.198 77.7679 77.8021C77.7602 77.0041 77.2583 76.61 76.2624 76.6196C76.0464 76.6217 75.8245 76.6389 75.5968 76.6711C75.549 76.6836 75.5253 76.7138 75.5257 76.7618ZM74.8416 82.3127C74.7036 82.314 74.5831 82.2642 74.4801 82.1632C74.3832 82.0621 74.334 81.9426 74.3326 81.8046L74.2792 76.3059C74.2778 76.1619 74.3246 76.0324 74.4195 75.9175C74.5144 75.8026 74.6337 75.7384 74.7776 75.725C75.2871 75.6721 75.7789 75.6433 76.2528 75.6387C77.1528 75.6299 77.8295 75.8034 78.283 76.159C78.7364 76.5086 78.9664 77.0224 78.973 77.7004C78.9803 78.4503 78.7668 79.0194 78.3326 79.4077C77.9043 79.7958 77.2642 79.9941 76.4122 80.0023C76.2142 80.0043 75.9531 79.9948 75.6289 79.9739C75.5809 79.9744 75.5572 79.9986 75.5576 80.0466L75.5746 81.7926C75.5759 81.9306 75.5261 82.051 75.4251 82.154C75.3241 82.257 75.2046 82.3092 75.0666 82.3105L74.8416 82.3127ZM81.5286 82.3378C81.0007 82.3429 80.6153 82.2026 80.3725 81.917C80.1297 81.6253 80.0049 81.1315 79.9981 80.4355L79.9754 78.0956C79.974 77.9576 80.0239 77.8372 80.1249 77.7342C80.2259 77.6312 80.3454 77.579 80.4834 77.5777L80.6273 77.5763C80.7653 77.5749 80.8858 77.6248 80.9888 77.7258C81.0918 77.8268 81.144 77.9463 81.1453 78.0843L81.1668 80.2982C81.1709 80.7181 81.2307 81.0086 81.3463 81.1695C81.4619 81.3304 81.6546 81.4095 81.9246 81.4069C82.1706 81.4045 82.3976 81.2973 82.6055 81.0852C82.8195 80.8731 82.9253 80.6471 82.923 80.4071L82.9002 78.0672C82.8989 77.9292 82.9487 77.8087 83.0497 77.7058C83.1507 77.6028 83.2702 77.5506 83.4082 77.5493L83.5882 77.5475C83.7262 77.5462 83.8437 77.596 83.9407 77.6971C84.0437 77.7981 84.0958 77.9176 84.0972 78.0556L84.1327 81.7094C84.134 81.8474 84.0842 81.9679 83.9832 82.0709C83.8882 82.1738 83.7717 82.226 83.6337 82.2273L83.5167 82.2284C83.3727 82.2298 83.2492 82.183 83.1463 82.088C83.0493 81.987 82.9971 81.8645 82.9897 81.7205L82.9801 81.6576C82.98 81.6516 82.977 81.6486 82.971 81.6487C82.965 81.6488 82.959 81.6518 82.9531 81.6579C82.5494 82.1058 82.0746 82.3324 81.5286 82.3378ZM86.8322 79.2441L86.8441 80.468C86.8464 80.708 86.9505 80.92 87.1563 81.104C87.3621 81.288 87.606 81.3787 87.888 81.3759C88.206 81.3728 88.4567 81.2444 88.6403 80.9906C88.8238 80.7308 88.913 80.3459 88.9081 79.8359C88.8982 78.816 88.5482 78.3094 87.8583 78.3161C87.5763 78.3188 87.3342 78.4142 87.132 78.6021C86.9298 78.7901 86.8299 79.0041 86.8322 79.2441ZM86.1859 82.2025C86.0479 82.2038 85.9274 82.154 85.8245 82.053C85.7215 81.952 85.6693 81.8325 85.668 81.6945L85.6124 75.9708C85.611 75.8328 85.6609 75.7123 85.7619 75.6093C85.8629 75.5063 85.9824 75.4542 86.1204 75.4528L86.3004 75.4511C86.4383 75.4497 86.5588 75.4996 86.6618 75.6006C86.7648 75.7016 86.817 75.8211 86.8183 75.9591L86.838 77.984C86.838 77.99 86.8411 77.9929 86.8471 77.9929C86.8531 77.9928 86.859 77.9898 86.865 77.9837C87.2513 77.6079 87.6995 77.4176 88.2095 77.4126C88.7735 77.4071 89.2255 77.6158 89.5656 78.0385C89.9117 78.4551 90.0885 79.0504 90.096 79.8244C90.1033 80.5744 89.9321 81.1701 89.5823 81.6115C89.2326 82.0469 88.7907 82.2672 88.2567 82.2724C87.7107 82.2777 87.2376 82.0603 86.8373 81.6201C86.8312 81.6142 86.8252 81.6113 86.8192 81.6113C86.8132 81.6114 86.8102 81.6144 86.8103 81.6204L86.8019 81.6835C86.7973 81.8275 86.7445 81.9511 86.6435 82.0541C86.5484 82.151 86.4289 82.2001 86.2849 82.2015L86.1859 82.2025ZM92.1274 82.1448C91.9895 82.1461 91.869 82.0963 91.766 81.9953C91.663 81.8943 91.6108 81.7748 91.6095 81.6368L91.5539 75.9131C91.5525 75.7751 91.6024 75.6546 91.7034 75.5516C91.8044 75.4486 91.9239 75.3964 92.0619 75.3951L92.2959 75.3928C92.4339 75.3915 92.5543 75.4413 92.6573 75.5423C92.7603 75.6433 92.8125 75.7628 92.8138 75.9008L92.8694 81.6246C92.8708 81.7625 92.8209 81.883 92.7199 81.986C92.6189 82.089 92.4994 82.1412 92.3614 82.1425L92.1274 82.1448ZM95.2425 82.1145C95.1045 82.1159 94.9841 82.066 94.8811 81.965C94.7781 81.864 94.7259 81.7445 94.7246 81.6065L94.6891 77.9527C94.6877 77.8147 94.7376 77.6942 94.8386 77.5912C94.9396 77.4882 95.0591 77.4361 95.1971 77.4347L95.4311 77.4325C95.5691 77.4311 95.6895 77.481 95.7925 77.582C95.8955 77.683 95.9477 77.8025 95.949 77.9405L95.9845 81.5943C95.9859 81.7323 95.936 81.8528 95.835 81.9558C95.734 82.0587 95.6145 82.1109 95.4765 82.1122L95.2425 82.1145ZM95.1875 76.4448C95.0495 76.4461 94.929 76.3963 94.826 76.2953C94.723 76.1943 94.6708 76.0748 94.6695 75.9368L94.669 75.8828C94.6676 75.7448 94.7175 75.6243 94.8185 75.5213C94.9195 75.4183 95.039 75.3662 95.177 75.3648L95.411 75.3626C95.5489 75.3612 95.6694 75.4111 95.7724 75.5121C95.8754 75.6131 95.9276 75.7326 95.9289 75.8706L95.9294 75.9246C95.9308 76.0625 95.8809 76.183 95.7799 76.286C95.6789 76.389 95.5594 76.4412 95.4214 76.4425L95.1875 76.4448ZM99.7582 82.1607C99.0142 82.1679 98.4393 81.9695 98.0333 81.5654C97.6273 81.1553 97.4205 80.5513 97.4127 79.7533C97.4051 78.9674 97.5912 78.3655 97.9712 77.9478C98.3571 77.524 98.907 77.3087 99.621 77.3018C99.939 77.2987 100.245 77.3167 100.54 77.3558C100.678 77.3725 100.792 77.4344 100.883 77.5415C100.974 77.6486 101.021 77.7742 101.022 77.9182C101.023 78.0382 100.976 78.1346 100.881 78.2076C100.792 78.2804 100.687 78.3055 100.567 78.2826C100.332 78.2369 100.071 78.2154 99.7829 78.2182C99.4049 78.2219 99.1241 78.3446 98.9405 78.5864C98.7568 78.8282 98.6675 79.2131 98.6727 79.7411C98.6779 80.2811 98.7807 80.6671 98.9809 80.8991C99.1812 81.1312 99.4883 81.2452 99.9023 81.2412C100.196 81.2384 100.451 81.2089 100.666 81.1528C100.78 81.1217 100.882 81.1417 100.973 81.2128C101.07 81.2839 101.119 81.3764 101.12 81.4904C101.121 81.6344 101.077 81.7608 100.988 81.8697C100.905 81.9785 100.795 82.0456 100.657 82.0709C100.352 82.1279 100.052 82.1578 99.7582 82.1607ZM104.754 79.772C103.896 79.7804 103.469 80.0485 103.474 80.5765C103.476 80.7685 103.532 80.9239 103.641 81.0429C103.756 81.1618 103.901 81.2204 104.075 81.2187C104.417 81.2154 104.692 81.1077 104.899 80.8957C105.107 80.6776 105.21 80.3826 105.206 80.0106L105.204 79.8486C105.204 79.7946 105.177 79.7679 105.123 79.7684L104.754 79.772ZM103.759 82.1218C103.351 82.1258 103.011 81.9971 102.739 81.7357C102.472 81.4683 102.337 81.1216 102.332 80.6956C102.327 80.1736 102.521 79.7667 102.915 79.4749C103.314 79.183 103.924 79.033 104.746 79.0251L105.115 79.0215C105.169 79.0209 105.196 78.9937 105.195 78.9397L105.195 78.8677C105.192 78.5917 105.124 78.4004 104.991 78.2936C104.858 78.1809 104.624 78.1262 104.288 78.1295C103.94 78.1328 103.514 78.2 103.011 78.3309C102.904 78.3619 102.805 78.3449 102.714 78.2798C102.623 78.2086 102.577 78.1161 102.576 78.0021C102.575 77.8641 102.616 77.7407 102.699 77.6319C102.782 77.5171 102.889 77.447 103.021 77.4217C103.476 77.3153 103.904 77.2602 104.306 77.2562C105.074 77.2488 105.612 77.3816 105.921 77.6546C106.23 77.9276 106.387 78.4091 106.394 79.0991L106.417 81.4929C106.419 81.6309 106.369 81.7514 106.268 81.8544C106.173 81.9573 106.056 82.0095 105.918 82.0108L105.819 82.0118C105.675 82.0132 105.552 81.9664 105.449 81.8714C105.346 81.7704 105.291 81.6479 105.283 81.504L105.282 81.378C105.282 81.372 105.279 81.369 105.273 81.369C105.261 81.3692 105.255 81.3722 105.255 81.3782C104.894 81.8678 104.395 82.1156 103.759 82.1218ZM108.378 81.9869C108.24 81.9883 108.12 81.9384 108.017 81.8374C107.914 81.7364 107.862 81.6169 107.86 81.4789L107.825 77.8251C107.823 77.6871 107.873 77.5666 107.974 77.4636C108.075 77.3606 108.195 77.3085 108.333 77.3071L108.513 77.3054C108.651 77.304 108.771 77.3539 108.874 77.4549C108.977 77.5559 109.029 77.6754 109.031 77.8134L109.034 78.1914C109.034 78.1974 109.037 78.2003 109.043 78.2003C109.055 78.2002 109.061 78.1971 109.061 78.1911C109.233 77.9494 109.459 77.7522 109.74 77.5995C110.02 77.4407 110.328 77.3418 110.664 77.3025C110.79 77.2893 110.898 77.3302 110.989 77.4253C111.08 77.5145 111.126 77.622 111.127 77.748C111.128 77.874 111.084 77.9824 110.995 78.0733C110.906 78.1642 110.799 78.2162 110.673 78.2294C109.612 78.3238 109.086 78.8689 109.096 79.8648L109.111 81.4668C109.112 81.6048 109.063 81.7253 108.962 81.8282C108.861 81.9312 108.741 81.9834 108.603 81.9847L108.378 81.9869ZM117.474 79.6484C116.616 79.6568 116.189 79.9249 116.194 80.4529C116.196 80.6449 116.252 80.8004 116.361 80.9193C116.476 81.0382 116.621 81.0968 116.795 81.0951C117.137 81.0918 117.412 80.9841 117.62 80.7721C117.827 80.5541 117.93 80.259 117.926 79.8871L117.924 79.7251C117.924 79.6711 117.897 79.6443 117.843 79.6449L117.474 79.6484ZM116.479 81.9982C116.071 82.0022 115.731 81.8735 115.459 81.6121C115.192 81.3447 115.057 80.998 115.053 80.572C115.047 80.05 115.242 79.6431 115.635 79.3513C116.034 79.0594 116.644 78.9095 117.466 78.9015L117.835 78.8979C117.889 78.8974 117.916 78.8701 117.916 78.8161L117.915 78.7441C117.912 78.4681 117.844 78.2768 117.711 78.1701C117.578 78.0574 117.344 78.0026 117.008 78.0059C116.66 78.0093 116.234 78.0764 115.732 78.2073C115.624 78.2384 115.525 78.2213 115.434 78.1562C115.343 78.0851 115.297 77.9925 115.296 77.8785C115.295 77.7405 115.336 77.6171 115.419 77.5083C115.502 77.3935 115.609 77.3235 115.741 77.2982C116.196 77.1917 116.624 77.1366 117.026 77.1327C117.794 77.1252 118.332 77.258 118.641 77.531C118.95 77.804 119.107 78.2855 119.114 78.9755L119.137 81.3694C119.139 81.5074 119.089 81.6279 118.988 81.7308C118.893 81.8338 118.776 81.8859 118.638 81.8872L118.539 81.8882C118.395 81.8896 118.272 81.8428 118.169 81.7478C118.066 81.6468 118.011 81.5243 118.004 81.3804L118.002 81.2544C118.002 81.2484 117.999 81.2454 117.993 81.2455C117.981 81.2456 117.975 81.2487 117.975 81.2547C117.614 81.7442 117.115 81.992 116.479 81.9982ZM121.134 81.863C120.996 81.8643 120.876 81.8145 120.773 81.7135C120.676 81.6124 120.627 81.4929 120.625 81.3549L120.57 75.6312C120.568 75.4932 120.615 75.3727 120.71 75.2698C120.811 75.1668 120.931 75.1147 121.069 75.1133L121.249 75.1116C121.387 75.1102 121.507 75.1601 121.61 75.2611C121.713 75.3621 121.765 75.4816 121.767 75.6196L121.787 77.7075C121.787 77.7135 121.79 77.7164 121.796 77.7164C121.802 77.7163 121.808 77.7133 121.814 77.7072C122.23 77.2891 122.69 77.0777 123.194 77.0728C123.74 77.0675 124.137 77.2196 124.386 77.5292C124.635 77.8388 124.764 78.3716 124.771 79.1275L124.792 81.3144C124.793 81.4524 124.744 81.5729 124.643 81.6759C124.542 81.7789 124.422 81.8311 124.284 81.8324L124.14 81.8338C124.002 81.8351 123.882 81.7853 123.779 81.6843C123.676 81.5833 123.624 81.4638 123.622 81.3258L123.603 79.3189C123.598 78.7969 123.537 78.4525 123.422 78.2856C123.312 78.1187 123.104 78.0367 122.798 78.0396C122.558 78.042 122.331 78.1522 122.117 78.3703C121.903 78.5884 121.798 78.8204 121.8 79.0664L121.822 81.3433C121.824 81.4813 121.774 81.6018 121.673 81.7048C121.572 81.8077 121.452 81.8599 121.314 81.8612L121.134 81.863ZM128.96 78.2678C128.784 78.0175 128.518 77.8941 128.164 77.8975C127.81 77.901 127.545 78.0295 127.367 78.2833C127.195 78.531 127.112 78.9248 127.118 79.4648C127.123 80.0047 127.214 80.3999 127.39 80.6502C127.572 80.8944 127.841 81.0148 128.195 81.0114C128.549 81.0079 128.811 80.8824 128.983 80.6347C129.161 80.381 129.247 79.9841 129.241 79.4441C129.236 78.9042 129.142 78.512 128.96 78.2678ZM129.871 81.2381C129.479 81.6619 128.923 81.8773 128.203 81.8843C127.483 81.8913 126.92 81.6868 126.514 81.2707C126.114 80.8486 125.91 80.2505 125.903 79.4766C125.895 78.7026 126.087 78.1037 126.479 77.6799C126.877 77.25 127.436 77.0316 128.156 77.0246C128.876 77.0176 129.436 77.2251 129.836 77.6473C130.242 78.0633 130.449 78.6584 130.456 79.4323C130.464 80.2063 130.269 80.8082 129.871 81.2381ZM132.171 81.7558C132.033 81.7571 131.913 81.7073 131.81 81.6063C131.707 81.5053 131.654 81.3858 131.653 81.2478L131.618 77.594C131.616 77.456 131.666 77.3355 131.767 77.2325C131.868 77.1295 131.988 77.0773 132.126 77.076L132.306 77.0742C132.444 77.0729 132.564 77.1227 132.667 77.2237C132.77 77.3247 132.822 77.4442 132.823 77.5822L132.827 77.9602C132.827 77.9662 132.83 77.9692 132.836 77.9691C132.848 77.969 132.854 77.966 132.854 77.96C133.026 77.7183 133.252 77.5211 133.532 77.3683C133.813 77.2096 134.121 77.1106 134.457 77.0714C134.582 77.0581 134.691 77.0991 134.782 77.1942C134.873 77.2833 134.919 77.3909 134.92 77.5169C134.921 77.6429 134.877 77.7513 134.788 77.8422C134.699 77.933 134.591 77.9851 134.466 77.9983C133.404 78.0926 132.879 78.6378 132.888 79.6337L132.904 81.2356C132.905 81.3736 132.855 81.4941 132.754 81.5971C132.653 81.7001 132.534 81.7523 132.396 81.7536L132.171 81.7558ZM138.187 79.4472C137.329 79.4556 136.902 79.7237 136.907 80.2517C136.909 80.4437 136.965 80.5992 137.074 80.7181C137.189 80.837 137.334 80.8956 137.508 80.8939C137.85 80.8906 138.125 80.7829 138.332 80.5709C138.54 80.3528 138.643 80.0578 138.639 79.6858L138.637 79.5239C138.637 79.4699 138.61 79.4431 138.556 79.4436L138.187 79.4472ZM137.192 81.797C136.784 81.801 136.444 81.6723 136.172 81.4109C135.905 81.1435 135.77 80.7968 135.765 80.3708C135.76 79.8488 135.954 79.4419 136.348 79.1501C136.747 78.8582 137.357 78.7083 138.179 78.7003L138.548 78.6967C138.602 78.6962 138.629 78.6689 138.628 78.6149L138.628 78.5429C138.625 78.2669 138.557 78.0756 138.424 77.9689C138.291 77.8561 138.057 77.8014 137.721 77.8047C137.373 77.8081 136.947 77.8752 136.444 78.0061C136.337 78.0371 136.238 78.0201 136.147 77.955C136.056 77.8839 136.01 77.7913 136.009 77.6773C136.008 77.5393 136.049 77.4159 136.132 77.3071C136.215 77.1923 136.322 77.1222 136.454 77.097C136.909 76.9905 137.337 76.9354 137.739 76.9315C138.507 76.924 139.045 77.0568 139.354 77.3298C139.663 77.6028 139.82 78.0843 139.827 78.7743L139.85 81.1682C139.852 81.3061 139.802 81.4266 139.701 81.5296C139.606 81.6325 139.489 81.6847 139.351 81.686L139.252 81.687C139.108 81.6884 138.985 81.6416 138.882 81.5466C138.779 81.4456 138.724 81.3231 138.716 81.1792L138.715 81.0532C138.715 81.0472 138.712 81.0442 138.706 81.0443C138.694 81.0444 138.688 81.0474 138.688 81.0534C138.327 81.543 137.828 81.7908 137.192 81.797Z" fill="#313338"/>
<path d="M65.263 95.9911C57.8953 95.9911 53.6712 95.2543 51.0188 92.7493C48.3665 90.1952 47.8262 86.1184 47.8262 80.7154C47.8262 74.281 48.3665 70.3024 51.068 67.6009C55.4394 63.2295 64.7227 63.2786 87.0714 63.4259C93.8005 63.475 101.414 63.5242 110.501 63.4259V64.7521V63.4259L117.426 63.3768C148.862 63.1312 159.422 63.0821 163.695 67.7483C166.151 70.4498 166.004 74.5266 165.513 79.1437C164.039 94.4684 162.418 94.4684 120.914 94.714C117.377 94.714 113.595 94.7631 109.42 94.7631C97.0914 94.8614 87.2679 95.2543 79.409 95.5981C73.7113 95.7946 69.0942 95.9911 65.263 95.9911ZM77.5916 66.0292C63.151 66.0292 55.9797 66.4712 52.9836 69.4674C50.9206 71.4813 50.5277 75.116 50.5277 80.7154C50.5277 86.2658 51.2153 89.1637 52.8853 90.7846C56.078 93.8299 63.8386 93.5352 79.3599 92.8476C87.2678 92.5037 97.1405 92.1108 109.469 92.0125C113.595 91.9634 117.426 91.9634 120.963 91.9634C161.681 91.767 161.681 91.767 162.909 78.7998C163.351 74.0845 163.302 71.1866 161.731 69.4674C158.243 65.6854 146.308 65.7836 117.426 65.9801L110.501 66.0292C101.414 66.0783 93.7514 66.0292 87.0223 66.0292C83.6331 66.0783 80.4405 66.0292 77.5916 66.0292Z" fill="#313338"/>
<path d="M8.58295 146.043C5.88147 130.768 22.778 114.559 39.6255 115.443C39.6255 115.443 49.3017 100.757 54.7047 91.5224C57.7991 86.2176 59.1253 79.5376 67.5736 82.632C75.9727 85.7265 58.2411 116.769 58.2411 116.769C58.2411 116.769 61.5321 114.018 66.6894 117.211C70.2259 119.421 70.668 125.168 70.668 125.168C70.668 125.168 77.2989 123.4 80.0004 129.147C83.7333 137.251 61.3847 169.03 56.9641 173.942C52.1014 179.247 9.90914 153.558 8.58295 146.043Z" fill="#FFD699"/>
<path d="M65.6584 86.2675C65.1673 89.4111 61.9746 90.8846 59.2731 89.1164C57.8487 88.1831 56.5225 90.4917 57.9469 91.4249C61.9746 94.1264 67.4758 91.8179 68.2126 87.0043C68.5073 85.2852 65.9532 84.5484 65.6584 86.2675Z" fill="white"/>
<path d="M36.6279 116.426C31.9617 121.682 27.3447 126.937 22.6785 132.242C21.5487 133.519 23.4152 135.435 24.5449 134.108C29.2111 128.853 33.8282 123.597 38.4944 118.293C39.6241 117.015 37.7576 115.149 36.6279 116.426Z" fill="white"/>
<path d="M56.7663 115.739C55.8822 117.507 54.9981 119.275 54.1139 121.043C53.3281 122.566 55.6366 123.941 56.4225 122.369C57.3066 120.601 58.1907 118.833 59.0749 117.065C59.8116 115.542 57.5031 114.167 56.7663 115.739Z" fill="white"/>
<path d="M71.356 124.53C70.6683 124.138 69.9807 124.432 69.5386 125.022C68.6545 126.2 67.7704 127.379 66.8862 128.607C66.4442 129.197 66.788 130.081 67.3774 130.425C68.0651 130.818 68.7527 130.523 69.1948 129.933C70.0789 128.755 70.963 127.576 71.8472 126.348C72.2892 125.758 71.9454 124.874 71.356 124.53Z" fill="white"/>
<path d="M198.423 54.2891C192.235 56.8433 185.997 59.3974 179.808 61.9024C178.236 62.5409 178.924 65.095 180.495 64.4565C186.684 61.9024 192.922 59.3483 199.111 56.8432C200.683 56.2047 199.995 53.6506 198.423 54.2891Z" fill="#FFD699"/>
<path d="M198.127 87.886L180.445 81.3533C178.824 80.7639 178.136 83.318 179.757 83.9074L197.439 90.4401C199.06 91.0295 199.748 88.4754 198.127 87.886Z" fill="#FFD699"/>
<path d="M22.6295 47.7081C15.753 44.1716 8.8765 40.6351 2 37.0495C0.477346 36.2636 -0.848843 38.5721 0.673811 39.358C7.55032 42.8945 14.4268 46.431 21.3033 50.0166C22.7769 50.7534 24.1522 48.494 22.6295 47.7081Z" fill="#FFD699"/>
<path d="M20.862 64.9473C16.4414 65.2911 11.9717 65.5859 7.55106 65.9297C5.83194 66.077 5.83194 68.7294 7.55106 68.582C11.9717 68.2382 16.4414 67.9435 20.862 67.5997C22.5811 67.4523 22.5811 64.8 20.862 64.9473Z" fill="#FFD699"/>
<path d="M131.425 145.159C112.465 144.864 111.827 147.222 110.107 153.411C107.21 163.726 113.791 162.645 125.285 162.989C132.603 163.185 133.733 161.859 134.617 156.997C135.256 153.362 138.399 145.257 131.425 145.159Z" fill="#313338"/>
<path d="M129.266 145.061C110.306 145.061 113.646 146.387 111.289 152.379C108.98 158.371 117.92 157.045 125.238 157.045C132.557 157.045 133.686 155.916 134.571 151.053C135.258 147.369 137.272 145.061 129.266 145.061Z" fill="white"/>
<path d="M118.36 158.47C114.627 158.47 111.582 158.126 110.256 156.211C109.47 155.081 109.421 153.656 110.059 151.888C110.403 150.955 110.648 150.169 110.845 149.432C112.171 144.471 113.546 143.686 129.264 143.686C133.095 143.686 135.011 144.177 135.993 145.454C136.976 146.731 136.583 148.303 136.239 149.776C136.141 150.218 135.993 150.709 135.895 151.25C134.864 156.996 132.85 158.323 125.286 158.323C124.156 158.323 123.026 158.372 121.847 158.372C120.669 158.421 119.49 158.47 118.36 158.47ZM129.264 146.387C114.431 146.387 114.234 147.124 113.399 150.169C113.203 150.906 112.957 151.839 112.564 152.871C112.318 153.46 112.122 154.246 112.417 154.688C113.35 156.014 118.016 155.867 121.749 155.769C122.928 155.719 124.107 155.719 125.236 155.719C132.113 155.719 132.506 154.884 133.243 150.808C133.341 150.218 133.488 149.678 133.636 149.187C133.832 148.401 134.078 147.369 133.881 147.124C133.783 146.927 133.046 146.387 129.264 146.387Z" fill="#313338"/>
<path d="M184.963 145.357C143.066 144.816 139.628 147.714 138.498 154.051C136.386 165.888 140.905 162.99 180.494 162.99C187.812 162.99 188.795 161.86 189.826 156.998C190.563 153.412 191.3 149.237 190.661 147.125C190.072 145.406 188.795 145.406 184.963 145.357Z" fill="#313338"/>
<path d="M184.473 145.062C138.253 144.718 142.231 146.388 139.923 152.381C137.614 158.373 142.575 157.047 180.494 157.047C187.813 157.047 188.942 155.917 189.826 151.055C190.465 147.371 192.479 145.062 184.473 145.062Z" fill="white"/>
<path d="M153.97 158.471C143.361 158.471 139.971 158.078 138.596 156.113C137.712 154.787 138.105 153.215 138.645 151.889C138.842 151.398 138.989 150.907 139.137 150.465C141.003 144.521 142.673 143.392 184.472 143.735C188.304 143.735 190.219 144.227 191.201 145.504C192.184 146.781 191.791 148.352 191.447 149.826C191.349 150.268 191.201 150.759 191.103 151.3C190.072 157.046 188.058 158.373 180.494 158.373C173.765 158.373 168.067 158.422 163.253 158.471C159.668 158.471 156.622 158.471 153.97 158.471ZM174.354 146.339C143.262 146.339 142.82 147.763 141.74 151.25C141.592 151.742 141.396 152.282 141.199 152.822C140.708 154.099 140.807 154.492 140.856 154.59C141.74 155.917 149.844 155.818 163.253 155.769C168.067 155.72 173.765 155.671 180.543 155.671C187.419 155.671 187.812 154.836 188.549 150.759C188.647 150.17 188.795 149.63 188.942 149.138C189.139 148.352 189.384 147.321 189.188 147.075C189.04 146.928 188.304 146.339 184.571 146.339C180.788 146.339 177.399 146.339 174.354 146.339Z" fill="#313338"/>
<path d="M174.356 149.973C166.202 150.072 158.048 150.17 149.895 150.268C148.176 150.268 148.176 152.97 149.895 152.92C158.048 152.822 166.202 152.724 174.356 152.626C176.026 152.626 176.075 149.924 174.356 149.973Z" fill="#313338"/>
<path d="M101.955 145.16C82.9959 145.16 83.7326 149.777 81.5223 153.215C78.4279 165.2 89.5777 163.039 96.8962 163.039C104.215 163.039 105.394 161.909 106.229 157.047C107.26 150.661 109.912 145.16 101.955 145.16Z" fill="#313338"/>
<path d="M100.922 145.061C81.9625 145.061 85.3025 146.387 82.9449 152.379C80.6363 158.371 89.5758 157.045 96.8944 157.045C104.213 157.045 105.343 155.916 106.227 151.053C106.865 147.369 108.879 145.061 100.922 145.061Z" fill="white"/>
<path d="M90.0182 158.47C86.2852 158.47 83.2399 158.126 81.9137 156.211C81.1278 155.081 81.0787 153.656 81.7172 151.888C82.0611 150.955 82.3067 150.169 82.5031 149.432C83.8293 144.471 85.2046 143.686 100.922 143.686C104.754 143.686 106.669 144.177 107.651 145.454C108.634 146.731 108.241 148.303 107.897 149.776C107.799 150.218 107.651 150.709 107.553 151.25C106.522 156.996 104.508 158.323 96.9438 158.323C95.8141 158.323 94.6844 158.372 93.5055 158.372C92.2776 158.421 91.0988 158.47 90.0182 158.47ZM100.922 146.387C86.0887 146.387 85.8923 147.124 85.0573 150.169C84.8608 150.906 84.6152 151.839 84.2222 152.871C83.9767 153.46 83.7802 154.246 84.0749 154.688C85.0081 156.014 89.6743 155.867 93.4073 155.769C94.5861 155.719 95.765 155.719 96.8947 155.719C103.771 155.719 104.164 154.884 104.901 150.808C104.999 150.218 105.146 149.678 105.294 149.187C105.49 148.401 105.736 147.369 105.539 147.124C105.392 146.927 104.655 146.387 100.922 146.387Z" fill="#313338"/>
<path d="M98.5162 169.523C79.5567 170.063 81.0794 171.439 77.7393 176.694C74.3993 188.335 81.3249 187.746 92.9168 187.402C100.235 187.205 101.365 186.272 102.249 181.409C102.888 177.726 106.473 169.326 98.5162 169.523Z" fill="#313338"/>
<path d="M96.8947 169.424C77.9352 169.424 81.2752 170.75 78.9175 176.742C76.609 182.735 85.5484 181.409 92.867 181.409C100.186 181.409 101.315 180.279 102.199 175.416C102.887 171.732 104.901 169.424 96.8947 169.424Z" fill="white"/>
<path d="M85.9908 182.833C82.2579 182.833 79.2125 182.489 77.8864 180.574C77.1005 179.444 77.0514 178.02 77.6899 176.252C78.0337 175.318 78.2793 174.532 78.4758 173.796C79.802 168.835 81.1773 168.049 96.895 168.049C100.726 168.049 102.642 168.54 103.624 169.817C104.606 171.094 104.214 172.666 103.87 174.139C103.771 174.582 103.624 175.073 103.526 175.613C102.494 181.36 100.481 182.686 92.9164 182.686C91.7867 182.686 90.657 182.735 89.4782 182.735C88.2994 182.833 87.1205 182.833 85.9908 182.833ZM96.895 170.75C82.0614 170.75 81.8649 171.487 81.0299 174.532C80.8334 175.269 80.5879 176.202 80.1949 177.234C79.9493 177.823 79.7528 178.609 80.0475 179.051C80.9808 180.377 85.647 180.23 89.3799 180.132C90.5588 180.083 91.7376 180.083 92.8673 180.083C99.7438 180.083 100.137 179.248 100.874 175.171C100.972 174.582 101.119 174.041 101.266 173.55C101.463 172.764 101.709 171.733 101.512 171.487C101.414 171.34 100.677 170.75 96.895 170.75Z" fill="#313338"/>
<path d="M124.746 151.889C123.813 151.938 122.83 152.037 121.897 152.086C122.094 151.496 122.29 150.956 122.487 150.367C123.027 148.746 120.473 148.058 119.932 149.679C119.539 150.858 119.146 152.037 118.754 153.215C118.508 154.001 119.196 154.935 120.031 154.885C121.602 154.787 123.174 154.64 124.746 154.542C126.465 154.443 126.465 151.791 124.746 151.889Z" fill="#313338"/>
<path d="M97.9265 147.861C95.1268 149.531 92.2779 151.251 89.4782 152.921C88.0047 153.805 89.3308 156.113 90.8044 155.229C93.6041 153.559 96.4529 151.84 99.2527 150.17C100.775 149.237 99.4 146.977 97.9265 147.861Z" fill="#313338"/>
<path d="M94.5375 174.581C92.9166 173.795 91.3448 172.911 89.9695 171.732C88.6434 170.651 86.7769 172.518 88.1031 173.598C89.0854 174.384 90.0678 175.121 91.1484 175.759C89.9204 176.447 88.6925 177.135 87.4645 177.871C85.991 178.706 87.3172 181.015 88.7907 180.18C90.7063 179.099 92.6219 178.019 94.5375 176.889C95.3234 176.447 95.4707 175.023 94.5375 174.581Z" fill="#313338"/>
</svg>
