<svg width="250" height="185" viewBox="0 0 250 185" fill="none" xmlns="http://www.w3.org/2000/svg">
<path d="M194.465 27.1816C192.504 21.9913 188.314 8.07374 188.314 8.07374L204.5 13.9176L212.612 0L223.607 15.5323L243.369 13.5716L232.027 33.9866L236.564 45.6358L218.11 42.4063L208.421 58.2847L203.538 48.404L195.542 49.2882L194.158 37.8312L184.123 34.3326L194.465 27.1816Z" fill="#EAEBEB"/>
<path d="M30.4915 149.363L27.262 168.394C27.2236 168.74 27.5696 168.971 27.8772 168.779L50.3298 155.899C50.5605 155.784 50.7912 155.861 50.9065 156.053L65.8622 184.619C66.016 184.888 66.4389 184.888 66.5927 184.619L88.8147 149.901C88.93 149.709 89.1607 149.632 89.3529 149.709L108.499 157.052C108.768 157.168 109.114 156.937 109.114 156.63L108.345 120.528C108.345 120.336 108.499 120.144 108.73 120.106L123.686 117.376C123.839 117.337 123.955 117.26 124.032 117.107L126.761 111.109C126.838 110.917 126.761 110.686 126.569 110.609L105.116 100.344C104.962 100.267 104.885 100.113 104.885 99.9596L106.923 82.5434C106.961 82.2743 106.692 82.0436 106.423 82.1205L92.7746 85.1193C92.6593 85.1578 92.5824 85.1193 92.5055 85.0809L70.7833 74.239C70.7449 74.239 70.7064 74.2006 70.668 74.2006L52.1753 70.9326C51.9062 70.8942 51.637 71.0864 51.637 71.3555L51.1372 85.6576C51.1372 85.9267 50.8681 86.119 50.599 86.0805L20.6493 80.8134C20.3417 80.7749 20.0726 81.044 20.111 81.3131L24.4939 102.343C24.5323 102.536 24.4555 102.689 24.2632 102.805L6.77013 112.608C6.46256 112.762 6.46255 113.147 6.73168 113.301L22.7638 122.643C23.0329 122.797 23.0329 123.143 22.7638 123.335L0.195798 139.444C-0.111773 139.636 -0.0348759 140.059 0.272695 140.175L30.184 148.94C30.4146 148.979 30.53 149.171 30.4915 149.363Z" fill="#EAEBEB"/>
<path d="M194.503 84.6589C205.268 75.624 206.998 63.1289 202.846 54.8245C198.693 46.4816 194.695 37.985 199.385 30.4495C205.729 20.2228 212.227 22.914 212.227 26.7202C212.227 30.5264 206.421 32.5256 207.19 36.9469C208.074 41.9065 215.687 44.7515 219.147 42.3294C222.607 39.9073 220.877 30.8724 217.071 30.1804C213.265 29.4883 211.881 26.0282 213.265 23.2216C214.649 20.4534 223.338 19.0694 228.528 29.4499C228.528 29.4499 227.836 20.761 232.68 21.453C237.524 22.1451 238.216 28.0658 237.87 44.0211C237.87 44.0211 240.292 27.7198 246.213 30.4879C252.134 33.2561 246.905 38.4848 245.175 55.1321C243.445 71.7793 248.981 90.1951 232.68 108.226C216.379 126.258 189.312 123.144 189.312 123.144L194.503 84.6589Z" fill="white"/>
<path d="M193.773 124.374C190.967 124.374 189.237 124.182 189.16 124.182C188.891 124.143 188.621 123.989 188.468 123.797C188.314 123.566 188.237 123.297 188.275 123.028L193.466 84.505C193.504 84.2358 193.619 84.0052 193.812 83.8514C204.615 74.778 205.576 62.6674 201.885 55.2857C198.079 47.6734 193.312 38.1771 198.464 29.9111C203.692 21.4914 208.537 22.1065 209.921 22.491C210.728 22.7217 211.42 23.1446 211.958 23.6828C212.035 23.3753 212.189 23.1061 212.304 22.7986C213.073 21.2223 215.226 20.2227 217.725 20.2227C219.609 20.2227 223.915 20.8378 227.606 25.9512C227.837 24.3364 228.337 22.5679 229.528 21.4914C230.413 20.684 231.566 20.338 232.873 20.4918C237.602 21.1838 238.871 25.9127 239.025 35.5628C239.986 32.9868 241.331 30.6416 243.1 29.6805C244.215 29.0653 245.484 29.0653 246.675 29.642C251.135 31.7566 250.289 35.2552 248.828 41.099C247.983 44.4823 246.868 49.1728 246.214 55.3242C245.791 59.4379 245.791 63.5901 245.83 67.973C245.907 81.3524 245.983 95.1546 233.45 108.995C221.032 122.682 202.347 124.374 193.773 124.374ZM190.467 122.221C195.58 122.528 217.956 122.99 231.912 107.534C243.869 94.3088 243.792 80.891 243.754 67.9346C243.715 63.4748 243.715 59.2457 244.138 55.0551C244.792 48.7499 245.945 44.021 246.791 40.5608C248.29 34.4478 248.559 32.7946 245.753 31.449C245.138 31.1414 244.599 31.1414 244.061 31.449C241.178 32.9869 239.371 41.1759 238.909 44.1747C238.832 44.713 238.371 45.0975 237.794 45.059C237.256 45.0206 236.833 44.5592 236.833 43.9825C237.179 27.6428 236.256 23.0292 232.527 22.491C231.835 22.3757 231.335 22.5294 230.912 22.9139C229.49 24.2595 229.451 28.1042 229.528 29.3344C229.567 29.8342 229.259 30.2956 228.759 30.4109C228.298 30.5647 227.76 30.3341 227.568 29.8727C224.107 22.9523 219.532 22.2219 217.687 22.2219C215.841 22.2219 214.496 22.9524 214.15 23.6444C213.612 24.7209 213.612 25.9512 214.111 26.9508C214.65 28.0657 215.765 28.8346 217.226 29.0653C219.725 29.5267 221.186 32.3717 221.762 34.8707C222.339 37.6004 222.185 41.3682 219.725 43.0982C217.802 44.4439 214.765 44.5208 211.805 43.2905C208.69 42.0217 206.576 39.6765 206.115 37.0237C205.615 34.1402 207.383 32.1795 208.921 30.4109C210.075 29.1422 211.113 27.9504 211.113 26.6048C211.113 25.5667 210.421 24.6824 209.306 24.3749C207.229 23.7982 203.731 25.1822 200.194 30.9107C196.003 37.6773 199.156 45.1743 203.692 54.2861C207.729 62.3214 206.807 75.3547 195.426 85.1201L190.467 122.221ZM212.766 28.7578C212.228 29.9111 211.343 30.9107 210.497 31.8719C209.075 33.4482 207.845 34.8323 208.191 36.7161C208.537 38.6385 210.228 40.407 212.612 41.4066C214.88 42.3293 217.187 42.3293 218.533 41.4066C219.801 40.5223 220.301 38.0233 219.725 35.3321C219.225 33.0253 218.071 31.3337 216.88 31.1414C215.111 30.8723 213.688 30.0265 212.766 28.7578Z" fill="#313338"/>
<path d="M213.342 45.6747C212.188 44.9826 211.15 46.7896 212.304 47.4816C217.263 50.4036 220.108 55.6707 219.839 61.3992C219.762 62.7449 221.877 62.7449 221.915 61.3992C222.223 54.9018 218.916 48.9426 213.342 45.6747Z" fill="#313338"/>
<path d="M227.491 29.7948C227.145 35.6771 226.76 41.5979 226.414 47.4802C226.337 48.8258 228.413 48.8258 228.49 47.4802C228.836 41.5979 229.221 35.6771 229.567 29.7948C229.644 28.4877 227.568 28.4877 227.491 29.7948Z" fill="#313338"/>
<path d="M236.872 43.1752C236.756 45.828 236.641 48.4808 236.525 51.1721C236.449 52.5177 238.563 52.5177 238.602 51.1721C238.717 48.5193 238.832 45.8665 238.948 43.1752C239.025 41.8296 236.948 41.8296 236.872 43.1752Z" fill="#313338"/>
<path d="M208.037 24.4509C207.807 23.1437 205.807 23.682 206.038 24.9892C206.384 26.9884 204.423 28.2187 202.655 27.5651C201.386 27.1037 200.848 29.1029 202.117 29.5643C205.5 30.833 208.614 27.8727 208.037 24.4509Z" fill="#313338"/>
<path d="M61.671 99.6524L60.0947 84.0431C59.7871 83.7356 59.4411 83.428 59.0951 83.082C57.9417 81.9286 56.8268 80.7752 55.7118 79.5834C49.868 74.47 37.7189 73.4704 32.1442 68.0879C29.9912 71.5865 28.1073 74.7776 27.4153 78.4684C24.9932 91.3095 26.185 104.996 28.8763 111.648C32.5287 120.759 43.9857 134.293 67.6686 131.678C91.3516 129.064 61.671 99.6524 61.671 99.6524Z" fill="white"/>
<path d="M61.7488 133.024C37.6429 133.024 29.4154 115.723 27.916 111.994C25.2632 105.343 23.8791 91.6173 26.4166 78.238C27.147 74.3933 29.0694 71.1254 31.2992 67.5114L31.9913 66.3965L32.914 67.2807C35.6052 69.8951 40.1803 71.4714 44.6017 73.0477C48.9461 74.5856 53.4443 76.1234 56.4432 78.7378L56.52 78.8147C57.8272 80.1987 58.8653 81.3137 59.8649 82.2748C60.0187 82.4286 60.2109 82.5824 60.3647 82.7746L61.1336 83.5051L62.7099 99.1143C65.0551 101.498 80.6644 117.761 77.4733 126.873C76.3584 130.102 73.0904 132.063 67.8233 132.64C65.6703 132.947 63.6326 133.024 61.7488 133.024ZM32.4142 69.7029C30.5688 72.7017 29.0693 75.5467 28.4542 78.6609C26.0321 91.502 27.3393 105.035 29.8383 111.263C31.3377 115.031 40.2572 133.639 67.5542 130.64C71.9755 130.141 74.6283 128.68 75.4741 126.257C77.8962 119.299 65.8241 105.227 60.9414 100.422L60.6723 100.152L59.096 84.5432L58.9037 84.3509C58.7115 84.1972 58.5577 84.0049 58.3655 83.8511C57.3659 82.8515 56.2509 81.7366 54.9822 80.3525C52.2909 78.0073 48.0234 76.5463 43.8712 75.0854C39.719 73.6244 35.413 72.125 32.4142 69.7029Z" fill="#313338"/>
<path d="M121.724 144.097C48.3684 145.366 54.8658 138.984 53.9431 98.1923C53.3664 72.7023 48.6375 54.8632 67.6684 47.3277C79.087 42.8295 100.771 43.8291 132.143 44.0983C183.546 44.5596 194.272 38.908 197.271 60.3226C197.348 60.9762 197.463 61.6682 197.54 62.3987C198.232 68.7424 198.271 85.3512 198.655 96.5775C200.501 150.172 195.08 142.828 121.724 144.097Z" fill="white"/>
<path d="M106.423 145.289C80.2408 145.289 65.9003 143.52 59.1722 136.985C53.1746 131.141 53.0977 121.76 52.9823 107.535C52.9439 104.651 52.9439 101.537 52.867 98.1922C52.7901 94.04 52.5594 90.1184 52.3672 86.3507C51.3676 66.9353 50.6371 52.9024 67.2459 46.3665C77.3189 42.4065 95.1964 42.5987 119.956 42.9448C123.839 42.9832 127.914 43.0601 132.143 43.0985C142.562 43.1754 151.482 43.0216 158.633 42.9063C187.891 42.3681 195.772 42.2143 198.31 60.2456C198.386 60.9377 198.502 61.6297 198.579 62.3602C199.04 66.5508 199.232 75.3166 199.386 83.8132C199.463 88.2346 199.578 92.7712 199.694 96.6159C200.501 119.722 199.809 131.102 193.696 137.484C186.622 144.828 172.858 144.866 145.484 144.981C138.525 145.02 130.606 145.02 121.763 145.174C116.227 145.212 111.152 145.289 106.423 145.289ZM102.347 44.8671C86.8151 44.8671 75.2428 45.4822 68.0533 48.3272C52.8285 54.3249 53.5206 67.0506 54.5202 86.2738C54.7124 90.08 54.9047 94.0015 55.02 98.1922C55.0969 101.537 55.1353 104.651 55.1353 107.573C55.2507 121.76 55.3276 130.295 60.6716 135.524C68.0533 142.713 86.2384 143.674 121.724 143.059C130.606 142.905 138.487 142.867 145.484 142.867C172.281 142.79 185.776 142.713 192.235 136.023C197.848 130.218 198.425 119.184 197.656 96.6928C197.541 92.8481 197.425 88.273 197.348 83.8517C197.195 75.4319 197.002 66.7046 196.541 62.5908C196.464 61.8988 196.387 61.2068 196.272 60.5532C194.004 44.3673 187.891 44.4826 158.71 45.0209C151.52 45.1362 142.601 45.3284 132.143 45.2131C127.914 45.1746 123.839 45.1362 119.956 45.0593C113.612 44.944 107.73 44.8671 102.347 44.8671Z" fill="#313338"/>
<path d="M197.54 62.4374C153.789 62.7066 110.037 63.0141 66.2846 63.2833C64.939 63.2833 64.939 61.2072 66.2846 61.2072C109.96 60.8996 153.596 60.6305 197.271 60.3613C197.348 61.0149 197.425 61.707 197.54 62.4374Z" fill="#313338"/>
<path d="M162.21 58.4771C161.441 58.4771 160.788 58.3234 160.249 57.862C159.365 57.0931 159.134 55.6706 159.096 53.5176V53.1331C159.019 50.8263 158.981 49.5576 159.826 48.7502C160.672 47.9044 162.018 47.9428 164.632 48.0197C168.131 48.1351 168.669 49.1347 168.823 53.0562V53.4407C168.977 57.17 168.631 57.9773 164.671 58.3234C164.325 58.3618 164.055 58.4003 163.748 58.4003C163.21 58.4003 162.671 58.4771 162.21 58.4771ZM162.787 50.0189C162.018 50.0189 161.441 50.0574 161.287 50.1727C161.095 50.365 161.134 51.7875 161.172 53.0178V53.4022C161.249 55.4783 161.441 56.0935 161.633 56.2473C161.826 56.401 162.71 56.3241 163.556 56.2473C163.863 56.2088 164.171 56.1704 164.517 56.1704C165.055 56.1319 166.516 56.0166 166.67 55.7859C166.824 55.5937 166.785 54.5172 166.747 53.4791V53.0946C166.631 50.1343 166.631 50.1343 164.594 50.0574C163.94 50.0574 163.325 50.0189 162.787 50.0189Z" fill="#EAEBEB"/>
<path d="M191.081 88.8879C186.199 90.2335 181.508 91.9636 176.933 94.1166C175.703 94.6933 176.779 96.4618 177.971 95.9236C182.393 93.8475 186.929 92.1943 191.62 90.9255C192.927 90.5411 192.389 88.5034 191.081 88.8879Z" fill="#FFD699"/>
<path d="M190.928 103.153C187.467 102.23 183.969 101.346 180.509 100.423C179.202 100.077 178.663 102.076 179.97 102.422C183.431 103.345 186.929 104.229 190.389 105.152C191.658 105.498 192.235 103.499 190.928 103.153Z" fill="#FFD699"/>
<path d="M72.2827 102.613C67.8998 101.882 63.517 101.152 59.0956 100.46C57.7884 100.229 57.2118 102.267 58.5574 102.459C62.9403 103.189 67.3231 103.92 71.7445 104.612C73.0516 104.842 73.5899 102.843 72.2827 102.613Z" fill="#FFD699"/>
<path d="M73.1278 113.917L63.4008 116.339C62.0937 116.647 62.6704 118.684 63.9391 118.338L73.666 115.916C74.9732 115.57 74.4349 113.571 73.1278 113.917Z" fill="#FFD699"/>
<path d="M182.392 55.2474C179.624 53.4404 177.125 51.3259 174.895 48.8653C174.011 47.8657 172.511 49.3651 173.434 50.3263C175.779 52.9022 178.432 55.1321 181.354 57.0159C182.469 57.7849 183.507 55.9779 182.392 55.2474Z" fill="#EAEBEB"/>
<path d="M181.47 48.8273C179.163 51.1341 176.856 53.4409 174.511 55.7861C173.55 56.7472 175.049 58.2082 175.972 57.2471C178.279 54.9403 180.585 52.6335 182.931 50.2883C183.853 49.3656 182.392 47.9046 181.47 48.8273Z" fill="#EAEBEB"/>
<path d="M152.673 50.6348H145.369C144.023 50.6348 144.023 52.7109 145.369 52.7109H152.673C154.019 52.7109 154.019 50.6348 152.673 50.6348Z" fill="#EAEBEB"/>
<path d="M149.367 74.201C134.95 73.9703 120.571 73.7396 106.154 73.5474C104.808 73.5089 104.808 75.6235 106.154 75.6235C120.571 75.8542 134.95 76.0849 149.367 76.2771C150.713 76.3155 150.713 74.2394 149.367 74.201Z" fill="#EAEBEB"/>
<path d="M127.185 90.3491C80.3576 88.8113 82.9335 92.4252 83.4718 109.072C84.01 125.72 80.3576 128.334 121.457 127.796C162.556 127.258 164.67 130.41 163.632 108.534C162.556 86.7352 158.904 91.4256 127.185 90.3491Z" fill="#313338"/>
<path d="M132.183 85.3511C85.3557 83.8132 87.9316 87.4272 88.4698 104.074C89.0081 120.722 85.3557 123.336 126.455 122.798C167.554 122.26 169.669 125.412 168.63 103.536C167.592 81.6602 163.94 86.3891 132.183 85.3511Z" fill="#FFD699"/>
<path d="M118.305 123.913C99.9663 123.913 93.5458 122.836 90.2778 119.645C87.625 117.069 87.5866 113.224 87.5097 107.88C87.5097 106.689 87.4712 105.458 87.4328 104.074C87.3943 103.267 87.3943 102.46 87.3559 101.691C87.1252 95.7698 86.9714 91.5023 89.8934 88.5419C94.084 84.3128 103.965 83.3132 132.261 84.2359C137.836 84.4282 142.488 84.4282 146.563 84.4282C165.402 84.4666 168.785 84.4666 169.708 103.459C170.092 111.687 170.131 116.915 167.247 119.953C163.672 123.682 156.329 123.72 140.181 123.72C136.183 123.72 131.646 123.72 126.533 123.797C123.534 123.874 120.804 123.913 118.305 123.913ZM115.729 86.0429C100.62 86.0429 94.1609 87.2348 91.3543 90.0413C89.0475 92.3481 89.2013 96.039 89.432 101.652C89.4704 102.421 89.5089 103.228 89.5089 104.036C89.5473 105.42 89.5858 106.689 89.5858 107.88C89.6242 112.878 89.6627 116.185 91.7388 118.184C95.199 121.567 105.733 122.067 126.494 121.798C131.646 121.721 136.183 121.721 140.181 121.721C155.252 121.683 162.788 121.683 165.748 118.569C167.863 116.339 168.055 112.148 167.632 103.613C166.825 86.6196 165.287 86.5812 146.563 86.5812C142.45 86.5812 137.836 86.5812 132.184 86.3889C125.764 86.1583 120.343 86.0429 115.729 86.0429Z" fill="#313338"/>
<path d="M140.14 91.5782C136.68 98.1525 133.259 104.688 129.798 111.263C126.915 108.456 124.377 105.419 122.263 101.959C121.571 100.805 119.764 101.882 120.456 102.997C122.955 106.995 125.877 110.532 129.337 113.685C129.798 114.108 130.644 114.108 130.99 113.493C134.643 106.534 138.295 99.575 141.947 92.6163C142.563 91.4244 140.756 90.3864 140.14 91.5782Z" fill="#313338"/>
<path d="M176.433 121.76C176.433 119.684 145.484 104.767 143.1 106.65C140.486 108.727 146.215 138.407 148.291 139.445C149.213 139.907 154.98 136.831 161.016 133.101C162.285 134.601 163.4 135.831 164.208 136.869C166.707 139.983 167.591 141.137 169.206 139.983C171.897 138.138 172.512 137.83 168.206 132.602C167.399 131.641 166.668 130.756 166.014 129.872C171.666 126.22 176.433 122.683 176.433 121.76Z" fill="white"/>
<path d="M168.168 141.483C166.669 141.483 165.4 139.907 163.593 137.677L163.478 137.523C162.862 136.754 162.132 135.908 161.286 134.947L160.863 134.447C149.675 141.291 148.407 140.675 147.868 140.406C145.485 139.215 142.447 122.067 141.755 115.301C140.91 107.15 141.986 106.266 142.486 105.882C144.447 104.305 154.827 108.765 163.208 112.802C177.472 119.645 177.472 121.145 177.472 121.798C177.472 122.375 177.472 123.605 167.591 130.18C168.053 130.756 168.552 131.371 169.052 131.987C171.551 134.985 172.628 136.562 172.397 138.023C172.243 139.253 171.244 139.907 169.975 140.791L169.86 140.868C169.245 141.291 168.668 141.483 168.168 141.483ZM161.055 132.063C161.363 132.063 161.632 132.179 161.863 132.41L162.862 133.563C163.708 134.562 164.477 135.408 165.092 136.177L165.208 136.331C167.784 139.561 168.014 139.561 168.668 139.099L168.783 139.022C169.591 138.484 170.283 137.984 170.321 137.677C170.436 136.908 168.322 134.332 167.438 133.255C166.63 132.294 165.9 131.371 165.208 130.526C165.015 130.295 164.939 129.987 164.977 129.718C165.015 129.411 165.208 129.18 165.438 129.026C171.359 125.143 174.319 122.721 175.165 121.798C173.82 120.645 168.399 117.454 160.017 113.571C149.906 108.842 144.754 107.381 143.678 107.496C142.024 110.303 146.869 135.408 148.753 138.407C149.752 138.215 153.097 136.715 160.479 132.179C160.671 132.102 160.863 132.063 161.055 132.063Z" fill="#313338"/>
<path d="M27.416 78.4677C35.7204 41.4439 64.017 46.0959 75.9738 54.631C85.2778 61.2438 90.9294 76.4301 96.2734 85.0805C96.2734 85.0805 97.5422 86.2339 101.464 93.4234C104.309 98.6136 104.578 101.997 101.195 103.035C98.3111 103.919 95.7352 103.035 92.6595 98.1138C90.7372 95.0381 88.6995 92.3853 88.6995 92.3853C88.6995 92.3853 88.9686 94.9997 84.0091 96.3068C79.0495 97.614 77.2425 94.2307 77.2425 94.2307C75.0511 97.8447 69.4763 97.1142 64.2861 95.2304C60.6721 93.8847 54.7514 90.809 54.6745 85.5034" fill="white"/>
<path d="M99.3879 104.381C96.6198 104.381 94.2361 102.536 91.814 98.6527C90.8144 97.038 89.7763 95.577 89.0459 94.539C88.3538 95.5386 86.9698 96.6151 84.3554 97.3071C80.9721 98.1914 78.6269 97.1149 77.3582 95.8846C74.8976 98.3836 70.3225 98.499 64.0173 96.1537C60.9416 95.0388 53.7906 91.7324 53.7137 85.4657L55.7898 85.4272C55.8667 90.3868 62.0565 93.1934 64.7478 94.193C68.2464 95.4617 74.3978 97.1149 76.4355 93.6547L77.3582 92.0784L78.2424 93.6932C78.2809 93.8085 79.7803 96.346 83.8172 95.2695C86.9313 94.4621 87.7387 93.0396 87.7387 92.4244L87.6618 89.2334L89.5841 91.7324C89.661 91.8477 91.6602 94.4621 93.5825 97.5378C96.6967 102.536 98.965 102.651 100.926 102.036C102.002 101.69 102.348 101.152 102.502 100.806C102.848 99.9215 102.848 97.9607 100.58 93.9239C96.8889 87.1957 95.6202 85.8886 95.5817 85.8501L95.3895 85.6194C93.8901 83.1973 92.3907 80.2754 90.7759 77.1997C86.6237 69.2028 81.8948 60.0911 75.359 55.439C68.7077 50.6717 57.5583 47.596 47.7545 51.3253C38.2967 54.9392 31.5686 64.7046 28.3775 78.9682L26.3398 78.5069C30.5689 59.5913 39.9499 52.0942 47.024 49.403C57.5583 45.3661 69.4767 48.6725 76.5892 53.7474C83.5096 58.707 88.3538 68.011 92.6214 76.2385C94.1977 79.2373 95.6586 82.0824 97.0811 84.4276C97.5041 84.889 98.965 86.7344 102.387 92.8858C104.578 96.8458 105.193 99.6139 104.386 101.575C103.925 102.767 102.925 103.574 101.502 104.035C100.81 104.266 100.08 104.381 99.3879 104.381Z" fill="#313338"/>
<path d="M89.7762 91.4256C87.7001 88.3114 85.624 85.1588 83.5479 82.0447C82.8174 80.9297 81.0104 81.9678 81.7409 83.0827C83.817 86.1969 85.8931 89.3495 87.9692 92.4636C88.6997 93.5786 90.5067 92.5405 89.7762 91.4256Z" fill="#313338"/>
<path d="M78.1272 92.6934C77.2429 90.4251 76.0511 88.349 74.4363 86.542C73.5521 85.5424 72.0911 87.0034 72.9754 88.003C74.321 89.5408 75.3975 91.3094 76.128 93.2317C76.5893 94.462 78.627 93.9237 78.1272 92.6934Z" fill="#313338"/>
<path d="M55.4813 84.6204C51.6751 81.8138 47.1384 80.5836 42.448 81.0834C41.1408 81.2372 41.1024 83.3133 42.448 83.1595C46.8309 82.6981 50.9062 83.7746 54.4432 86.389C55.5197 87.2348 56.5578 85.4278 55.4813 84.6204Z" fill="#313338"/>
<path d="M100.348 100.153C98.9643 100.96 97.8493 99.4222 98.1185 98.1534C98.3876 96.8463 99.541 96.0389 100.733 95.5775C101.963 95.1162 101.425 93.0785 100.195 93.5783C97.8109 94.4626 95.6579 96.5002 96.0808 99.2684C96.4653 101.767 99.195 103.267 101.425 101.96C102.54 101.268 101.502 99.4606 100.348 100.153Z" fill="#313338"/>
<path d="M66.8999 91.6936C64.9007 90.3095 63.1706 88.6179 61.7865 86.6571C61.0176 85.5806 59.2106 86.6187 59.9795 87.6952C61.5943 89.9635 63.5551 91.8858 65.8618 93.5006C66.9383 94.2695 67.9764 92.4625 66.8999 91.6936Z" fill="#313338"/>
<path d="M142.978 5.33607C142.8 4.19391 141.054 3.85799 141.09 5.40325C141.09 6.04152 141.517 7.95631 140.341 8.02349C139.201 8.09068 139.415 6.1087 139.451 5.47044C139.522 4.29469 137.598 4.29469 137.527 5.47044C137.456 6.54541 137.42 7.72116 138.097 8.62816C138.667 9.4008 139.593 9.90469 140.591 9.80391C141.588 9.70313 142.372 8.99768 142.8 8.15786C143.299 7.11648 143.156 6.41104 142.978 5.33607Z" fill="#313338"/>
<path d="M138.759 20.3678C138.327 19.9179 137.594 19.8761 137.117 20.2841L137.084 20.305C135.919 21.2988 134.699 22.1356 133.345 22.7319C131.991 23.3177 130.516 23.6211 129.04 23.6211C128.297 23.6316 127.565 23.5479 126.832 23.4014C126.111 23.255 125.401 23.0353 124.724 22.7424C124.048 22.4495 123.404 22.0938 122.783 21.6858C122.161 21.2779 121.573 20.8071 120.997 20.305L120.963 20.2736C120.597 19.9598 120.053 19.8865 119.599 20.1271C119.044 20.4305 118.844 21.1 119.166 21.6231C120.12 23.2027 121.618 24.4894 123.36 25.3471C124.225 25.776 125.157 26.1003 126.111 26.3305C127.065 26.5502 128.053 26.6652 129.04 26.6652C130.028 26.6652 131.015 26.5502 131.969 26.3305C132.923 26.1108 133.855 25.7656 134.721 25.3471C136.463 24.4998 137.983 23.2131 138.915 21.6126C139.148 21.236 139.103 20.7234 138.759 20.3678Z" fill="#313338"/>
<path d="M126.777 16.8971C127.498 16.9599 128.264 16.8553 128.963 16.5938C129.662 16.3427 130.316 15.9347 130.849 15.4222C131.393 14.9096 131.803 14.2715 132.081 13.581C132.214 13.2358 132.302 12.8697 132.358 12.5036C132.38 12.3257 132.391 12.1374 132.402 11.9491L132.413 11.5412C132.413 10.4741 132.369 9.39667 132.302 8.32966C132.236 7.26265 132.136 6.19562 131.981 5.11815C131.914 4.64741 131.515 4.24989 130.982 4.17667C130.339 4.09298 129.762 4.51142 129.673 5.11815C129.518 6.18516 129.418 7.25218 129.351 8.32966C129.285 9.39667 129.24 10.4741 129.24 11.5412V11.9282L129.229 12.1793C129.218 12.3466 129.185 12.514 129.152 12.6709C129.063 12.9952 128.907 13.2986 128.686 13.581C128.242 14.1459 127.565 14.5644 126.744 14.7108L126.666 14.7213C126.167 14.8154 125.768 15.2025 125.723 15.7046C125.668 16.3218 126.134 16.8448 126.777 16.8971Z" fill="#313338"/>
<path d="M119.357 5.25401C119.235 4.94018 118.968 4.67865 118.613 4.55312C117.981 4.3439 117.282 4.65773 117.049 5.25401C116.916 5.62014 116.838 5.98627 116.772 6.3524C116.716 6.71854 116.683 7.08467 116.672 7.4508C116.661 7.81693 116.661 8.18306 116.716 8.5492C116.772 8.91533 116.86 9.28146 117.049 9.64759C117.171 9.87773 117.371 10.066 117.626 10.1916C118.258 10.4845 119.035 10.2439 119.357 9.64759C119.545 9.28146 119.634 8.91533 119.69 8.5492C119.745 8.18306 119.745 7.81693 119.734 7.4508C119.723 7.08467 119.69 6.71854 119.634 6.3524C119.556 5.98627 119.49 5.62014 119.357 5.25401Z" fill="#313338"/>
</svg>
