<svg width="152" height="32" viewBox="0 0 152 32" fill="none" xmlns="http://www.w3.org/2000/svg">
<path d="M55.5391 6.96637L53.3583 15.0837L50.9958 6.96637H46.7554L44.3929 15.0837L42.2121 6.96637H39.7891H37.366L39.7891 14.5385L42.2121 22.1107H46.4525L48.8756 14.0236L51.2987 22.1107H55.5391L60.3853 6.96637H55.5391Z" fill="white"/>
<path d="M72.5159 6.96637V8.38994C71.5163 7.23897 70.0322 6.54233 68.0029 6.54233C64.0351 6.54233 60.7639 10.0255 60.7639 14.5385C60.7639 19.0515 64.0351 22.5347 68.0029 22.5347C70.0322 22.5347 71.5163 21.8381 72.5159 20.6871V22.1107H77.0592V6.96637H72.5159ZM68.9115 18.2337C66.8216 18.2337 65.3072 16.8102 65.3072 14.5385C65.3072 12.2669 66.8216 10.8433 68.9115 10.8433C71.0014 10.8433 72.5159 12.2669 72.5159 14.5385C72.5159 16.8102 71.0014 18.2337 68.9115 18.2337Z" fill="white"/>
<path d="M80.3166 22.1107H84.8599V0H80.3166V22.1107Z" fill="white"/>
<path d="M99.1036 0.908657V8.38994C98.104 7.23897 96.6199 6.54233 94.5906 6.54233C90.6228 6.54233 87.3516 10.0255 87.3516 14.5385C87.3516 19.0515 90.6228 22.5347 94.5906 22.5347C96.6199 22.5347 98.104 21.8381 99.1036 20.6871V22.1107H103.647V0.908657H99.1036ZM95.4992 18.2337C93.4093 18.2337 91.8949 16.8102 91.8949 14.5385C91.8949 12.2669 93.4093 10.8433 95.4992 10.8433C97.5891 10.8433 99.1036 12.2669 99.1036 14.5385C99.1036 16.8102 97.5891 18.2337 95.4992 18.2337Z" fill="white"/>
<path d="M114.174 22.5347C118.626 22.5347 122.2 19.0515 122.2 14.5385C122.2 10.0255 118.626 6.54233 114.174 6.54233C109.721 6.54233 106.147 10.0255 106.147 14.5385C106.147 19.0515 109.721 22.5347 114.174 22.5347ZM114.174 18.1126C112.205 18.1126 110.69 16.689 110.69 14.5385C110.69 12.388 112.205 10.9645 114.174 10.9645C116.142 10.9645 117.657 12.388 117.657 14.5385C117.657 16.689 116.142 18.1126 114.174 18.1126Z" fill="white"/>
<path d="M4.40589 2.53764C3.63154 2.53764 3.00007 3.16911 3.00007 3.94346L3.00024 23.4985C3.00024 24.2729 3.63172 24.9044 4.40607 24.9044L26.9323 24.9044C27.7067 24.9044 28.3382 24.2729 28.3382 23.4985L28.338 3.94346C28.338 3.16911 27.7065 2.53764 26.9322 2.53764L4.40589 2.53764Z" fill="#313338"/>
<path d="M2.42898 25.7441L26.9364 25.7441C28.2777 25.7441 29.3655 24.6517 29.3655 23.3151L29.3655 3.94236C29.3655 2.60567 28.2777 1.51328 26.9364 1.51328L2.42898 1.51327C1.08769 1.51327 -9.14369e-05 2.60106 -9.15541e-05 3.94236L-9.32477e-05 23.3151C-9.3365e-05 24.6564 1.08769 25.7441 2.42898 25.7441ZM3.37388 3.94236C3.37388 3.168 4.00535 2.53653 4.77971 2.53653L26.9318 2.53654C27.7061 2.53654 28.3376 3.168 28.3376 3.94236L28.3376 23.3151C28.3376 24.0894 27.7061 24.7209 26.9318 24.7209L4.7797 24.7209C4.00535 24.7209 3.37388 24.0894 3.37388 23.3151L3.37388 3.94236Z" fill="#FFD699"/>
<path d="M19.8113 16.4079C19.5995 16.1745 19.2413 16.1528 19.0078 16.3645L18.9916 16.3754C18.4216 16.8911 17.8244 17.3253 17.1622 17.6348C16.4999 17.9388 15.7779 18.0962 15.0559 18.0962C14.6922 18.1016 14.3339 18.0582 13.9757 17.9822C13.6228 17.9062 13.2754 17.7922 12.9443 17.6402C12.6131 17.4882 12.2983 17.3036 11.9943 17.0919C11.6903 16.8802 11.4026 16.6359 11.1203 16.3754L11.104 16.3591C10.9249 16.1962 10.6589 16.1582 10.4363 16.2831C10.1649 16.4405 10.0672 16.7879 10.2246 17.0593C10.6915 17.879 11.4243 18.5467 12.2766 18.9919C12.7 19.2144 13.156 19.3827 13.6228 19.5021C14.0897 19.6161 14.5728 19.6759 15.0559 19.6759C15.5391 19.6759 16.0222 19.6161 16.489 19.5021C16.9559 19.3881 17.4119 19.209 17.8353 18.9919C18.6876 18.5522 19.4313 17.8845 19.8873 17.0539C20.0012 16.8585 19.9795 16.5925 19.8113 16.4079Z" fill="#FFD699"/>
<path d="M13.9478 14.6065C14.3007 14.6391 14.6752 14.5848 15.0172 14.4491C15.3592 14.3188 15.6795 14.1071 15.9401 13.8411C16.2061 13.5751 16.4069 13.244 16.5426 12.8857C16.6078 12.7066 16.6512 12.5166 16.6783 12.3266C16.6892 12.2343 16.6946 12.1366 16.7 12.0389L16.7055 11.8272C16.7055 11.2735 16.6838 10.7143 16.6512 10.1606C16.6186 9.60692 16.5698 9.05322 16.4938 8.49409C16.4612 8.24981 16.2658 8.04353 16.0052 8.00553C15.6904 7.9621 15.4081 8.17924 15.3647 8.49409C15.2887 9.04779 15.2398 9.6015 15.2072 10.1606C15.1747 10.7143 15.1529 11.2735 15.1529 11.8272V12.028L15.1475 12.1583C15.1421 12.2451 15.1258 12.332 15.1095 12.4134C15.0661 12.5817 14.9901 12.7391 14.8815 12.8857C14.6644 13.1788 14.3332 13.396 13.9315 13.472L13.8935 13.4774C13.6493 13.5263 13.4538 13.7271 13.4321 13.9877C13.405 14.308 13.633 14.5794 13.9478 14.6065Z" fill="#FFD699"/>
<path d="M10.3168 8.56337C10.2571 8.40052 10.1268 8.2648 9.95306 8.19966C9.64364 8.09109 9.30165 8.25395 9.18765 8.56337C9.12251 8.75337 9.08451 8.94336 9.05194 9.13336C9.0248 9.32335 9.00851 9.51335 9.00308 9.70335C8.99765 9.89334 8.99765 10.0833 9.0248 10.2733C9.05194 10.4633 9.09537 10.6533 9.18765 10.8433C9.24736 10.9627 9.34507 11.0605 9.46993 11.1256C9.77935 11.2776 10.1593 11.1527 10.3168 10.8433C10.409 10.6533 10.4525 10.4633 10.4796 10.2733C10.5068 10.0833 10.5068 9.89334 10.5013 9.70335C10.4959 9.51335 10.4796 9.32335 10.4525 9.13336C10.4145 8.94336 10.3819 8.75337 10.3168 8.56337Z" fill="#FFD699"/>
<path d="M21.8129 8.56337C21.7531 8.40052 21.6229 8.2648 21.4492 8.19966C21.1397 8.09109 20.7977 8.25395 20.6837 8.56337C20.6186 8.75337 20.5806 8.94336 20.548 9.13336C20.5209 9.32335 20.5046 9.51335 20.4992 9.70335C20.4937 9.89334 20.4937 10.0833 20.5209 10.2733C20.548 10.4633 20.5915 10.6533 20.6837 10.8433C20.7435 10.9627 20.8412 11.0605 20.966 11.1256C21.2754 11.2776 21.6554 11.1527 21.8129 10.8433C21.9051 10.6533 21.9486 10.4633 21.9757 10.2733C22.0029 10.0833 22.0029 9.89334 21.9974 9.70335C21.992 9.51335 21.9757 9.32335 21.9486 9.13336C21.9106 8.94336 21.878 8.75337 21.8129 8.56337Z" fill="#FFD699"/>
<path d="M98.6253 25.4017C98.0857 24.9304 97.1726 24.8865 96.5776 25.314L96.5361 25.3359C95.0835 26.3772 93.5616 27.254 91.8737 27.8788C90.1858 28.4926 88.3457 28.8105 86.5056 28.8105C85.5787 28.8214 84.6655 28.7337 83.7524 28.5803C82.8531 28.4268 81.9677 28.1967 81.1237 27.8898C80.2798 27.5829 79.4773 27.2102 78.7025 26.7827C77.9278 26.3553 77.1945 25.862 76.4751 25.3359L76.4336 25.303C75.977 24.9742 75.2991 24.8975 74.7318 25.1496C74.0401 25.4675 73.791 26.1689 74.1923 26.717C75.3821 28.372 77.2498 29.7202 79.422 30.619C80.5011 31.0683 81.6633 31.4081 82.8531 31.6493C84.0429 31.8794 85.2743 32 86.5056 32C87.7369 32 88.9683 31.8794 90.1581 31.6493C91.3479 31.4191 92.5101 31.0574 93.5892 30.619C95.7614 29.7311 97.6568 28.383 98.819 26.706C99.1095 26.3114 99.0542 25.7744 98.6253 25.4017Z" fill="#313338"/>
<path d="M125.84 22.1101C125.628 22.3216 125.375 22.4273 125.078 22.4273C124.782 22.4273 124.529 22.3216 124.317 22.1101C124.106 21.8986 124 21.6449 124 21.3488C124 21.0528 124.106 20.799 124.317 20.5875C124.529 20.3761 124.782 20.2703 125.078 20.2703C125.375 20.2703 125.628 20.3761 125.84 20.5875C126.051 20.799 126.157 21.0528 126.157 21.3488C126.157 21.6449 126.051 21.8986 125.84 22.1101Z" fill="#FFD699"/>
<path d="M129.717 22.44C128.761 22.44 127.961 22.1186 127.318 21.4757C126.684 20.8328 126.367 20.0377 126.367 19.0903C126.367 18.1429 126.684 17.3478 127.318 16.7049C127.961 16.0621 128.761 15.7406 129.717 15.7406C130.334 15.7406 130.897 15.8887 131.404 16.1847C131.912 16.4808 132.296 16.8784 132.559 17.3774L131.15 18.2021C131.023 17.9399 130.829 17.7327 130.567 17.5804C130.313 17.4282 130.025 17.352 129.704 17.352C129.213 17.352 128.807 17.517 128.486 17.8469C128.164 18.1683 128.004 18.5828 128.004 19.0903C128.004 19.5894 128.164 20.0039 128.486 20.3338C128.807 20.6552 129.213 20.8159 129.704 20.8159C130.034 20.8159 130.326 20.744 130.579 20.6002C130.842 20.448 131.036 20.2407 131.163 19.9785L132.584 20.7905C132.305 21.2896 131.912 21.6914 131.404 21.9959C130.897 22.292 130.334 22.44 129.717 22.44Z" fill="#FFD699"/>
<path d="M133.133 22.2624V13H134.769V22.2624H133.133Z" fill="#FFD699"/>
<path d="M136.762 15.157C136.492 15.157 136.255 15.0597 136.052 14.8652C135.857 14.6622 135.76 14.4253 135.76 14.1546C135.76 13.8839 135.857 13.6471 136.052 13.4441C136.255 13.2411 136.492 13.1396 136.762 13.1396C137.041 13.1396 137.278 13.2411 137.473 13.4441C137.676 13.6471 137.777 13.8839 137.777 14.1546C137.777 14.4253 137.676 14.6622 137.473 14.8652C137.278 15.0597 137.041 15.157 136.762 15.157ZM135.95 22.2624V15.9183H137.587V22.2624H135.95Z" fill="#FFD699"/>
<path d="M141.788 22.44C140.832 22.44 140.032 22.1186 139.39 21.4757C138.755 20.8328 138.438 20.0377 138.438 19.0903C138.438 18.1429 138.755 17.3478 139.39 16.7049C140.032 16.0621 140.832 15.7406 141.788 15.7406C142.405 15.7406 142.968 15.8887 143.475 16.1847C143.983 16.4808 144.368 16.8784 144.63 17.3774L143.221 18.2021C143.095 17.9399 142.9 17.7327 142.638 17.5804C142.384 17.4282 142.096 17.352 141.775 17.352C141.284 17.352 140.878 17.517 140.557 17.8469C140.235 18.1683 140.075 18.5828 140.075 19.0903C140.075 19.5894 140.235 20.0039 140.557 20.3338C140.878 20.6552 141.284 20.8159 141.775 20.8159C142.105 20.8159 142.397 20.744 142.65 20.6002C142.913 20.448 143.107 20.2407 143.234 19.9785L144.655 20.7905C144.376 21.2896 143.983 21.6914 143.475 21.9959C142.968 22.292 142.405 22.44 141.788 22.44Z" fill="#FFD699"/>
<path d="M151.053 22.2624H149.15L146.84 19.3822V22.2624H145.204V13.3806H146.84V18.7097L149.023 15.9183H150.977L148.426 19.0523L151.053 22.2624Z" fill="#FFD699"/>
</svg>
